<svg xmlns="http://www.w3.org/2000/svg" xmlns:xlink="http://www.w3.org/1999/xlink" width="823.71" height="701.564" viewBox="0 0 823.71 701.564">
  <defs>
    <clipPath id="clip-path">
      <rect id="Rectangle_71" data-name="Rectangle 71" width="823.71" height="701.564" fill="#6c63ff"/>
    </clipPath>
    <clipPath id="clip-path-3">
      <rect id="Rectangle_68" data-name="Rectangle 68" width="732.939" height="688.454" fill="#6c63ff"/>
    </clipPath>
    <clipPath id="clip-path-4">
      <rect id="Rectangle_69" data-name="Rectangle 69" width="823.71" height="637.422" fill="#6c63ff"/>
    </clipPath>
  </defs>
  <g id="Group_27" data-name="Group 27" transform="translate(-2127 -2368)">
    <g id="Group_26" data-name="Group 26" transform="translate(2127 2368)">
      <g id="Group_25" data-name="Group 25" clip-path="url(#clip-path)">
        <g id="Group_24" data-name="Group 24">
          <g id="Group_23" data-name="Group 23" clip-path="url(#clip-path)">
            <g id="Group_19" data-name="Group 19" transform="translate(72.395)" opacity="0.2" style="isolation: isolate">
              <g id="Group_18" data-name="Group 18">
                <g id="Group_17" data-name="Group 17" clip-path="url(#clip-path-3)">
                  <path id="Path_193" data-name="Path 193" d="M283.656,8.292C184.209,46.14,70.244,130.554,21.994,317.688c-30.527,118.384,20.017,243.97,125.584,307.1,84.87,50.75,212.09,85.432,395.952,47.791,112.752-23.085,198.456-117.46,202.452-231.492,2.058-58.877-16.811-123.731-79.771-183.93-33.03-31.581-63.942-65.284-93.674-99.934C507,80.865,388.263-31.514,283.656,8.292" transform="translate(-13.19 0.003)" fill="#6c63ff"/>
                </g>
              </g>
            </g>
            <g id="Group_22" data-name="Group 22" transform="translate(0 64.142)" opacity="0.2" style="isolation: isolate">
              <g id="Group_21" data-name="Group 21">
                <g id="Group_20" data-name="Group 20" clip-path="url(#clip-path-4)">
                  <path id="Path_194" data-name="Path 194" d="M151.847,210.069s-311.554,299.556-42.125,422.384c77.147,35.166,109.343,8.464,178.456-20.387,73.646-30.738,259.143-99.362,328.261-100.63,149.652-2.736,333.393-219.623,85.94-430.641S151.847,210.069,151.847,210.069" transform="translate(0 -11.795)" fill="#6c63ff"/>
                </g>
              </g>
            </g>
          </g>
        </g>
      </g>
    </g>
    <g id="Group_15" data-name="Group 15" transform="translate(2242.606 2546.812)">
      <path id="Path_122" data-name="Path 122" d="M918.933,654.65c58.691-103.816-53.88-156.984-68.37-47.357-.734-14.148-1.511-28.523-6.211-41.887-7.137-27.725-45.918-47.814-64.442-19.75-9.792,17.389,3.194,41.783-8.067,58.261-7.1-41.472-67.318-31.743-60.977,9.868,4.76,19.991,25.882,31.625,42.741,40.669Z" transform="translate(-295.123 -268.325)" fill="#f2f2f2"/>
      <path id="Path_123" data-name="Path 123" d="M720.877,597.566c29.792,9.667,67.024,25.951,70.044,61.543.087,1.411,2.295,1.421,2.208,0-.772-12.568-6.9-24.069-15.378-33.164-9.3-9.972-21.348-16.783-33.789-22.068C741.531,603.314,716.212,591.336,720.877,597.566Z" transform="translate(-296.508 -277.225)" fill="#fff"/>
      <path id="Path_124" data-name="Path 124" d="M808.478,537.125a200.459,200.459,0,0,1,28.161,114.318c-.082,1.419,2.126,1.415,2.208,0a202.9,202.9,0,0,0-16.38-91.9C821.06,556.948,809.708,529.668,808.478,537.125Z" transform="translate(-308.84 -268.842)" fill="#fff"/>
      <path id="Path_125" data-name="Path 125" d="M929.765,552.014a322.457,322.457,0,0,0-26.623,103.18c-.123,1.415,2.085,1.407,2.208,0a320.756,320.756,0,0,1,17.668-80.481c-.026-2.891,12.7-26.356,6.748-22.7Z" transform="translate(-322.078 -271.05)" fill="#fff"/>
      <path id="Path_126" data-name="Path 126" d="M627.094,666.792c16.8-29.718-15.424-44.938-19.572-13.557-.21-4.05-.433-8.165-1.778-11.991-2.043-7.936-13.145-13.687-18.447-5.654-2.8,4.978.914,11.961-2.309,16.678-2.033-11.872-19.27-9.087-17.455,2.825,1.363,5.723,7.409,9.053,12.235,11.642Z" transform="translate(-275.123 -282.252)" fill="#f2f2f2"/>
      <path id="Path_127" data-name="Path 127" d="M570.4,650.451c8.529,2.767,19.186,7.429,20.051,17.617.025.4.657.407.632,0a15.537,15.537,0,0,0-4.4-9.494,27.842,27.842,0,0,0-9.672-6.317C576.311,652.1,569.063,648.668,570.4,650.451Z" transform="translate(-275.52 -284.8)" fill="#fff"/>
      <path id="Path_128" data-name="Path 128" d="M595.475,633.149a57.382,57.382,0,0,1,8.062,32.725c-.023.406.609.4.632,0a58.083,58.083,0,0,0-4.689-26.308c-.4-.742-3.652-8.551-4-6.416Z" transform="translate(-279.05 -282.4)" fill="#fff"/>
      <path id="Path_129" data-name="Path 129" d="M630.2,637.412a92.3,92.3,0,0,0-7.621,29.536c-.036.405.6.4.632,0a91.816,91.816,0,0,1,5.057-23.038c-.008-.828,3.635-7.545,1.931-6.5Z" transform="translate(-282.84 -283.032)" fill="#fff"/>
      <path id="Path_130" data-name="Path 130" d="M471.881,244.15H228.461a.86.86,0,1,1,0-1.72H471.881a.86.86,0,1,1,0,1.72Z" transform="translate(-227.6 -227.807)" fill="#3f3d56"/>
      <circle id="Ellipse_21" data-name="Ellipse 21" cx="14.622" cy="14.622" r="14.622" transform="translate(179.597)" fill="#6c63ff"/>
      <path id="Path_131" data-name="Path 131" d="M471.881,308.15H228.461a.86.86,0,1,1,0-1.72H471.881a.86.86,0,1,1,0,1.72Z" transform="translate(-227.6 -236.758)" fill="#3f3d56"/>
      <circle id="Ellipse_22" data-name="Ellipse 22" cx="14.622" cy="14.622" r="14.622" transform="translate(43.695 55.049)" fill="#6c63ff"/>
      <path id="Path_132" data-name="Path 132" d="M471.881,372.15H228.461a.86.86,0,1,1,0-1.72H471.881a.86.86,0,1,1,0,1.72Z" transform="translate(-227.6 -245.709)" fill="#3f3d56"/>
      <circle id="Ellipse_23" data-name="Ellipse 23" cx="14.622" cy="14.622" r="14.622" transform="translate(101.324 110.098)" fill="#6c63ff"/>
      <path id="Path_133" data-name="Path 133" d="M638.337,381.966a9.668,9.668,0,0,1,.805,1.295l45.335,5.1,6.594-8.908,14.745,8.194-12.979,21.639-55.542-14.577a9.655,9.655,0,1,1,1.043-12.74Z" transform="translate(-282.612 -246.78)" fill="#ffb8b8"/>
      <path id="Path_134" data-name="Path 134" d="M712.5,391.72a4.145,4.145,0,0,1-1.01-.63l-18.221-15.349a4.139,4.139,0,0,1-.266-6.087l16.534-16.6a4.118,4.118,0,0,1,5.365-.427l12.5,9.08a4.142,4.142,0,0,1,1.31,5.119L717.9,389.694A4.143,4.143,0,0,1,712.5,391.72Z" transform="translate(-292.522 -243.107)" fill="#6c63ff"/>
      <path id="Path_135" data-name="Path 135" d="M566.424,418.332l-10.882,2.961-16.6-40.565L555,376.358Z" transform="translate(-75.374 -52.636)" fill="#ffb8b8"/>
      <path id="Path_136" data-name="Path 136" d="M12.8,0h22.64V13.694H0V12.8A12.8,12.8,0,0,1,12.8,0Z" transform="translate(458.334 371.255) rotate(-15.221)" fill="#2f2e41"/>
      <path id="Path_137" data-name="Path 137" d="M460.029,427.738H448.752l-5.366-43.5h16.646Z" transform="translate(-62.01 -53.738)" fill="#ffb8b8"/>
      <path id="Path_138" data-name="Path 138" d="M437.142,431.064h22.64v13.694H424.337v-.89a12.8,12.8,0,0,1,12.8-12.8Z" transform="translate(-59.346 -60.287)" fill="#2f2e41"/>
      <circle id="Ellipse_24" data-name="Ellipse 24" cx="22.594" cy="22.594" r="22.594" transform="translate(383.058 64.194) rotate(-45)" fill="#ffb8b8"/>
      <path id="Path_139" data-name="Path 139" d="M686,595.913H670.591a4.152,4.152,0,0,1-4.135-3.884c-4.592-73-1.906-125.373,8.454-164.8a4.274,4.274,0,0,1,.168-.508l.825-2.063a4.12,4.12,0,0,1,3.844-2.6h31.692a4.133,4.133,0,0,1,3.143,1.445l4.3,5.023c.084.1.163.2.238.3,19.411,27.069,36.807,79.989,56.953,151.12a4.126,4.126,0,0,1-2.721,5.075l-16.563,5.3a4.162,4.162,0,0,1-4.991-2.145l-42.98-89.146a3.22,3.22,0,0,0-6.09.962L690.1,592.334A4.155,4.155,0,0,1,686,595.913Z" transform="translate(-288.675 -252.928)" fill="#2f2e41"/>
      <path id="Path_140" data-name="Path 140" d="M718.644,416.393l-.13,0-38.5-1.215a4.126,4.126,0,0,1-3.982-3.637c-4.88-39.5,8.5-50.085,14.485-52.8a3.183,3.183,0,0,0,1.851-2.523l.517-4.14a4.127,4.127,0,0,1,.818-2.01c9.377-12.147,22.182-16.037,28.979-17.274a4.134,4.134,0,0,1,4.831,3.541l.775,5.945a3.271,3.271,0,0,0,.656,1.556c19.556,25.566-2.23,63.314-6.8,70.622h0A4.147,4.147,0,0,1,718.644,416.393Z" transform="translate(-290.17 -240.435)" fill="#6c63ff"/>
      <path id="Path_141" data-name="Path 141" d="M719.017,478.778a9.882,9.882,0,0,0,1.294-15.1l7.151-86.353-21.29,2.929-.405,83.9a9.936,9.936,0,0,0,13.251,14.622Z" transform="translate(-294.133 -246.673)" fill="#ffb8b8"/>
      <path id="Path_142" data-name="Path 142" d="M728.613,385.791a4.151,4.151,0,0,1-1.178-.171L704.579,378.9a4.139,4.139,0,0,1-2.692-5.466l8.458-21.851a4.118,4.118,0,0,1,4.74-2.549l15.1,3.283a4.141,4.141,0,0,1,3.258,4.159l-.7,25.29a4.143,4.143,0,0,1-4.128,4.027Z" transform="translate(-293.893 -242.702)" fill="#6c63ff"/>
      <path id="Path_143" data-name="Path 143" d="M901.191,674.15H573.476a.86.86,0,0,1,0-1.72H901.191a.86.86,0,0,1,0,1.72Z" transform="translate(-275.853 -287.945)" fill="#3f3d56"/>
      <path id="Path_144" data-name="Path 144" d="M738.379,279.441a93.7,93.7,0,0,1-3.7-15.608c-.247-3.085.543-6.4,2.79-8.533,4.2-3.983,11.348-2.086,15.745,1.684,6.355,5.448,9.524,13.821,10.722,22.106s.671,16.709.959,25.074,1.485,16.967,5.75,24.17,12.179,12.731,20.527,12.118a14.446,14.446,0,0,0,9.043-3.832,10.485,10.485,0,0,0,3.149-9.105c4.267,7.64,2.1,17.995-4.26,24s-16.153,7.7-24.52,5.14-15.253-8.994-19.366-16.718-5.62-16.647-5.4-25.395c.168-6.718,1.31-13.491.175-20.114s-5.281-13.348-11.817-14.908Z" transform="translate(-298.512 -229.297)" fill="#2f2e41"/>
      <path id="Path_145" data-name="Path 145" d="M701.947,289.924c-1.114,3.723-5.377,6.018-9.212,5.389a10.8,10.8,0,0,1-8.153-7.495,15.43,15.43,0,0,1,1.206-11.311,17.615,17.615,0,0,1,10.079-8.977,14.462,14.462,0,0,1,13.151,2.1,4.836,4.836,0,0,1,3.38-3.535,9.243,9.243,0,0,1,5.072.075,20.9,20.9,0,0,1,11.631,8.462,34.008,34.008,0,0,1,5.272,13.589c1.3,7.284.819,15.244-3.272,21.409s-12.461,9.805-19.251,6.866c-.423-2.164.58-4.344,1.74-6.219s2.536-3.7,2.981-5.863-.409-4.8-2.5-5.508c-1.783-.6-3.683.374-5.561.492a6.093,6.093,0,0,1-5.845-8.78Z" transform="translate(-291.433 -231.072)" fill="#2f2e41"/>
    </g>
  </g>
</svg>
