<?xml version="1.0" encoding="utf-8"?>
<!-- Generator: Adobe Illustrator 25.1.0, SVG Export Plug-In . SVG Version: 6.00 Build 0)  -->
<svg version="1.1" id="Layer_1" xmlns="http://www.w3.org/2000/svg" xmlns:xlink="http://www.w3.org/1999/xlink" x="0px" y="0px"
	 viewBox="0 0 396.7 341.3" style="enable-background:new 0 0 396.7 341.3;" xml:space="preserve">
<style type="text/css">
	.st0{fill:#BFC7F5;}
	.st1{fill:#B0DBF2;}
	.st2{opacity:0.7;}
	.st3{clip-path:url(#SVGID_2_);}
	.st4{clip-path:url(#SVGID_4_);}
	.st5{opacity:0.2;}
	.st6{clip-path:url(#SVGID_6_);}
	.st7{fill:#94D4F8;}
	.st8{clip-path:url(#SVGID_8_);}
</style>
<circle class="st0" cx="40" cy="301.3" r="40"/>
<circle class="st1" cx="356.7" cy="40" r="40"/>
<g id="Group_26" transform="translate(2127 2368)" class="st2">
	<g>
		<g>
			<defs>
				<rect id="SVGID_1_" x="-2095.3" y="-2368" width="365" height="310.9"/>
			</defs>
			<clipPath id="SVGID_2_">
				<use xlink:href="#SVGID_1_"  style="overflow:visible;"/>
			</clipPath>
			<g id="Group_25" class="st3">
				<g id="Group_24">
					<g>
						<g>
							<defs>
								<rect id="SVGID_3_" x="-2095.3" y="-2368" width="365" height="310.9"/>
							</defs>
							<clipPath id="SVGID_4_">
								<use xlink:href="#SVGID_3_"  style="overflow:visible;"/>
							</clipPath>
							<g id="Group_23" class="st4">
								<g id="Group_19" transform="translate(72.395)" class="st5">
									<g id="Group_18">
										<g>
											<g>
												<defs>
													<rect id="SVGID_5_" x="-2135.6" y="-2368" width="324.8" height="305.1"/>
												</defs>
												<clipPath id="SVGID_6_">
													<use xlink:href="#SVGID_5_"  style="overflow:visible;"/>
												</clipPath>
												<g id="Group_17" class="st6">
													<path id="Path_193" class="st7" d="M-2015.7-2364.3c-44,16.8-94.6,54.2-116,137.1c-13.5,52.5,8.9,108.1,55.7,136.1
														c37.6,22.5,94,37.8,175.5,21.2c50-10.2,88-52.1,89.7-102.6c0.9-26.1-7.4-54.8-35.4-81.5c-14.6-14-28.3-28.9-41.5-44.3
														C-1916.8-2332.2-1969.4-2382-2015.7-2364.3"/>
												</g>
											</g>
										</g>
									</g>
								</g>
								<g id="Group_22" transform="translate(0 64.142)" class="st5">
									<g id="Group_21">
										<g>
											<g>
												<defs>
													<rect id="SVGID_7_" x="-2095.3" y="-2403.7" width="365" height="282.4"/>
												</defs>
												<clipPath id="SVGID_8_">
													<use xlink:href="#SVGID_7_"  style="overflow:visible;"/>
												</clipPath>
												<g id="Group_20" class="st8">
													<path id="Path_194" class="st7" d="M-2028-2315.9c0,0-138.1,132.8-18.7,187.2c34.2,15.6,48.4,3.8,79.1-9
														c32.6-13.6,114.8-44,145.5-44.6c66.3-1.2,147.7-97.3,38.1-190.8C-1893.7-2466.6-2028-2315.9-2028-2315.9"/>
												</g>
											</g>
										</g>
									</g>
								</g>
							</g>
						</g>
					</g>
				</g>
			</g>
		</g>
	</g>
</g>
</svg>
