<?xml version="1.0" encoding="utf-8"?>
<!-- Generator: Adobe Illustrator 25.2.3, SVG Export Plug-In . SVG Version: 6.00 Build 0)  -->
<svg version="1.1" id="Layer_1" xmlns="http://www.w3.org/2000/svg" xmlns:xlink="http://www.w3.org/1999/xlink" x="0px" y="0px"
	 viewBox="0 0 782.2 672.6" style="enable-background:new 0 0 782.2 672.6;" xml:space="preserve">
<style type="text/css">
	.st0{opacity:0.2;}
	.st1{clip-path:url(#SVGID_2_);}
	.st2{fill:#5E59F8;}
	.st3{clip-path:url(#SVGID_4_);}
	.st4{opacity:0.5;fill:#6BCDF2;enable-background:new    ;}
	.st5{opacity:0.6;fill:#FFFFFF;enable-background:new    ;}
	.st6{opacity:0.4;fill:#FFFFFF;enable-background:new    ;}
	.st7{fill:#E9E9F4;}
	.st8{fill:#FFFFFF;}
	.st9{fill:#DFDFF0;}
	.st10{fill:#292938;}
	.st11{fill:none;stroke:#5E59F8;stroke-width:5.5202;stroke-linecap:square;stroke-linejoin:round;stroke-miterlimit:10;}
	.st12{fill:#C7C8DC;}
	.st13{fill:none;stroke:#D2D3E8;stroke-width:4.9974;stroke-miterlimit:10;}
	.st14{clip-path:url(#SVGID_6_);}
	.st15{fill:#94D4F8;}
	.st16{clip-path:url(#SVGID_8_);}
	.st17{opacity:0.3;fill:#6C63FF;}
	.st18{fill:#6C63FF;}
	.st19{fill:none;stroke:#383838;stroke-width:3;stroke-linecap:round;stroke-linejoin:round;}
	.st20{fill:none;stroke:#383838;stroke-width:3;stroke-linecap:round;stroke-linejoin:round;stroke-dasharray:11.6351,11.6351;}
	.st21{fill:none;stroke:#383838;stroke-width:3;stroke-linecap:round;stroke-linejoin:round;stroke-dasharray:11.6971,11.6971;}
	.st22{fill:#9F9FFF;}
	.st23{fill:none;stroke:#C8C4FC;stroke-width:3;stroke-linecap:round;stroke-linejoin:round;stroke-miterlimit:10;}
	.st24{fill:none;stroke:#6C63FF;stroke-width:3;stroke-linecap:round;stroke-linejoin:round;stroke-miterlimit:10;}
	.st25{clip-path:url(#SVGID_10_);}
	.st26{opacity:0.35;}
	.st27{fill:#E4E4F4;}
	.st28{opacity:0.25;}
	.st29{fill:none;stroke:#2F2E41;stroke-width:2;stroke-linecap:round;stroke-linejoin:round;stroke-miterlimit:10;}
	.st30{clip-path:url(#SVGID_12_);}
	.st31{fill:#C8C4FC;}
	.st32{fill:none;stroke:#383838;stroke-width:3;stroke-linecap:round;stroke-linejoin:round;stroke-dasharray:11.6697,11.6697;}
	.st33{fill:none;stroke:#FFFFFF;stroke-width:3;stroke-linecap:round;stroke-linejoin:round;stroke-miterlimit:10;}
</style>
<g>
	<g>
		<g id="Group_19_3_" transform="translate(72.395)" class="st0">
			<g id="Group_18_3_">
				<g>
					<g>
						<g>
							<g>
								<defs>
									<rect id="SVGID_1_" x="-838.6" y="556.2" width="566.4" height="532"/>
								</defs>
								<clipPath id="SVGID_2_">
									<use xlink:href="#SVGID_1_"  style="overflow:visible;"/>
								</clipPath>
								<g id="Group_17_3_" class="st1">
									<path id="Path_193_3_" class="st2" d="M-629.6,562.6c-76.8,29.2-164.9,94.5-202.2,239.1c-23.6,91.5,15.5,188.6,97.1,237.3
										c65.6,39.3,163.9,66,306,36.9c87.2-17.9,153.4-90.8,156.5-178.9c1.6-45.5-13-95.6-61.7-142.1
										c-25.5-24.4-49.4-50.5-72.4-77.2C-457,618.7-548.7,531.8-629.6,562.6"/>
								</g>
							</g>
						</g>
					</g>
				</g>
			</g>
		</g>
		<g id="Group_22_3_" transform="translate(0 64.142)" class="st0">
			<g id="Group_21_3_">
				<g>
					<g>
						<g>
							<g>
								<defs>
									<rect id="SVGID_3_" x="-822.2" y="541.6" width="636.5" height="492.6"/>
								</defs>
								<clipPath id="SVGID_4_">
									<use xlink:href="#SVGID_3_"  style="overflow:visible;"/>
								</clipPath>
								<g id="Group_20_3_" class="st3">
									<path id="Path_194_3_" class="st2" d="M-704.9,694.8c0,0-240.8,231.5-32.5,326.4c59.6,27.2,84.5,6.6,137.9-15.8
										c56.9-23.7,200.2-76.8,253.7-77.7C-230.1,925.6-88.2,758-279.4,595S-704.9,694.8-704.9,694.8"/>
								</g>
							</g>
						</g>
					</g>
				</g>
			</g>
		</g>
	</g>
	<circle class="st4" cx="-699.3" cy="678.2" r="61.8"/>
	<g>
		<path class="st5" d="M-199.9,863.7c-0.6-0.2-1.3-0.4-2-0.6c-10.3-3-21.2-4.6-32.5-4.6c-65,0-117.9,52.9-117.9,117.9
			c0,5.3,0.4,10.6,1,15.7c3.7,27.6,17,52.3,36.5,70.4c5.5-2.4,10.9-5.1,16.1-8c-19-15.6-32.1-38-35.9-63.4
			c-0.7-4.8-1.1-9.7-1.1-14.7c0-55.8,45.4-101.2,101.2-101.2c12.1,0,23.6,2.1,34.4,6h0.1c1.2,0.4,2.5,0.9,3.7,1.4
			c2-5.2,3.8-10.5,5.3-15.9C-193.9,865.7-196.8,864.7-199.9,863.7z"/>
		<path class="st6" d="M-199.9,826.1c-4.3-1-8.6-1.8-13.1-2.4c-7-1-14.2-1.5-21.4-1.5c-85,0-154.2,69.2-154.2,154.2
			c0,7.3,0.5,14.5,1.5,21.6c4.1,29.1,16.3,55.6,34.3,77.1c6.1-1.4,12.1-3,17.9-4.9c-19.1-20.4-32-46.6-35.9-75.6
			c-0.8-6-1.2-12.1-1.2-18.3c0-75.8,61.7-137.6,137.6-137.6c9.5,0,18.8,1,27.8,2.8c2.3,0.5,4.5,1,6.7,1.6c4.4,1.1,8.7,2.5,12.9,4
			c0.7-5.4,1.2-11,1.3-16.6v-0.6C-190.3,828.5-195,827.2-199.9,826.1z"/>
	</g>
	<g>
		<g>
			<rect x="-635.1" y="931.4" class="st7" width="40" height="41.4"/>
			<path class="st7" d="M-615.1,970.4c-5.8,3.3-12.4,5.1-19.5,5.1c-21.8-0.1-39.3-18.3-39.3-40.2V781c0-10.3,8.4-18.7,18.7-18.7
				h20.1v173.8c0,2.2,0.2,4.3,0.5,6.4C-632.6,954.5-625.2,964.6-615.1,970.4z"/>
		</g>
		<path class="st8" d="M-333.9,710.9v225.2c0,21.8-17.6,39.4-39.4,39.4h-261.1c7.1,0,13.7-1.9,19.4-5.1
			c10.2-5.8,17.5-15.9,19.5-27.8c0.3-2.1,0.5-4.3,0.5-6.5V710.9c0-10.3,8.4-18.7,18.7-18.7h223.8
			C-342.3,692.2-333.9,700.6-333.9,710.9z"/>
		<path class="st9" d="M-595,727.3v208.8c0,2.2-0.2,4.4-0.5,6.5c-0.9,5.7-3.1,11-6.3,15.7c-6.3,9.3-20.1,9.3-26.4,0
			c-3.1-4.6-5.3-10-6.3-15.7c-0.3-2.1-0.5-4.2-0.5-6.4V745.9c0-10.3,8.4-18.7,18.7-18.7L-595,727.3L-595,727.3z"/>
		<g>
			<path class="st10" d="M-526.4,710.2v56.9c0,1.5-1.1,2.7-2.4,2.7h-9.9c-0.8,0-1.6-0.5-2-1.2l-20.8-35.3c-0.3-0.6-1.2-0.3-1.2,0.4
				v33.4c0,1.5-1.1,2.7-2.4,2.7h-8.8c-1.3,0-2.4-1.2-2.4-2.7v-56.9c0-1.5,1.1-2.7,2.4-2.7h9.9c0.8,0,1.6,0.5,2,1.2l20.8,35.5
				c0.3,0.6,1.2,0.3,1.2-0.4v-33.6c0-1.5,1.1-2.7,2.4-2.7h8.8C-527.5,707.5-526.4,708.7-526.4,710.2z"/>
			<path class="st10" d="M-484.8,719.7h-15.7c-1.3,0-2.4,1.2-2.4,2.7v7.2c0,1.5,1.1,2.7,2.4,2.7h13.4c1.3,0,2.4,1.2,2.4,2.7v6.3
				c0,1.5-1.1,2.7-2.4,2.7h-13.4c-1.3,0-2.4,1.2-2.4,2.7v8.3c0,1.5,1.1,2.7,2.4,2.7h15.7c1.3,0,2.4,1.2,2.4,2.7v6.8
				c0,1.5-1.1,2.7-2.4,2.7h-29.3c-1.3,0-2.4-1.2-2.4-2.7v-56.9c0-1.5,1.1-2.7,2.4-2.7h29.3c1.3,0,2.4,1.2,2.4,2.7v6.8
				C-482.4,718.5-483.5,719.7-484.8,719.7z"/>
			<path class="st10" d="M-473.4,707.5h9.4c1.2,0,2.1,0.9,2.4,2.2l7.1,40.1c0.1,0.7,1.1,0.8,1.2,0l8.8-40.2c0.3-1.2,1.2-2.1,2.3-2.1
				h11.1c1.1,0,2.1,0.9,2.3,2.1l8.4,40.1c0.2,0.7,1.1,0.7,1.2,0l7.1-40c0.2-1.3,1.2-2.2,2.4-2.2h9.5c1.6,0,2.7,1.7,2.3,3.4
				l-13.3,56.9c-0.3,1.2-1.2,2-2.3,2h-12.7c-1.1,0-2.1-0.9-2.3-2.1l-7.8-36.2c-0.2-0.7-1.1-0.7-1.2,0l-8.1,36.2
				c-0.3,1.2-1.2,2-2.3,2h-12.7c-1.1,0-2.1-0.8-2.3-2l-12.9-56.9C-476.1,709.2-475,707.5-473.4,707.5z"/>
			<path class="st10" d="M-369.9,770.5c-10.9,0-19.7-5.5-21.4-16.1c-0.3-1.7,0.9-3.2,2.4-3.2h9.8c1.1,0,2,0.8,2.3,1.9
				c0.9,3.5,3.3,5.2,6.6,5.2c4,0,6.5-2.2,6.5-5.9c0-11.5-27.9-5.3-27.7-27.4c0-11.8,8.7-18.4,20.3-18.4c11,0,18.7,5.5,20.5,15.4
				c0.3,1.7-0.8,3.3-2.4,3.3h-10c-1,0-2-0.7-2.3-1.8c-0.8-2.9-3.1-4.6-6.1-4.6c-3.3-0.1-5.7,1.8-5.7,5.7c0,10.8,27.6,5.9,27.6,26.8
				C-349.5,761.7-356.8,770.5-369.9,770.5z"/>
		</g>
		<g>
			<line class="st11" x1="-576.9" y1="787.7" x2="-516.3" y2="787.7"/>
			<line class="st11" x1="-576.9" y1="812.9" x2="-516.3" y2="812.9"/>
			<line class="st11" x1="-576.9" y1="838.1" x2="-516.3" y2="838.1"/>
			<line class="st11" x1="-576.9" y1="863.2" x2="-516.3" y2="863.2"/>
			<line class="st11" x1="-576.9" y1="888.4" x2="-516.3" y2="888.4"/>
			<line class="st11" x1="-413.2" y1="787.7" x2="-352.5" y2="787.7"/>
			<line class="st11" x1="-413.2" y1="812.9" x2="-352.5" y2="812.9"/>
			<line class="st11" x1="-413.2" y1="838.1" x2="-352.5" y2="838.1"/>
			<line class="st11" x1="-413.2" y1="863.2" x2="-352.5" y2="863.2"/>
			<line class="st11" x1="-413.2" y1="888.4" x2="-352.5" y2="888.4"/>
			<line class="st11" x1="-576.9" y1="913.6" x2="-352.5" y2="913.6"/>
			<line class="st11" x1="-577.7" y1="938.8" x2="-354.5" y2="938.8"/>
			<line class="st11" x1="-586.3" y1="960" x2="-369.9" y2="960"/>
		</g>
		<g>
			<path class="st12" d="M-431.3,783.7h-66.8c-2.1,0-3.8,1.7-3.8,3.8v101.2c0,2.1,1.7,3.8,3.8,3.8h66.8c2.1,0,3.8-1.7,3.8-3.8V787.4
				C-427.6,785.4-429.2,783.7-431.3,783.7z"/>
			<path class="st10" d="M-459,855.7c9.8-2.5,17-11.4,16.9-22c0-11.9-9.6-21.9-21.4-22.5c-13-0.7-23.8,9.7-23.8,22.6
				c0,10.5,7.2,19.4,16.9,21.9c-16.5,2.5-29.4,15.9-31.2,32.7c-0.2,2.1,1.4,4,3.6,4h66.7c2.2,0,3.8-1.9,3.6-4
				C-429.6,871.7-442.5,858.3-459,855.7z"/>
		</g>
		<g>
			<path class="st13" d="M-615.1,970.4c-5.8,3.3-12.4,5.1-19.5,5.1c-21.8-0.1-39.3-18.3-39.3-40.2v-25"/>
			<path class="st13" d="M-595,798.6v137.5c0,2.2-0.2,4.4-0.5,6.5c-2,12-9.3,22.1-19.5,27.8c-5.7,3.3-12.3,5.1-19.4,5.1h172.1"/>
		</g>
		<path class="st13" d="M-634.4,881.7V745.9c0,0-1-18.7,18.1-18.7h21.3"/>
	</g>
	<circle class="st4" cx="-437.6" cy="205.6" r="61.8"/>
</g>
<g>
	<g id="Group_19_8_" transform="translate(72.395)" class="st0">
		<g id="Group_18_8_">
			<g>
				<g>
					<defs>
						<rect id="SVGID_5_" x="-6.4" y="26.2" width="667.7" height="627.2"/>
					</defs>
					<clipPath id="SVGID_6_">
						<use xlink:href="#SVGID_5_"  style="overflow:visible;"/>
					</clipPath>
					<g id="Group_17_8_" class="st14">
						<path id="Path_193_8_" class="st15" d="M240,33.7C149.4,68.2,45.6,145.1,1.6,315.6C-26.2,423.5,19.8,537.9,116,595.4
							c77.3,46.3,193.2,77.8,360.8,43.5c102.8-21,180.8-107,184.5-210.9c1.9-53.7-15.3-112.7-72.7-167.5
							c-30.1-28.8-58.2-59.5-85.4-91C443.4,99.9,335.3-2.5,240,33.7"/>
					</g>
				</g>
			</g>
		</g>
	</g>
	<g id="Group_22_8_" transform="translate(0 64.142)" class="st0">
		<g id="Group_21_8_">
			<g>
				<g>
					<defs>
						<rect id="SVGID_7_" y="20.4" width="750.4" height="580.7"/>
					</defs>
					<clipPath id="SVGID_8_">
						<use xlink:href="#SVGID_7_"  style="overflow:visible;"/>
					</clipPath>
					<g id="Group_20_8_" class="st16">
						<path id="Path_194_8_" class="st15" d="M138.3,201.1c0,0-283.9,272.9-38.4,384.8c70.2,32.1,99.6,7.7,162.6-18.6
							c67.1-28,236-90.6,299.1-91.6c136.4-2.5,303.7-200.1,78.3-392.3S138.3,201.1,138.3,201.1"/>
					</g>
				</g>
			</g>
		</g>
	</g>
</g>
<circle class="st17" cx="482.9" cy="74.2" r="74.2"/>
<path class="st18" d="M22.8,384.9l0-62.9c0-2.9,2.5-5.1,5.4-4.7c11.2,1.5,22.1,2.8,32.9,4.3c35,4.8,69.9,9.8,104.8,14.5
	c8.2,1.1,9.1,0.2,9.1-7.9c0.1-42.5,0.2-85.1,0.2-127.6c0-8.8-1.1-9.7-9.7-8.5c-43.2,5.7-86.6,9.1-130.2,9.9
	c-2.9,0.1-5.9-0.2-8.9-0.4c-2.2-0.1-4-2-4-4.2l0,0c0-4.6,0-9.3,0-14.3c0-2.4,1.9-4.4,4.3-4.5c8.7-0.3,17.2-0.4,25.6-1.1
	c37.6-2.9,75.3-6.1,112.9-9.2c6-0.5,10.8-2.1,10.1-10c-0.4-4.3,3.7-5.3,7.3-6c22.7-4.3,45.4-8.8,68.1-13.1
	c20.9-4,41.8-7.9,62.6-11.8c7.5-1.4,14.5-0.9,21.7,3.3c10.5,6.2,21.6,11.2,33.1,14.9c8.5,2.7,12.9,6.8,11.7,15.2
	c-1.8,13.1,2.3,24.4,10.1,35.2c35.6,49.2,71.6,98.2,114.1,141.7c17.5,17.9,37.3,33.8,56.2,50.3c2.2,1.9,6.1,3,9,2.8
	c20.3-1.3,40.3-3.6,58-15.1c1.6-1,3.9-1.3,5.9-1.3c17.8-0.2,35.5-0.2,53.3-0.6c6.3-0.1,9.7,2.2,12,8.2c9.9,25.7,25.4,47.6,46.6,65.3
	c9.4,7.9,19.9,13.8,31.8,17.8c3,1,5.1,3.8,5.1,6.9c0,0.9,0,1.8-0.1,2.6c-0.4,4.3-4.5,7.4-8.3,6.7c-19.5-3.4-39-6.8-58.5-10.1
	c-3.5-0.6-7-1-10.4-1.7c-3.4-0.7-6.8-1.5-8,3c-1.2,4.6-3.4,9.2,1.9,11.6c2.7,1.2,7.9,1.6,10.9,1.6c20.2,0.1,40.5,0.1,60.7,0.1
	c3.6,0,7.4-0.4,7.5,4.8c0.1,5.4-3.7,5.6-7.6,5.6c-21.3,0-42.5,0-63.8,0c-8.7,0-9.5,0.4-9.6,8.8c-0.1,6.3-3.1,8.3-8.9,8.3
	c-17.1-0.1-34.3,0-51.4,0c-7.9,0-9.8-1.4-9.8-9.3c0-6.6-3-7.9-8.8-7.9c-76.4,0.1-152.9,0.1-229.3,0.1c-4.9,0-8.9,4-9,8.9
	c-0.1,17.9,0,35.7,0,53.9c0,3.3-2.6,5.9-5.9,5.9H181.1c-3.2,0-5.8-2.6-5.8-5.8l0-0.1c-0.1-17.6-0.2-35.1-0.2-52.7
	c0-9.8-0.4-10.2-10-10.2c-45-0.1-90-0.1-135.1-0.2c-1.1,0-2.2,0-3.3,0c-2.1,0-3.8-1.7-3.8-3.8l0-2.2c0-2,1.5-3.7,3.5-3.8
	c2.2-0.2,4.4-0.3,6.6-0.3c44,0,88,0,132,0c9.4,0,10.1-0.7,10.1-10.2c0-23.1-0.1-46.3,0.1-69.4c0-5.6-1.5-8.1-7.6-8.4
	c-46.8-2.5-93.5-5.3-140.3-8.1l0,0C24.7,389.4,22.8,387.4,22.8,384.9z M502.7,485.7c13.2,0,26.4,0,39.6,0c25.2,0,50.4,0,75.6,0
	c7.5,0,9.2-2,9-9.3c-0.2-4.4-0.3-8.9,0.1-13.3c0.5-5.8-1.6-9.7-7.1-11.7c-7-2.5-13.9-5.2-21-7.5c-68.6-22-139.1-28.8-210.7-27.9
	c-6.6,0.1-8.4,1.8-8.4,8.6c-0.1,16.9-0.1,33.9,0,50.8c0,9.5,0.8,10.3,10.2,10.3C427.6,485.7,465.1,485.7,502.7,485.7z M382.7,218.8
	c-1-1.2-2.9-0.5-2.9,1c0,0,0,0,0,0c0,30.6,0.1,61.1-0.1,91.7c-0.1,8.2,2.9,14.3,9.8,18.7c14,9.1,27.7,18.7,42,27.3
	c22.7,13.6,46.4,25.3,72.6,30.9c10.4,2.2,21.1,2.6,31.7,3.9c0.3-0.8,0.3-0.7,0.6-1.4C477.3,340.8,430.6,279.6,382.7,218.8z
	 M316.3,286.6c0-20.4-0.3-40.8,0.1-61.2c0.2-8.7-4.7-13.7-10.6-18.4c-1.4-1.1-3.4-0.8-4.4,0.6c-5.2,7.5-9.8,15.1-9.8,24.9
	c0.2,35.3,0.1,70.5,0.1,105.8c0,16.5,0,16.5,16.7,17.6c7.2,0.5,7.8,0,7.8-7.3C316.4,327.9,316.3,307.3,316.3,286.6z M244.6,286.7
	c-0.1,0-0.1,0-0.2,0c0-17.1,0-34.2,0-51.3c0-7.2-1.1-15-8.7-17c-1.5-0.4-3.6-1.1-5.9,0c-7.7,3.6-10.1,15.8-10,26
	c0.4,28,0.3,56.1,0.5,84.1c0.1,16.3-2.6,14.7,15.5,17.3c7.5,1.1,8.8-0.3,8.7-7.8C244.6,320.9,244.6,303.8,244.6,286.7z M438.8,381.3
	c-19-11.8-37.4-23.2-56.5-35c-0.9-0.6-2.1,0.1-2.1,1.2c0,6.5,0.1,12.2,0,17.9c-0.1,4,1.6,6,5.5,6.8c17.1,3.7,34.3,7.6,52.2,11.6
	C439.3,384.2,440.2,382.2,438.8,381.3z M698.8,422.3c-0.6-0.7-1.7-0.3-1.7,0.7c0,7.8-0.2,14.6,0.2,21.5c0.1,1.9,1.6,4.7,3.2,5.3
	c9.4,3.3,18.9,6.1,28.9,9.2c1,0.3,1.7-0.9,1-1.6C719.7,445.5,709.5,434.3,698.8,422.3z M624.3,396.8c-7.4,2.3-14.7,4.5-21.8,6.7
	c-1.1,0.3-1.1,1.9,0,2.3c5.1,1.5,10.2,2.3,15.3,2.6c8.6,0.5,10.4-1.6,8.1-10.8C625.6,396.9,624.9,396.6,624.3,396.8z M676.2,414.1
	L676.2,414.1c-0.6-0.3-1.3-0.2-1.8,0.2c-1.4,1.2-3.2,2.4-3.3,3.8c-0.5,5.9-0.4,11.9,0,17.8c0.1,1.1,1.9,2.8,3.2,2.8
	c1.8,0,2.7-1.8,2.7-2.9c0.2-6.8,0.1-13.6,0.1-20.3C677.1,414.9,676.7,414.4,676.2,414.1z"/>
<g>
	<g>
		<g>
			<path class="st19" d="M574,577.5c-1.8,0.8-3.7,1.6-5.5,2.3"/>
			<path class="st20" d="M557.6,583.8c-15.1,5-31.2,8-47.9,8.9c-54.4,2.8-104.5-18.5-140-54.4"/>
			<path class="st19" d="M365.7,534.1c-1.4-1.5-2.7-3-4-4.5"/>
		</g>
	</g>
	<g>
		<g>
			<path class="st19" d="M361.7,529.6c0,0-1.1-1.8-3.4-4.9"/>
			<path class="st21" d="M350.8,515.7c-20.2-22.3-70.7-64.2-169.4-72.3c0,0-26.1-1.2-26.1-22.2c0-11.4,8-15.4,15.3-16.7"/>
			<path class="st19" d="M176.4,403.9c3.5-0.1,6,0.3,6,0.3"/>
		</g>
	</g>
</g>
<g>
	<g>
		<path class="st22" d="M451.8,612.1l222.8-91.4c5.7-2.3,6.4-10,1.3-13.4L541.8,419l-240.5,77.5l132,112.6
			C438.4,613.5,445.6,614.7,451.8,612.1z"/>
		<path class="st23" d="M522.6,581.1l-71.5,29.3c-2,0.8-4,1.2-6.2,1.2c0,0,0,0,0,0c-3.9,0-7.6-1.4-10.5-3.9l-63.8-54.4"/>
		<path class="st18" d="M414.5,572.9c-1.4,0-2.8-0.5-3.9-1.4l-79.3-65.3c-2.5-2.1-1.7-6.1,1.4-7.1l203.2-65.5c2.6-0.8,5.5-0.5,7.8,1
			l76.5,49.2c2.9,1.9,2.5,6.2-0.7,7.5l-202.7,81.3C416,572.7,415.3,572.9,414.5,572.9z"/>
		<path class="st18" d="M534.4,567.2c-0.5,0-0.9-0.2-1.3-0.5l-25.6-21.1c-0.8-0.7-0.6-2,0.4-2.3l59.5-24c0.8-0.3,1.8-0.2,2.5,0.3
			l30.8,18.7c0.9,0.6,0.8,2-0.2,2.4l-65.4,26.2C534.9,567.2,534.7,567.2,534.4,567.2z"/>
		<path class="st22" d="M541.8,419L497,242.1c-1.3-5.2-6.3-8.6-11.6-8L259.1,261c-6.3,0.7-10.5,6.8-9.1,13l51.3,222.5L541.8,419z"/>
		<path class="st23" d="M274.3,371.4l-22.6-97.8c-0.6-2.4-0.1-5,1.4-7.1c1.4-2.1,3.7-3.4,6.2-3.7L404,245.6"/>
		<polyline class="st24" points="505.3,282.3 539.6,417.8 527.1,421.8 		"/>
		<path class="st8" d="M268.5,272l212-25.2c2.9-0.3,5.6,1.5,6.4,4.4L526,405.7c0.8,3-0.9,6-3.9,7l-206.1,66.4
			c-3.3,1.1-6.7-0.9-7.5-4.2l-45.1-195.8C262.7,275.7,265,272.4,268.5,272z"/>
		<line class="st24" x1="336.3" y1="485.2" x2="517" y2="427"/>
		<g>
			<defs>
				<path id="SVGID_9_" d="M268.5,272l212-25.2c2.9-0.3,5.6,1.5,6.4,4.4L526,405.7c0.8,3-0.9,6-3.9,7l-206.1,66.4
					c-3.3,1.1-6.7-0.9-7.5-4.2l-45.1-195.8C262.7,275.7,265,272.4,268.5,272z"/>
			</defs>
			<clipPath id="SVGID_10_">
				<use xlink:href="#SVGID_9_"  style="overflow:visible;"/>
			</clipPath>
			<g class="st25">
				<g class="st26">
					<path class="st27" d="M267.2,271.9c-3.1,0.4-4.7,4.4-3.7,9l16.2,70.4l32.1-84.8L267.2,271.9z"/>
					<path class="st27" d="M488.2,424.1l36.2-11.7c1.9-0.6,2.7-4.2,1.7-8l-17.3-67.6L488.2,424.1z"/>
					<polygon class="st27" points="408,255.2 339.2,472.2 402.2,451.8 459.7,249 					"/>
				</g>
			</g>
		</g>
	</g>
	<g class="st28">
		<line class="st29" x1="398.4" y1="544.5" x2="589.1" y2="474.1"/>
		<line class="st29" x1="369.6" y1="520.5" x2="560.7" y2="454.7"/>
		<line class="st29" x1="521.6" y1="446.5" x2="591.9" y2="493.8"/>
		<line class="st29" x1="494" y1="455.7" x2="565.5" y2="505.2"/>
		<line class="st29" x1="465" y1="465.2" x2="537.5" y2="516.9"/>
		<line class="st29" x1="433.9" y1="474.7" x2="507" y2="528.6"/>
		<line class="st29" x1="401.2" y1="484.5" x2="476" y2="541.4"/>
		<line class="st29" x1="368.8" y1="496.2" x2="442.7" y2="554.6"/>
	</g>
</g>
<g>
	<g>
		<defs>
			<path id="SVGID_11_" d="M660.2,220.7l-177-25.9c-2.5-0.4-4.3,2.4-3,4.6l72.2,112.4c3.1,4.8,9.8,5.8,14.1,2l35.8-30.9l27.5,17.3
				c2,1.3,4.7-0.1,4.9-2.5l3.1-40.3l26.6-19.8C671.3,232.6,668.6,221.9,660.2,220.7z"/>
		</defs>
		<clipPath id="SVGID_12_">
			<use xlink:href="#SVGID_11_"  style="overflow:visible;"/>
		</clipPath>
		<g class="st30">
			<polygon class="st22" points="613,273.8 634.4,303 637.9,257.4 476.7,193.8 			"/>
			<path class="st31" d="M566.6,313.8l46.4-40.1l-136.3-79.9l75.8,117.9C555.6,316.6,562.3,317.6,566.6,313.8z"/>
			<path class="st31" d="M476.7,193.8l161.2,63.6l26.6-19.8c6.8-5,4.1-15.7-4.3-16.9L476.7,193.8z"/>
			<polygon class="st18" points="634.4,303 602.4,282.9 613,273.8 			"/>
		</g>
	</g>
	<g>
		<g>
			<g>
				<path class="st19" d="M648.7,302c1.2,1.6,2.3,3.3,3.4,4.9"/>
				<path class="st32" d="M658.4,316.8c14.5,24.6,23.4,53,25,83.4c3.8,74-36.9,140.1-98.6,172.2"/>
				<path class="st19" d="M579.5,575c-1.8,0.9-3.6,1.7-5.5,2.5"/>
			</g>
		</g>
	</g>
</g>
<line class="st33" x1="575" y1="251.5" x2="509.9" y2="213.3"/>
</svg>
