<?xml version="1.0" encoding="utf-8"?>
<!-- Generator: Adobe Illustrator 25.2.3, SVG Export Plug-In . SVG Version: 6.00 Build 0)  -->
<svg version="1.1" id="Layer_1" xmlns="http://www.w3.org/2000/svg" xmlns:xlink="http://www.w3.org/1999/xlink" x="0px" y="0px"
	 viewBox="0 0 200 200" style="enable-background:new 0 0 200 200;" xml:space="preserve">
<style type="text/css">
	.st0{opacity:0.54;fill:#B0ACF6;}
	.st1{fill:#FFFFFF;stroke:#B0ACF6;stroke-width:5;stroke-miterlimit:10;}
	.st2{fill:none;stroke:#B0ACF6;stroke-width:5;stroke-miterlimit:10;}
	.st3{fill:#B0ACF6;}
	.st4{fill:#B0ACF6;stroke:#B0ACF6;stroke-width:5;stroke-miterlimit:10;}
</style>
<path class="st0" d="M157.7,200H42.3C18.9,200,0,181.1,0,157.7V42.3C0,18.9,18.9,0,42.3,0h115.5C181.1,0,200,18.9,200,42.3v115.5
	C200,181.1,181.1,200,157.7,200z"/>
<rect x="86.8" y="56.4" class="st1" width="26.5" height="27.2"/>
<path class="st1" d="M166.2,48.2v101.7c0,7.8-5.8,14.2-13.2,15.2c-0.7,0.1-1.4,0.1-2.1,0.1H49.1c-0.7,0-1.4,0-2.1-0.1
	c-7.5-1-13.2-7.4-13.2-15.2V48.2c0-8.5,6.9-15.3,15.3-15.3h101.7C159.3,32.8,166.2,39.7,166.2,48.2z"/>
<line class="st2" x1="33.8" y1="56.4" x2="166.2" y2="56.4"/>
<path class="st3" d="M100.1,43.4L100.1,43.4c-2,0-3.6-1.6-3.6-3.6V27.7c0-2,1.6-3.6,3.6-3.6h0c2,0,3.6,1.6,3.6,3.6v12.1
	C103.7,41.8,102.1,43.4,100.1,43.4z"/>
<path class="st3" d="M66.9,39.9L66.9,39.9c-1.3,0-2.3-1-2.3-2.3v-7.7c0-1.3,1-2.3,2.3-2.3h0c1.3,0,2.3,1,2.3,2.3v7.7
	C69.2,38.9,68.2,39.9,66.9,39.9z"/>
<path class="st3" d="M133.2,39L133.2,39c-1.3,0-2.3-1-2.3-2.3V29c0-1.3,1-2.3,2.3-2.3h0c1.3,0,2.3,1,2.3,2.3v7.7
	C135.5,37.9,134.4,39,133.2,39z"/>
<rect x="33.8" y="56.4" class="st1" width="26.5" height="27.2"/>
<rect x="60.3" y="56.4" class="st1" width="26.5" height="27.2"/>
<rect x="113.2" y="56.4" class="st1" width="26.5" height="27.2"/>
<rect x="139.7" y="56.4" class="st1" width="26.5" height="27.2"/>
<rect x="86.8" y="83.6" class="st1" width="26.5" height="27.2"/>
<rect x="33.8" y="83.6" class="st1" width="26.5" height="27.2"/>
<rect x="60.3" y="83.6" class="st4" width="26.5" height="27.2"/>
<rect x="113.2" y="83.6" class="st1" width="26.5" height="27.2"/>
<rect x="139.7" y="83.6" class="st1" width="26.5" height="27.2"/>
<rect x="86.8" y="110.7" class="st1" width="26.5" height="27.2"/>
<rect x="33.8" y="110.7" class="st1" width="26.5" height="27.2"/>
<rect x="60.3" y="110.7" class="st1" width="26.5" height="27.2"/>
<rect x="113.2" y="110.7" class="st1" width="26.5" height="27.2"/>
<rect x="139.7" y="110.7" class="st1" width="26.5" height="27.2"/>
<rect x="86.8" y="137.9" class="st1" width="26.5" height="27.2"/>
<path class="st1" d="M60.3,137.9v27.2H47.1c-7.5-1-13.2-7.4-13.2-15.2v-12H60.3z"/>
<rect x="60.3" y="137.9" class="st1" width="26.5" height="27.2"/>
<rect x="113.2" y="137.9" class="st1" width="26.5" height="27.2"/>
<path class="st1" d="M166.2,137.9v12c0,7.8-5.8,14.2-13.2,15.2h-13.2v-27.2H166.2z"/>
<path class="st3" d="M66.9,43.4L66.9,43.4c-2,0-3.6-1.6-3.6-3.6V27.7c0-2,1.6-3.6,3.6-3.6h0c2,0,3.6,1.6,3.6,3.6v12.1
	C70.5,41.8,68.9,43.4,66.9,43.4z"/>
<path class="st3" d="M133.2,42.5L133.2,42.5c-2,0-3.6-1.6-3.6-3.6V26.8c0-2,1.6-3.6,3.6-3.6h0c2,0,3.6,1.6,3.6,3.6v12.1
	C136.8,40.8,135.2,42.5,133.2,42.5z"/>
</svg>
