<?xml version="1.0" encoding="utf-8"?>
<!-- Generator: Adobe Illustrator 25.2.3, SVG Export Plug-In . SVG Version: 6.00 Build 0)  -->
<svg version="1.1" id="Layer_1" xmlns="http://www.w3.org/2000/svg" xmlns:xlink="http://www.w3.org/1999/xlink" x="0px" y="0px"
	 viewBox="0 0 345.6 345.6" style="enable-background:new 0 0 345.6 345.6;" xml:space="preserve">
<style type="text/css">
	.st0{fill-rule:evenodd;clip-rule:evenodd;fill:#585858;}
</style>
<g>
	<path class="st0" d="M87.1,50.4h14.7v34.3c47,0,95,0,142.9,0V50.4h14.7c15.7,0,28.4,13.7,28.4,29.4v232c0,15.7-12.7,29.4-28.4,29.4
		H87.1c-16.6,0-29.4-13.7-29.4-29.4v-232C57.8,64.1,70.5,50.4,87.1,50.4z M110.6,160.1c-3.9,0-7.8-3.9-7.8-8.8
		c0-3.9,3.9-7.8,7.8-7.8H235c4.9,0,8.8,3.9,8.8,7.8c0,4.9-3.9,8.8-8.8,8.8H110.6z M110.6,220.8c-3.9,0-7.8-3.9-7.8-7.8
		c0-4.9,3.9-8.8,7.8-8.8H235c4.9,0,8.8,3.9,8.8,8.8c0,3.9-3.9,7.8-8.8,7.8H110.6z M110.6,282.4c-3.9,0-7.8-3.9-7.8-8.8
		c0-3.9,3.9-7.8,7.8-7.8H235c4.9,0,8.8,3.9,8.8,7.8c0,4.9-3.9,8.8-8.8,8.8H110.6z"/>
	<path class="st0" d="M118.5,35.8H141c0-17.6,14.7-31.3,32.3-31.3s31.3,13.7,31.3,31.3h23.5v32.3c-37.2,0-73.4,0-109.6,0
		C118.5,68.1,118.5,35.8,118.5,35.8z"/>
</g>
</svg>
