<?xml version="1.0" encoding="utf-8"?>
<!-- Generator: Adobe Illustrator 25.2.3, SVG Export Plug-In . SVG Version: 6.00 Build 0)  -->
<svg version="1.1" id="Layer_1" xmlns="http://www.w3.org/2000/svg" xmlns:xlink="http://www.w3.org/1999/xlink" x="0px" y="0px"
	 viewBox="0 0 200 200" style="enable-background:new 0 0 200 200;" xml:space="preserve">
<style type="text/css">
	.st0{fill:#C9C9C9;}
</style>
<path class="st0" d="M154.7,71.6h-42.8c-3.9,0-7.1-3.2-7.1-7.1V39.8c0-3.9,3.2-7.1,7.1-7.1h42.8c3.9,0,7.1,3.2,7.1,7.1v24.7
	C161.9,68.4,158.7,71.6,154.7,71.6z"/>
<path class="st0" d="M154.7,165.2h-42.8c-3.9,0-7.1-3.2-7.1-7.1V86.6c0-3.9,3.2-7.1,7.1-7.1h42.8c3.9,0,7.1,3.2,7.1,7.1V158
	C161.9,162,158.7,165.2,154.7,165.2z"/>
<path class="st0" d="M86.1,126.2H43.3c-3.9,0-7.1,3.2-7.1,7.1V158c0,3.9,3.2,7.1,7.1,7.1h42.8c3.9,0,7.1-3.2,7.1-7.1v-24.7
	C93.2,129.4,90,126.2,86.1,126.2z"/>
<path class="st0" d="M86.1,32.7H43.3c-3.9,0-7.1,3.2-7.1,7.1v71.5c0,3.9,3.2,7.1,7.1,7.1h42.8c3.9,0,7.1-3.2,7.1-7.1V39.8
	C93.2,35.9,90,32.7,86.1,32.7z"/>
</svg>
