<?xml version="1.0" encoding="utf-8"?>
<!-- Generator: Adobe Illustrator 25.1.0, SVG Export Plug-In . SVG Version: 6.00 Build 0)  -->
<svg version="1.1" id="Layer_1" xmlns="http://www.w3.org/2000/svg" xmlns:xlink="http://www.w3.org/1999/xlink" x="0px" y="0px"
	 viewBox="0 0 823.7 672.6" style="enable-background:new 0 0 823.7 672.6;" xml:space="preserve">
<style type="text/css">
	.st0{opacity:0.2;}
	.st1{clip-path:url(#SVGID_2_);}
	.st2{fill:#94D4F8;}
	.st3{clip-path:url(#SVGID_4_);}
	.st4{opacity:0.3;fill:#6C63FF;}
	.st5{fill:#6C63FF;}
	.st6{fill:#9F9FFF;}
	.st7{fill:#E4E4F4;}
	.st8{fill:#FFFFFF;}
	.st9{fill:#2F2E41;}
	.st10{fill:none;stroke:#6C63FF;stroke-width:6.5102;stroke-linecap:square;stroke-linejoin:round;stroke-miterlimit:10;}
	.st11{fill:none;stroke:#C8C4FC;stroke-width:5.4252;stroke-linecap:square;stroke-linejoin:round;stroke-miterlimit:10;}
	.st12{fill:none;stroke:#6C63FF;stroke-width:5.4252;stroke-linecap:square;stroke-linejoin:round;stroke-miterlimit:10;}
	.st13{fill:#FC9700;}
	.st14{fill:#C8C4FC;}
	.st15{fill:none;stroke:#9F9FFF;stroke-width:5.4252;stroke-linejoin:round;stroke-miterlimit:10;}
	.st16{fill:none;stroke:#C8C4FC;stroke-width:5.4252;stroke-linejoin:round;stroke-miterlimit:10;}
	.st17{opacity:0.6;fill:#FFFFFF;}
	.st18{opacity:0.4;fill:#FFFFFF;}
</style>
<g>
	<g>
		<g id="Group_19_2_" transform="translate(72.395)" class="st0">
			<g id="Group_18_2_">
				<g>
					<g>
						<defs>
							<rect id="SVGID_1_" x="14" y="0" width="702.7" height="660.1"/>
						</defs>
						<clipPath id="SVGID_2_">
							<use xlink:href="#SVGID_1_"  style="overflow:visible;"/>
						</clipPath>
						<g id="Group_17_2_" class="st1">
							<path id="Path_193_2_" class="st2" d="M273.3,8C178,44.2,68.7,125.2,22.4,304.6C-6.8,418.1,41.6,538.5,142.9,599
								c81.4,48.7,203.3,81.9,379.7,45.8c108.1-22.1,190.3-112.7,194.1-221.9c2-56.5-16.1-118.6-76.5-176.3
								c-31.6-30.3-61.3-62.6-89.8-95.8C487.4,77.6,373.6-30.2,273.3,8"/>
						</g>
					</g>
				</g>
			</g>
		</g>
		<g id="Group_22_2_" transform="translate(0 64.142)" class="st0">
			<g id="Group_21_2_">
				<g>
					<g>
						<defs>
							<rect id="SVGID_3_" x="17" y="-2.6" width="789.7" height="611.1"/>
						</defs>
						<clipPath id="SVGID_4_">
							<use xlink:href="#SVGID_3_"  style="overflow:visible;"/>
						</clipPath>
						<g id="Group_20_2_" class="st3">
							<path id="Path_194_2_" class="st2" d="M162.5,187.5c0,0-298.7,287.2-40.4,405c73.9,33.7,104.8,8.1,171.1-19.6
								c70.6-29.4,248.4-95.3,314.8-96.4c143.5-2.6,319.6-210.5,82.4-412.8S162.5,187.5,162.5,187.5"/>
						</g>
					</g>
				</g>
			</g>
		</g>
	</g>
	<circle class="st4" cx="673.3" cy="287.7" r="90.5"/>
	<g>
		<path class="st5" d="M700.9,334v-21.9l-7.2,1c-3-4-6.8-7.6-11.6-10.3l-170.3-98.3c-22-12.7-49.2-12.7-71.2,0L120.2,389.4
			c-4,2.3-7.3,5.1-10,8.3l-8.9,1.3v23.5l0,0c0.1,12.6,6.4,25.1,18.9,32.2l170.3,98.3c22,12.7,49.2,12.7,71.2,0l320.4-184.9
			C695.2,360.6,701.4,347.2,700.9,334z"/>
		<path class="st6" d="M290.5,531.2l-170.3-98.3c-25.2-14.5-25.2-50.8,0-65.3l320.4-184.9c22-12.7,49.2-12.7,71.2,0L682.1,281
			c25.2,14.5,25.2,50.8,0,65.3L361.7,531.2C339.7,544,312.6,544,290.5,531.2z"/>
		<path class="st7" d="M153.6,411l289.2-201.9c14.7-10.2,33.7-11.9,49.9-4.3l162.6,76c12.7,5.9,14.2,23.3,2.7,31.4L368.8,514.1
			c-14.7,10.2-33.7,11.9-49.9,4.3l-162.6-76C143.6,436.5,142.1,419.1,153.6,411z"/>
		<path class="st8" d="M145.7,384.5l305.5-176.3c15.5-8.9,34.6-8.9,50.1,0l155.4,89.7c12.1,7,12.1,24.5,0,31.5L351.2,505.7
			c-15.5,8.9-34.6,8.9-50.1,0L145.7,416C133.5,409,133.5,391.5,145.7,384.5z"/>
		<path class="st9" d="M644.9,259.5l-27.7,16c-6.1,3.5-13.5,3.5-19.6,0L523.9,233c-4.6-2.6-4.6-9.2,0-11.9l27.2-15.7L644.9,259.5z"
			/>
		<g>
			<line class="st10" x1="293.8" y1="329.4" x2="449.2" y2="419.1"/>
			<line class="st10" x1="264.2" y1="346.7" x2="419.6" y2="436.5"/>
			<line class="st10" x1="234.5" y1="364" x2="390" y2="453.8"/>
			<line class="st10" x1="204.9" y1="381.4" x2="360.3" y2="471.1"/>
			<line class="st10" x1="441.9" y1="242.8" x2="597.4" y2="332.6"/>
			<line class="st10" x1="412.3" y1="260.1" x2="567.7" y2="349.9"/>
			<line class="st10" x1="382.7" y1="277.5" x2="538.1" y2="367.2"/>
			<line class="st10" x1="353" y1="294.8" x2="508.5" y2="384.5"/>
			<line class="st10" x1="323.4" y1="312.1" x2="478.9" y2="401.8"/>
		</g>
		<g>
			<line class="st11" x1="288.8" y1="534.2" x2="118.5" y2="435.9"/>
			<line class="st11" x1="683.8" y1="349.3" x2="460.4" y2="478.3"/>
		</g>
		<path class="st12" d="M256.9,292.6l185.3-107c10.3-5.9,22-9.1,33.9-9.1c11.9,0,23.6,3.1,33.9,9.1l25.1,14.5"/>
	</g>
	<g>
		<path class="st5" d="M411.2,429.3l272.7,42.2l4.8-30.9L416,398.4c-3.2-0.5-6.4-0.8-9.5-0.9l-4.6,29.7
			C404.9,428.1,408,428.8,411.2,429.3z"/>
		<path class="st13" d="M692.9,457"/>
		<path class="st14" d="M406.4,397.5c-0.1,0-0.1,0-0.2,0c-3.1-0.1-6.2,0-9.2,0.3l-34.3,3.1c-0.1,1.6-0.2,3.2-0.5,4.9
			c-0.3,1.7-0.6,3.4-1,4.9l31.7,13.4c2.8,1.2,5.8,2.2,8.7,3.1c0.1,0,0.1,0,0.2,0.1c1.8,0.3,4.4-6.1,5.6-14.4
			C408.7,404.7,408.3,397.8,406.4,397.5z"/>
		<path class="st9" d="M356.2,408.6l5,2.1c0.4-1.5,0.8-3.1,1-4.9s0.4-3.4,0.5-4.9l-5.4,0.5C353.4,401.8,352.6,407.1,356.2,408.6z"/>
		<path class="st14" d="M720.6,466.8l1.7-10.7c0.9-5.6-3-10.8-8.5-11.7l-17.2-2.7l-4.8,30.9l17.2,2.7
			C714.5,476.2,719.7,472.4,720.6,466.8z"/>
		<path class="st6" d="M698.9,442.1l-10.2-1.6l-4.8,30.9l10.2,1.6c1.7,0.3,3.3-0.9,3.5-2.6l3.8-24.8
			C701.7,444,700.6,442.4,698.9,442.1z"/>
		<line class="st15" x1="685.9" y1="458.6" x2="406.9" y2="415.8"/>
		<path class="st16" d="M685.3,462.4l3.4-19.1L416,401.1c0,0-5.1-0.9-9.5-0.9"/>
	</g>
	<polygon class="st17" points="648.8,627.3 648.9,627.3 648.8,627.3 	"/>
	<path class="st17" d="M602.7,540.8c-16.5-8.5-35.3-13.4-55.1-13.4c-41,0-77.3,20.6-99.1,52c-13.5,19.4-21.4,43-21.4,68.4
		c0,3.9,0.2,7.8,0.6,11.7c0,0,0,0,0,0c2.6,0.1,5.3,0.2,7.9,0.3c0.3,0,0.7,0,1,0c2.7,0.1,5.5,0.1,8.2,0.2c0,0,0,0,0,0
		c-0.5-4-0.7-8.1-0.7-12.2c0-31.5,14.2-59.8,36.5-78.7c18-15.3,41.4-24.6,66.9-24.6c6.4,0,12.6,0.6,18.7,1.7
		c41.4,7.6,74.3,40,82.6,81.1c0,0,0,0,0,0c5.3-2.4,10.6-5.1,15.7-7.9C656.3,585.2,633.3,556.6,602.7,540.8z"/>
	<path class="st18" d="M655.1,532.8c-28.2-26.4-66-42.6-107.6-42.6c-69,0-127.8,44.6-149,106.4c-5.5,16-8.5,33.2-8.5,51.1
		c0,2.9,0.1,5.8,0.2,8.7c0,0,0,0,0,0c5.6,0.6,11.4,1.2,17.2,1.7c0,0,0,0,0,0c-0.3-3.4-0.4-6.9-0.4-10.4c0-20.9,4.6-40.8,12.8-58.6
		c22.3-48.3,71.1-81.9,127.7-81.9c33,0,63.3,11.4,87.3,30.5c22.5,17.9,39.4,42.5,47.7,70.9c0,0,0,0,0,0c2.5-1.6,4.9-3.3,7.3-5
		c0.1,0,0.1-0.1,0.2-0.1c2.4-1.7,4.8-3.5,7.1-5.3C688.7,573,674.1,550.6,655.1,532.8z"/>
	<g>
		<path class="st9" d="M310.5,110c34.2,0,58,19.3,58,53.2c0,32.1-21.9,48.7-52.5,50.3c-3,0.2-5.3,2.6-5.5,5.6l-0.3,6.1
			c-0.2,4.4-3.8,7.8-8.2,7.8h-14.8c-4.6,0-8.2-3.7-8.2-8.3l0.1-19.1c0-5.2,4.2-9.5,9.4-9.6c15.7-0.4,45.6-4.9,45.9-33.1
			c0.1-14.6-9-23.6-23.9-23.6c-11.3,0-19.2,4.8-22.6,13.3c-2.5,6.3-8.6,10.3-15.3,10.3h0c-12,0-20-12.4-15.1-23.4
			C265.6,121.7,284.1,110,310.5,110z M294.1,293c-12.8,0-21.8-9-21.8-20.6c0-11.6,9-20.6,21.8-20.6c12.3,0,21.3,9,21.3,20.6
			C315.5,284,306.4,293,294.1,293z"/>
	</g>
</g>
</svg>
