<?xml version="1.0" encoding="utf-8"?>
<!-- Generator: Adobe Illustrator 25.1.0, SVG Export Plug-In . SVG Version: 6.00 Build 0)  -->
<svg version="1.1" id="Layer_1" xmlns="http://www.w3.org/2000/svg" xmlns:xlink="http://www.w3.org/1999/xlink" x="0px" y="0px"
	 viewBox="0 0 386.7 350" style="enable-background:new 0 0 386.7 350;" xml:space="preserve">
<style type="text/css">
	.st0{opacity:0.2;fill:#F4F4FF;enable-background:new    ;}
	.st1{opacity:0.1;enable-background:new    ;}
	.st2{fill:#F4F4FF;}
</style>
<circle class="st0" cx="-44.2" cy="341.7" r="382.1"/>
<g class="st1">
	<path class="st2" d="M-20.1-42C190.9-42,362,129.1,362,340.1S190.9,722.2-20.1,722.2s-382.1-171.1-382.1-382.1S-231.2-42-20.1-42
		 M-20.1-64c-54.5,0-107.5,10.7-157.3,31.8c-48.1,20.4-91.3,49.5-128.4,86.6s-66.2,80.3-86.6,128.4
		c-21.1,49.8-31.8,102.8-31.8,157.3s10.7,107.5,31.8,157.3c20.4,48.1,49.5,91.3,86.6,128.4s80.3,66.2,128.4,86.6
		c49.8,21.1,102.8,31.8,157.3,31.8s107.5-10.7,157.3-31.8c48.1-20.4,91.3-49.5,128.4-86.6s66.2-80.3,86.6-128.4
		c21.1-49.8,31.8-102.8,31.8-157.3s-10.7-107.5-31.8-157.3c-20.4-48.1-49.5-91.3-86.6-128.4s-80.3-66.2-128.4-86.6
		C87.3-53.3,34.4-64-20.1-64L-20.1-64z"/>
</g>
</svg>
