<?xml version="1.0" encoding="utf-8"?>
<!-- Generator: Adobe Illustrator 25.1.0, SVG Export Plug-In . SVG Version: 6.00 Build 0)  -->
<svg version="1.1" id="Layer_1" xmlns="http://www.w3.org/2000/svg" xmlns:xlink="http://www.w3.org/1999/xlink" x="0px" y="0px"
	 viewBox="0 0 823.7 701.6" style="enable-background:new 0 0 823.7 701.6;" xml:space="preserve">
<style type="text/css">
	.st0{clip-path:url(#SVGID_2_);}
	.st1{clip-path:url(#SVGID_4_);}
	.st2{opacity:0.2;}
	.st3{clip-path:url(#SVGID_6_);}
	.st4{fill:#94D4F8;}
	.st5{clip-path:url(#SVGID_8_);}
	.st6{opacity:0.5;fill:#6C63FF;}
	.st7{opacity:0.5;}
	.st8{fill:#6C63FF;}
	.st9{fill:#FFFFFF;}
</style>
<g id="Group_26" transform="translate(2127 2368)">
	<g>
		<defs>
			<rect id="SVGID_1_" x="-2127" y="-2368" width="823.7" height="701.6"/>
		</defs>
		<clipPath id="SVGID_2_">
			<use xlink:href="#SVGID_1_"  style="overflow:visible;"/>
		</clipPath>
		<g id="Group_25" class="st0">
			<g id="Group_24">
				<g>
					<defs>
						<rect id="SVGID_3_" x="-2127" y="-2368" width="823.7" height="701.6"/>
					</defs>
					<clipPath id="SVGID_4_">
						<use xlink:href="#SVGID_3_"  style="overflow:visible;"/>
					</clipPath>
					<g id="Group_23" class="st1">
						<g id="Group_19" transform="translate(72.395)" class="st2">
							<g id="Group_18">
								<g>
									<defs>
										<rect id="SVGID_5_" x="-2127" y="-2368" width="732.9" height="688.5"/>
									</defs>
									<clipPath id="SVGID_6_">
										<use xlink:href="#SVGID_5_"  style="overflow:visible;"/>
									</clipPath>
									<g id="Group_17" class="st3">
										<path id="Path_193" class="st4" d="M-1856.5-2359.7c-99.4,37.8-213.4,122.3-261.7,309.4c-30.5,118.4,20,244,125.6,307.1
											c84.9,50.8,212.1,85.4,396,47.8c112.8-23.1,198.5-117.5,202.5-231.5c2.1-58.9-16.8-123.7-79.8-183.9
											c-33-31.6-63.9-65.3-93.7-99.9C-1633.2-2287.1-1751.9-2399.5-1856.5-2359.7"/>
									</g>
								</g>
							</g>
						</g>
						<g id="Group_22" transform="translate(0 64.142)" class="st2">
							<g id="Group_21">
								<g>
									<defs>
										<rect id="SVGID_7_" x="-2127" y="-2368" width="823.7" height="637.4"/>
									</defs>
									<clipPath id="SVGID_8_">
										<use xlink:href="#SVGID_7_"  style="overflow:visible;"/>
									</clipPath>
									<g id="Group_20" class="st5">
										<path id="Path_194" class="st4" d="M-1975.2-2169.7c0,0-311.6,299.6-42.1,422.4c77.1,35.2,109.3,8.5,178.5-20.4
											c73.6-30.7,259.1-99.4,328.3-100.6c149.7-2.7,333.4-219.6,85.9-430.6S-1975.2-2169.7-1975.2-2169.7"/>
									</g>
								</g>
							</g>
						</g>
					</g>
				</g>
			</g>
		</g>
	</g>
</g>
<g>
	<path class="st6" d="M634,231.7h-75.1c-9.1,0-16.8-5.9-19.5-14.1c-0.7-2-1-4.2-1-6.4v-89.9c0-0.4,0-0.8,0-1.2
		c-0.6-20-17-35.9-37.1-35.9H322.5c-20.5,0-37.1,16.6-37.1,37.1v41.9v48c0,11.4-9.2,20.5-20.5,20.5h-75c-20.5,0-37.1,16.6-37.1,37.1
		V363v84.8c0,10.9,4.7,20.8,12.3,27.6c6.1,5.5,14.1,9,22.9,9.5c51.7,2.7,93.5,43.8,97.2,95.5c0.3,4.6,1.3,8.9,2.8,12.8
		c0.8,1.9,1.7,3.8,2.7,5.6c3.3,5.8,8.1,10.5,13.8,13.7c5.5,3.2,11.9,4.9,18.4,4.9h179.2c7.4,0,14.5-2.2,20.3-6.4
		c3.8-2.7,7-6.1,9.6-10c3.8-5.7,6.1-12.5,6.5-19.7c1.3-20.9,8.7-40.1,20.5-55.7c17.8-23.6,45.4-39.2,76.8-40.9
		c2.3-0.1,4.6-0.5,6.7-1c1.6-0.4,3.2-0.9,4.6-1.4c14.3-5.3,23.9-19.2,23.9-34.5v-50.1V268.8C671.1,248.3,654.4,231.7,634,231.7z"/>
	<g class="st7">
		<path class="st8" d="M539.4,217.6c-10,3.2-20.3,7-30.7,11.4C470.8,245,431,269.7,394,307.3c-57.1,57.9-138.7,67.2-211.7,59.7
			c-10.1-1-20-2.4-29.7-4v-94.2c0-20.5,16.6-37.1,37.1-37.1h75c11.4,0,20.5-9.2,20.5-20.5v-48c9.4-0.3,19.3-0.6,29.7-1.2
			c58-3.1,128.6-11.5,193.6-31.6c10-3.1,19.9-6.5,29.7-10.2c0,0.4,0,0.8,0,1.2v89.9C538.4,213.4,538.7,215.6,539.4,217.6z"/>
		<path class="st8" d="M671.1,397.7v50.1c0,15.3-9.6,29.2-23.9,34.5c-1.5,0.5-3,1-4.6,1.4c-2.1,0.5-4.4,0.9-6.7,1
			c-31.4,1.7-59.1,17.3-76.8,40.9c-12.5,2.2-25.4,4.6-38.7,7.5c-53.8,11.5-113.3,28.7-168.9,54.6c-16.1,7.5-31.9,15.7-47.1,24.8
			c-5.6-3.2-10.4-7.9-13.8-13.7c-1-1.8-1.9-3.7-2.7-5.6c-1.5-3.9-2.5-8.3-2.8-12.8c-3.7-51.7-45.5-92.7-97.2-95.5
			c-8.8-0.5-16.8-4-22.9-9.5c11.6-6.2,24.7-12.5,39.3-18.5c64.4-26.6,157.9-47.7,280.5-31.5c58.5,7.7,110.8,0.3,156.6-15.7
			C651.6,406,661.5,402,671.1,397.7z"/>
	</g>
	<g>
		<path class="st9" d="M182.3,268.8v14.8c0,4.1,3.3,7.4,7.4,7.4h117.9c4.1,0,7.4,3.3,7.4,7.4v100.9c0,4.1,3.3,7.4,7.4,7.4h14.8
			c4.1,0,7.4-3.3,7.4-7.4V210.7c0-35.7,28-65,63.2-67c39-2.3,71.1,29.3,71.1,68.4v368.2c0,4.1,3.3,7.4,7.4,7.4H501
			c2.6,0,5.1-1.4,6.4-3.7c0.3-0.5,0.5-1,0.8-1.6c0.5-1.4,0.8-2.8,0.9-4.3c4.7-66.4,58.5-119.4,125.2-123c3.9-0.2,7.1-3.5,7.1-7.4
			v-15c0-4.1-3.3-7.4-7.4-7.4H516.1c-4.1,0-7.4-3.3-7.4-7.4V298.5c0-4.1,3.3-7.4,7.4-7.4h117.9c4.1,0,7.4-3.3,7.4-7.4v-14.8
			c0-4.1-3.3-7.4-7.4-7.4H516.1c-4.1,0-7.4-3.3-7.4-7.4V121.3c0-4.1-3.3-7.4-7.4-7.4H322.5c-4.1,0-7.4,3.3-7.4,7.4V254
			c0,4.1-3.3,7.4-7.4,7.4H189.8C185.7,261.4,182.3,264.7,182.3,268.8z M508.7,455.2c0-0.1,0.1-0.2,0.2-0.2h38.6
			c0.2,0,0.2,0.2,0.1,0.3c-14.9,10.6-27.9,23.6-38.5,38.5c-0.1,0.1-0.3,0.1-0.3-0.1V455.2z"/>
		<path class="st9" d="M186.9,454.5c0.4,0.2,0.9,0.3,1.4,0.4c0.4,0.1,0.8,0.1,1.2,0.2c67.3,3.6,121.4,57.3,125.4,124.5
			c0.1,1.8,0.6,3.5,1.6,5c0.7,1,1.4,1.7,2.2,2.2c0.9,0.6,2,0.9,3.1,0.9l15.5,0c4.1,0,7.4-3.3,7.4-7.4V462.4c0-4.1,3.3-7.4,7.4-7.4
			h102.3c4.1,0,7.4-3.3,7.4-7.4v-14.8c0-4.1-3.3-7.4-7.4-7.4H189.8c-4.1,0-7.4,3.3-7.4,7.4v15C182.3,450.7,184.1,453.4,186.9,454.5z
			 M276.3,455h38.6c0.1,0,0.2,0.1,0.2,0.2l0,38.6c0,0.2-0.2,0.2-0.3,0.1c-10.6-14.9-23.6-27.9-38.5-38.5
			C276.1,455.2,276.2,455,276.3,455z"/>
	</g>
</g>
</svg>
