<?xml version="1.0" encoding="utf-8"?>
<!-- Generator: Adobe Illustrator 25.1.0, SVG Export Plug-In . SVG Version: 6.00 Build 0)  -->
<svg version="1.1" id="Layer_1" xmlns="http://www.w3.org/2000/svg" xmlns:xlink="http://www.w3.org/1999/xlink" x="0px" y="0px"
	 viewBox="0 0 823.7 672.6" style="enable-background:new 0 0 823.7 672.6;" xml:space="preserve">
<style type="text/css">
	.st0{opacity:0.2;}
	.st1{clip-path:url(#SVGID_2_);}
	.st2{fill:#94D4F8;}
	.st3{clip-path:url(#SVGID_4_);}
	.st4{opacity:0.3;fill:#6C63FF;}
	.st5{fill:none;stroke:#6C63FF;stroke-width:9.7495;stroke-miterlimit:10;}
	.st6{fill:#6C63FF;}
	.st7{fill:#9F9FFF;}
	.st8{fill:#C8C4FC;}
	.st9{fill:#FFFFFF;}
	.st10{fill:#2F2E41;}
	.st11{opacity:0.35;}
	.st12{fill:#E4E4F4;}
	.st13{fill:none;stroke:#6C63FF;stroke-width:5.4164;stroke-linecap:square;stroke-linejoin:round;stroke-miterlimit:10;}
	.st14{fill:none;stroke:#C8C4FC;stroke-width:5.4164;stroke-linecap:square;stroke-linejoin:round;stroke-miterlimit:10;}
</style>
<g>
	<g>
		<g id="Group_19_5_" transform="translate(72.395)" class="st0">
			<g id="Group_18_5_">
				<g>
					<g>
						<defs>
							<rect id="SVGID_1_" x="3.8" width="715.9" height="672.6"/>
						</defs>
						<clipPath id="SVGID_2_">
							<use xlink:href="#SVGID_1_"  style="overflow:visible;"/>
						</clipPath>
						<g id="Group_17_5_" class="st1">
							<path id="Path_193_5_" class="st2" d="M268,664.5C170.9,627.5,59.6,545,12.4,362.2c-29.8-115.7,19.5-238.4,122.7-300
								C218,12.6,342.3-21.2,521.9,15.5c110.2,22.6,193.9,114.8,197.8,226.1c2.1,57.5-16.4,120.8-78,179.6
								c-32.2,30.9-62.4,63.8-91.5,97.6C486.2,593.5,370.2,703.3,268,664.5"/>
						</g>
					</g>
				</g>
			</g>
		</g>
		<g id="Group_22_5_" transform="translate(0 64.142)" class="st0">
			<g id="Group_21_5_">
				<g>
					<g>
						<defs>
							
								<rect id="SVGID_3_" x="129.9" y="-130.2" transform="matrix(0.6477 -0.7619 0.7619 0.6477 -51.92 431.9981)" width="622.7" height="804.6"/>
						</defs>
						<clipPath id="SVGID_4_">
							<use xlink:href="#SVGID_3_"  style="overflow:visible;"/>
						</clipPath>
						<g id="Group_20_5_" class="st3">
							<path id="Path_194_5_" class="st2" d="M323.8,18c0,0-421.5,25.8-298.6,287.7c35.1,75,76,75.5,145.8,97.8
								c74.2,23.7,255.7,90,308,132.9c113.1,92.7,387.1,47.5,336.4-266.1C764.7-43.4,323.8,18,323.8,18"/>
						</g>
					</g>
				</g>
			</g>
		</g>
	</g>
	<circle class="st4" cx="180.3" cy="137.4" r="79.7"/>
	<g>
		<g>
			<path class="st5" d="M656.5,459.2c0,0-25.4-51.3,45-65.2s49.9-111-69.8-79.1"/>
			<g>
				<path class="st6" d="M669,453.9c3.3,2.8,6.2,6.4,8.2,10.6l17.5,36.3c7.7,16,0.9,35.4-15.1,43.1h0c-4.3,2.1-8.8,3.1-13.3,3.2
					c9.4,8,23.1,10.2,34.9,4.5h0c16-7.7,22.8-27.1,15.1-43.1l-17.5-36.3C693.1,460.5,681.2,453.7,669,453.9z"/>
				<path class="st7" d="M679.6,543.9c16-7.7,22.8-27.1,15.1-43.1l-17.5-36.3c-2-4.2-4.8-7.7-8.2-10.6c-4.5,0.1-9,1.1-13.3,3.2l0,0
					l17.5,36.3l-29.1,14l14,29.1c2,4.2,4.8,7.7,8.2,10.6C670.8,547,675.3,545.9,679.6,543.9L679.6,543.9z"/>
				<path class="st6" d="M655.7,457.1c-16,7.7-22.8,27.1-15.1,43.1l3.5,7.3l29.1-14L655.7,457.1z"/>
				<path class="st8" d="M677,498.7l-2,1c-1.9,0.9-4.2,0.1-5.1-1.8l-7.5-15.6c-0.9-1.9-0.1-4.2,1.8-5.1l2-1c1.9-0.9,4.2-0.1,5.1,1.8
					l7.5,15.6C679.7,495.5,678.9,497.8,677,498.7z"/>
			</g>
		</g>
		<g>
			<path class="st5" d="M220.5,471.5c0,0,22.1-57.4-35.4-55.3c-57.6,2.1-42.9-50.4-42.9-50.4s9.6-43.5,64.7-19.4"/>
			<g>
				<path class="st6" d="M535.6,594l-360.4-31.6c-7.1-0.6-12.4-7-11.8-14.1l6.6-74.8c0.6-7.1,7-12.4,14.1-11.8l360.4,31.6
					c7.1,0.6,12.4,7,11.8,14.1l-6.6,74.8C549,589.3,542.7,594.7,535.6,594z"/>
				<path class="st7" d="M178,541.6l5.2-58.9c0.3-3.9,3.8-6.8,7.7-6.4l344.4,30.2c3.9,0.3,6.8,3.8,6.4,7.7l-5.2,58.9
					c-0.3,3.9-3.8,6.8-7.7,6.4l-344.4-30.2C180.5,548.9,177.6,545.5,178,541.6z"/>
				<g>
					<path class="st8" d="M215.9,511.7l-23.7-2.1c-1.6-0.1-2.9-1.6-2.7-3.2l1.6-18.6c0.1-1.6,1.6-2.9,3.2-2.7l23.7,2.1
						c1.6,0.1,2.9,1.6,2.7,3.2l-1.6,18.6C219,510.6,217.5,511.8,215.9,511.7z"/>
					<path class="st8" d="M254.9,515.1l-23.7-2.1c-1.6-0.1-2.9-1.6-2.7-3.2l1.6-18.6c0.1-1.6,1.6-2.9,3.2-2.7l23.7,2.1
						c1.6,0.1,2.9,1.6,2.7,3.2l-1.6,18.6C258,514,256.5,515.2,254.9,515.1z"/>
					<path class="st8" d="M293.9,518.5l-23.7-2.1c-1.6-0.1-2.9-1.6-2.7-3.2l1.6-18.6c0.1-1.6,1.6-2.9,3.2-2.7l23.7,2.1
						c1.6,0.1,2.9,1.6,2.7,3.2l-1.6,18.6C297,517.4,295.6,518.6,293.9,518.5z"/>
					<path class="st8" d="M332.9,521.9l-23.7-2.1c-1.6-0.1-2.9-1.6-2.7-3.2l1.6-18.6c0.1-1.6,1.6-2.9,3.2-2.7l23.7,2.1
						c1.6,0.1,2.9,1.6,2.7,3.2l-1.6,18.6C336,520.8,334.6,522.1,332.9,521.9z"/>
					<path class="st8" d="M371.9,525.3l-23.7-2.1c-1.6-0.1-2.9-1.6-2.7-3.2l1.6-18.6c0.1-1.6,1.6-2.9,3.2-2.7l23.7,2.1
						c1.6,0.1,2.9,1.6,2.7,3.2l-1.6,18.6C375,524.2,373.6,525.5,371.9,525.3z"/>
					<path class="st8" d="M411,528.7l-23.7-2.1c-1.6-0.1-2.9-1.6-2.7-3.2l1.6-18.6c0.1-1.6,1.6-2.9,3.2-2.7l23.7,2.1
						c1.6,0.1,2.9,1.6,2.7,3.2l-1.6,18.6C414.1,527.7,412.6,528.9,411,528.7z"/>
					<path class="st8" d="M450,532.2l-23.7-2.1c-1.6-0.1-2.9-1.6-2.7-3.2l1.6-18.6c0.1-1.6,1.6-2.9,3.2-2.7l23.7,2.1
						c1.6,0.1,2.9,1.6,2.7,3.2l-1.6,18.6C453.1,531.1,451.6,532.3,450,532.2z"/>
					<path class="st8" d="M489,535.6l-23.7-2.1c-1.6-0.1-2.9-1.6-2.7-3.2l1.6-18.6c0.1-1.6,1.6-2.9,3.2-2.7l23.7,2.1
						c1.6,0.1,2.9,1.6,2.7,3.2l-1.6,18.6C492.1,534.5,490.6,535.7,489,535.6z"/>
					<path class="st8" d="M528,539l-23.7-2.1c-1.6-0.1-2.9-1.6-2.7-3.2l1.6-18.6c0.1-1.6,1.6-2.9,3.2-2.7l23.7,2.1
						c1.6,0.1,2.9,1.6,2.7,3.2l-1.6,18.6C531.1,537.9,529.7,539.1,528,539z"/>
					<path class="st8" d="M213.1,543.4l-23.7-2.1c-1.6-0.1-2.9-1.6-2.7-3.2l1.6-18.6c0.1-1.6,1.6-2.9,3.2-2.7l23.7,2.1
						c1.6,0.1,2.9,1.6,2.7,3.2l-1.6,18.6C216.2,542.3,214.7,543.5,213.1,543.4z"/>
					<path class="st8" d="M252.1,546.8l-23.7-2.1c-1.6-0.1-2.9-1.6-2.7-3.2l1.6-18.6c0.1-1.6,1.6-2.9,3.2-2.7l23.7,2.1
						c1.6,0.1,2.9,1.6,2.7,3.2l-1.6,18.6C255.2,545.7,253.8,546.9,252.1,546.8z"/>
					<path class="st8" d="M291.1,550.2l-23.7-2.1c-1.6-0.1-2.9-1.6-2.7-3.2l1.6-18.6c0.1-1.6,1.6-2.9,3.2-2.7l23.7,2.1
						c1.6,0.1,2.9,1.6,2.7,3.2l-1.6,18.6C294.2,549.1,292.8,550.3,291.1,550.2z"/>
					<path class="st8" d="M330.2,553.6l-23.7-2.1c-1.6-0.1-2.9-1.6-2.7-3.2l1.6-18.6c0.1-1.6,1.6-2.9,3.2-2.7l23.7,2.1
						c1.6,0.1,2.9,1.6,2.7,3.2l-1.6,18.6C333.2,552.5,331.8,553.8,330.2,553.6z"/>
					<path class="st8" d="M369.2,557l-23.7-2.1c-1.6-0.1-2.9-1.6-2.7-3.2l1.6-18.6c0.1-1.6,1.6-2.9,3.2-2.7l23.7,2.1
						c1.6,0.1,2.9,1.6,2.7,3.2l-1.6,18.6C372.3,556,370.8,557.2,369.2,557z"/>
					<path class="st8" d="M408.2,560.5l-23.7-2.1c-1.6-0.1-2.9-1.6-2.7-3.2l1.6-18.6c0.1-1.6,1.6-2.9,3.2-2.7l23.7,2.1
						c1.6,0.1,2.9,1.6,2.7,3.2l-1.6,18.6C411.3,559.4,409.8,560.6,408.2,560.5z"/>
					<path class="st8" d="M447.2,563.9l-23.7-2.1c-1.6-0.1-2.9-1.6-2.7-3.2l1.6-18.6c0.1-1.6,1.6-2.9,3.2-2.7l23.7,2.1
						c1.6,0.1,2.9,1.6,2.7,3.2l-1.6,18.6C450.3,562.8,448.8,564,447.2,563.9z"/>
					<path class="st8" d="M486.2,567.3l-23.7-2.1c-1.6-0.1-2.9-1.6-2.7-3.2l1.6-18.6c0.1-1.6,1.6-2.9,3.2-2.7l23.7,2.1
						c1.6,0.1,2.9,1.6,2.7,3.2l-1.6,18.6C489.3,566.2,487.9,567.4,486.2,567.3z"/>
					<path class="st8" d="M525.2,570.7l-23.7-2.1c-1.6-0.1-2.9-1.6-2.7-3.2l1.6-18.6c0.1-1.6,1.6-2.9,3.2-2.7l23.7,2.1
						c1.6,0.1,2.9,1.6,2.7,3.2l-1.6,18.6C528.3,569.6,526.9,570.8,525.2,570.7z"/>
				</g>
			</g>
		</g>
		<g>
			<path class="st7" d="M661.4,387.7H192.3c-6.8,0-12.5-5.6-12.5-12.5V133.4c0-6.8,5.6-12.5,12.5-12.5h469.1
				c6.8,0,12.5,5.6,12.5,12.5v241.9C673.8,382.1,668.2,387.7,661.4,387.7z"/>
			<path class="st9" d="M287.5,145l-83.6,83.6v126.2c0,4.9,4,8.9,8.9,8.9h40L471.6,145H287.5z"/>
			<path class="st9" d="M649.8,153.9c0-4.9-4-8.9-8.9-8.9h-54.1L368.1,363.7h184.1l97.6-97.6V153.9z"/>
			<path class="st6" d="M507.4,387.7H346.3c0,0,2.1,43.9-21.3,43.9v11.8h203.8v-11.8C505.3,431.6,507.4,387.7,507.4,387.7z"/>
			<path class="st7" d="M579.8,455.2H273.9c-5,0-9.2-4.1-9.2-9.2v-5.3c0-5,4.1-9.2,9.2-9.2h305.9c5,0,9.2,4.1,9.2,9.2v5.3
				C589,451.1,584.8,455.2,579.8,455.2z"/>
			<g>
				<path class="st9" d="M212.9,145c-4.9,0-8.9,4-8.9,8.9v74.6l83.6-83.6H212.9z"/>
				<path class="st9" d="M552.2,363.7h88.6c4.9,0,8.9-4,8.9-8.9v-88.6L552.2,363.7z"/>
				<polygon class="st9" points="471.6,145 252.9,363.7 368.1,363.7 586.8,145 				"/>
			</g>
			<path class="st10" d="M279.5,167.2L279.5,167.2c0-2.6-2.1-4.8-4.8-4.8h-47.2c-2.6,0-4.8,2.1-4.8,4.8v37.9c0,2.6,2.1,4.8,4.8,4.8
				h47.2c2.6,0,4.8-2.1,4.8-4.8v0c0-3.7,4.1-6,7.3-4.1l7.2,4.4c3.2,1.9,7.3-0.3,7.3-4.1v-30.4c0-3.7-4.1-6-7.3-4.1l-7.2,4.4
				C283.5,173.2,279.5,170.9,279.5,167.2z"/>
			<g>
				<path class="st10" d="M438.1,274.1c19.3-5,33.5-22.6,33.4-43.4c-0.1-23.4-18.9-43.2-42.3-44.4c-25.8-1.4-47.1,19.1-47.1,44.6
					c0,20.8,14.2,38.3,33.4,43.3c-32.6,5-58.2,31.5-61.8,64.6c-0.5,4.2,2.8,7.9,7.1,7.9h131.8c4.3,0,7.6-3.7,7.1-7.9
					C496.3,305.6,470.7,279.1,438.1,274.1z"/>
			</g>
			<g class="st11">
				<path class="st12" d="M212.9,145c-4.9,0-8.9,4-8.9,8.9v74.6l83.6-83.6H212.9z"/>
				<path class="st12" d="M552.2,363.7h88.6c4.9,0,8.9-4,8.9-8.9v-88.6L552.2,363.7z"/>
				<polygon class="st12" points="471.6,145 252.9,363.7 368.1,363.7 586.8,145 				"/>
			</g>
			<path class="st13" d="M560.4,384.2H195.9c-6.9,0-12.6-5.6-12.6-12.6v-126"/>
			<path class="st14" d="M523.1,124.4h134.7c6.9,0,12.6,5.6,12.6,12.6v105.6"/>
			<path class="st13" d="M585.5,443.4c0,4.6-3.7,8.3-8.3,8.3H276.5"/>
		</g>
	</g>
</g>
</svg>
