<svg xmlns="http://www.w3.org/2000/svg" xmlns:xlink="http://www.w3.org/1999/xlink" width="849.365" height="627.588" viewBox="0 0 849.365 627.588">
  <defs>
    <linearGradient id="linear-gradient" x1="0.5" y1="1" x2="0.5" gradientUnits="objectBoundingBox">
      <stop offset="0" stop-color="gray" stop-opacity="0.251"/>
      <stop offset="0.54" stop-color="gray" stop-opacity="0.122"/>
      <stop offset="1" stop-color="gray" stop-opacity="0.102"/>
    </linearGradient>
    <linearGradient id="linear-gradient-2" x1="0.5" y1="1" x2="0.5" y2="0" xlink:href="#linear-gradient"/>
  </defs>
  <g id="Group_4" data-name="Group 4" transform="translate(-0.005 -0.003)">
    <path id="Path_1" data-name="Path 1" d="M91.8,356.76h73.809V457.371H97.194c-.175,1.04-.349,2.073-.546,3.113h68.958v81.126a1.038,1.038,0,0,1-.342-.131q-2.909-1.156-5.819-2.451c-.415-.189-.822-.385-1.244-.567q-2.909-1.375-5.819-2.909c-.676-.356-1.353-.727-2.015-1.106a121.05,121.05,0,0,1-29.02-22.591c-.255-.24-.487-.5-.727-.727-1.178-1.28-2.335-2.575-3.455-3.9-.422-.487-.829-.982-1.244-1.455-1.324-1.615-2.6-3.288-3.84-4.968-.189-.255-.364-.5-.545-.727a107.439,107.439,0,0,1-12.51-22.62c-.1-.24-.2-.5-.291-.727-1-2.546-1.913-5.128-2.7-7.761-.335-1.1-.662-2.182-.938-3.324-.1-.327-.182-.662-.269-.989-4.088-16.11-4.56-32.853-4.56-49.516v-5.819q.087-10.2.24-20.387.058-2.618.109-5.259.153-6.684.436-13.4c.044-1.236.1-2.48.167-3.709q.044-1.069.109-2.138Q91.528,360.571,91.8,356.76Z" transform="translate(-36.081 -110.777)" fill="#6c63ff" opacity="0.1"/>
    <path id="Path_2" data-name="Path 2" d="M178.67,183.56H138.18a308.2,308.2,0,0,1,21.536-29.631c6.022-7.39,12.365-14.59,18.954-21.529Z" transform="translate(-49.145 -49.6)" fill="#92d3f8" opacity="0.915"/>
    <path id="Path_3" data-name="Path 3" d="M166.267,207V312.812H92.69c0-.306.044-.618.073-.924.065-.836.131-1.666.2-2.5.073-.975.167-1.949.262-2.909s.189-2.124.305-3.178.211-2.124.327-3.178.233-2.109.364-3.157.247-2.109.393-3.157c.109-.866.218-1.738.342-2.611.167-1.229.342-2.458.524-3.68a3.5,3.5,0,0,1,.087-.553,253.787,253.787,0,0,1,5.411-26.562,196.674,196.674,0,0,1,9.128-26.911A202.1,202.1,0,0,1,123.841,207Z" transform="translate(-36.741 -69.941)" fill="#92d3f8" opacity="0.915"/>
    <path id="Path_4" data-name="Path 4" d="M218.09,264.543V365.155H375.746V264.543Zm0,103.724v86.407c.9.182,1.789.364,2.684.516,1.2.233,2.407.444,3.637.625l.727.1c.48.08.967.145,1.455.2,1.215.175,2.429.305,3.637.422.567.058,1.156.1,1.731.153l1.4.1h0c.764.058,1.52.1,2.277.131.465,0,.931.036,1.4.051s.727,0,1.106,0h4.044c.626,0,1.251,0,1.869-.058h.036a11.128,11.128,0,0,0,1.3-.051,3.187,3.187,0,0,0,.371,0,8.762,8.762,0,0,0,1.076-.044,1.527,1.527,0,0,1,.247,0c.807-.051,1.622-.116,2.444-.189s1.6-.16,2.422-.247l1.651-.2a144.837,144.837,0,0,0,19.965-4.248c14.714-4.1,29.093-9.841,43.8-14.037,19-5.419,40-8.088,58.361-1.491V368.268ZM375.746,152.52V18.575a202.583,202.583,0,0,0-51.218,6C284.6,34.606,248.754,56.36,218.09,84.144v68.369h7.935v3.106H218.09V261.43H375.746V155.619H258.486v-3.113Zm202.547-45.247a65.266,65.266,0,0,1-28.584-8.306c-16.976-9.23-30.548-23.5-45.705-35.53C472.51,38.366,433.452,23.23,393.383,19.477V152.52H618.426l.56-.589Zm20.5-3.637,21.74,23.864V97.36c-7.317.924-13.688,3.069-21.74,6.248Zm21.74,372.494V368.268h-46.36c-.116-.458-.247-.924-.393-1.389.138.466.262.931.385,1.389H393.383v78c1.716,1.273,3.411,2.618,5.091,3.971h0q2.72,2.226,5.4,4.5l1.8,1.491c.866.727,1.746,1.455,2.618,2.146q2.626,2.117,5.288,4.189,1.331,1.047,2.677,2.058A365.176,365.176,0,0,0,461.1,493.943c3.506,1.957,7.048,3.84,10.612,5.68q3.557,1.833,7.164,3.593,5.411,2.64,10.91,5.091h0a400.465,400.465,0,0,0,106.19,30.926q12.2,1.8,24.518,2.837V476.116h.727ZM393.383,155.619V261.43H620.535V155.619Zm0,108.91V365.155H620.535V264.543ZM638.166,97.214v33.675l27.74-30.453Q652.116,98.16,638.166,97.214Zm0,167.329V365.155H859.092V264.543ZM858.314,484.109l.778-115.842H638.166V543.241a398.065,398.065,0,0,0,42.694-.516h.247q10.183-.655,20.271-1.862h.153a372.748,372.748,0,0,0,104.175-27.828m96.007-231.967q-1.258-2.909-2.582-5.819c-1.644-3.637-3.375-7.171-5.164-10.7H876.73v100.6H920.3C920.268,336.658,913.052,307.565,901.713,281.068Zm-24.984,87.2v99.644A142.585,142.585,0,0,0,906.841,427.3c8.982-18.54,13.092-38.6,13.434-59.037Zm0-133.043v26.184h15.623a284.481,284.481,0,0,0-15.623-26.184ZM726.9,116.961c-1.149-.444-2.306-.887-3.462-1.309a314.316,314.316,0,0,0-37.312-11.215l-42.461,46.593h0l-.829.895.545.589H794.505A322.864,322.864,0,0,0,726.9,116.961Zm72.042,38.658H641.264l-3.1,2.829V261.43H859.092V211.536A314.565,314.565,0,0,0,798.942,155.619Z" transform="translate(-70.934 -18.56)" fill="#8bd1f8" opacity="0.921"/>
    <path id="Path_5" data-name="Path 5" d="M166.267,280.39v52.433H92.69c0-.305.044-.618.073-.924.065-.836.131-1.666.2-2.5.073-.975.167-1.949.262-2.909s.189-2.124.305-3.178.211-2.124.327-3.178.233-2.109.364-3.157.247-2.109.393-3.157c.109-.866.218-1.738.342-2.611.167-1.229.342-2.458.524-3.68a3.5,3.5,0,0,1,.087-.553,253.784,253.784,0,0,1,5.411-26.562Z" transform="translate(-36.741 -89.953)" fill="#92d3f8" opacity="0.1"/>
    <path id="Path_6" data-name="Path 6" d="M91.8,356.76h73.809V457.371H97.194c-.175,1.04-.349,2.073-.546,3.113h68.958v81.126a1.038,1.038,0,0,1-.342-.131q-2.909-1.156-5.819-2.451c-.415-.189-.822-.385-1.244-.567q-2.909-1.375-5.819-2.909c-.676-.356-1.353-.727-2.015-1.106a121.05,121.05,0,0,1-29.02-22.591c-.255-.24-.487-.5-.727-.727-1.178-1.28-2.335-2.575-3.455-3.9-.422-.487-.829-.982-1.244-1.455-1.324-1.615-2.6-3.288-3.84-4.968-.189-.255-.364-.5-.545-.727a107.439,107.439,0,0,1-12.51-22.62c-.1-.24-.2-.5-.291-.727-1-2.546-1.913-5.128-2.7-7.761-.335-1.1-.662-2.182-.938-3.324-.1-.327-.182-.662-.269-.989-4.088-16.11-4.56-32.853-4.56-49.516v-5.819q.087-10.2.24-20.387.058-2.618.109-5.259.153-6.684.436-13.4c.044-1.236.1-2.48.167-3.709q.044-1.069.109-2.138Q91.528,360.571,91.8,356.76Z" transform="translate(-36.081 -110.777)" fill="#92d3f8" opacity="0.915"/>
    <path id="Path_7" data-name="Path 7" d="M257.632,197.773v90.654h-55.5V197.773h7.913V167.08h32.483v30.693Z" transform="translate(-54.981 -45.557)" fill="#6c63ff" opacity="0.1"/>
    <path id="Path_8" data-name="Path 8" d="M218.09,499.37h55.5v83.643a143.752,143.752,0,0,1-19.965,4.24c-.553.08-1.1.145-1.651.2-.815.095-1.622.182-2.429.255l-2.437.2h-.247l-1.076.058h-.371c-.436,0-.866.051-1.3.058h-.036c-.626,0-1.244.044-1.869.058h-5.149a11.45,11.45,0,0,1-1.411-.058q-1.12-.044-2.269-.131h0l-1.4-.1c-.582-.044-1.164-.1-1.738-.16q-1.833-.16-3.637-.415l-1.455-.2-.727-.1c-1.215-.182-2.422-.385-3.637-.618-.9-.16-1.789-.342-2.684-.531Z" transform="translate(-70.934 -149.662)" fill="#6c63ff" opacity="0.1"/>
    <rect id="Rectangle_6" data-name="Rectangle 6" width="45.764" height="101.353" transform="translate(503.831 141.51)" fill="#6c63ff" opacity="0.1"/>
    <path id="Path_9" data-name="Path 9" d="M670.3,338.19V438.809H443.15v-43.4H564.141v25.6h60.39V338.19Z" transform="translate(-120.701 -92.214)" fill="#6c63ff" opacity="0.1"/>
    <path id="Path_10" data-name="Path 10" d="M686.972,606.734a4.111,4.111,0,0,1-.727-.044V672.7q-12.3-1.011-24.511-2.829A401,401,0,0,1,555.5,638.954q-14.641-6.6-28.686-14.394a366.518,366.518,0,0,1-44.825-29.319q-5.368-4.1-10.575-8.386c-2.407-1.993-4.793-4.029-7.222-6-1.673-1.36-3.368-2.706-5.091-3.986V498.849H639.885c-.131-.466-.247-.924-.378-1.389.138.466.269.924.385,1.389h46.36V606.683C686.492,606.69,686.732,606.712,686.972,606.734Z" transform="translate(-136.651 -149.141)" fill="#6c63ff" opacity="0.1"/>
    <path id="Path_11" data-name="Path 11" d="M924.33,188.918H894.51v-9.266h13.361v-27.6q1.738.64,3.462,1.309v26.293h12.99Z" transform="translate(-255.375 -54.958)" fill="#6c63ff" opacity="0.1"/>
    <path id="Path_12" data-name="Path 12" d="M969.227,312.812H822.816a.094.094,0,0,0,.044,0H795.65V211.459h7.7v74.915H838.5V242.006h29.057V207h29.82v35.028h29.042V286.4h42.811Z" transform="translate(-228.418 -69.941)" fill="#6c63ff" opacity="0.1"/>
    <path id="Path_13" data-name="Path 13" d="M795.65,356.76V457.371H969.234V356.76ZM1016.329,575.8l.247-79.643H969.234V460.513H795.65V635.458a398.065,398.065,0,0,0,42.694-.516h.247q10.183-.655,20.271-1.862h.153A372.748,372.748,0,0,0,963.19,605.252" transform="translate(-228.418 -110.777)" fill="#6c63ff" opacity="0.1"/>
    <path id="Path_14" data-name="Path 14" d="M1126.7,499.37h40.49c-.349,20.431-4.451,40.5-13.434,59.03a142.518,142.518,0,0,1-30.111,40.621v-64h3.055Z" transform="translate(-317.854 -149.662)" fill="#6c63ff" opacity="0.1"/>
    <path id="Path_15" data-name="Path 15" d="M1168.37,463.566H1127.85V379.48h21.929C1161.118,405.977,1168.333,435.07,1168.37,463.566Z" transform="translate(-319 -116.972)" fill="#6c63ff" opacity="0.1"/>
    <rect id="Rectangle_7" data-name="Rectangle 7" width="24.518" height="31.777" transform="translate(525.083 169.687)" fill="#6c63ff" opacity="0.1"/>
    <rect id="Rectangle_8" data-name="Rectangle 8" width="24.518" height="7.317" transform="translate(525.083 235.553)" fill="#6c63ff" opacity="0.1"/>
    <rect id="Rectangle_9" data-name="Rectangle 9" width="24.518" height="21.347" transform="translate(525.083 245.976)" fill="#6c63ff" opacity="0.1"/>
    <rect id="Rectangle_10" data-name="Rectangle 10" width="24.518" height="31.777" transform="translate(525.083 301.42)" fill="#6c63ff" opacity="0.1"/>
    <rect id="Rectangle_11" data-name="Rectangle 11" width="24.518" height="31.777" transform="translate(525.083 367.287)" fill="#6c63ff" opacity="0.1"/>
    <path id="Path_16" data-name="Path 16" d="M762.218,638.487a3.534,3.534,0,0,1,.727.051,4.117,4.117,0,0,1-.727-.044v7.382H737.7V614.1h24.518Z" transform="translate(-212.617 -180.946)" fill="#6c63ff" opacity="0.1"/>
    <path id="Path_17" data-name="Path 17" d="M762.218,704.65v24.54q-12.306-1.011-24.518-2.829V704.65Z" transform="translate(-212.617 -205.636)" fill="#6c63ff" opacity="0.1"/>
    <rect id="Rectangle_12" data-name="Rectangle 12" width="105.077" height="2.335" transform="translate(322.449 344.26)" fill="#6c63ff" opacity="0.1"/>
    <rect id="Rectangle_13" data-name="Rectangle 13" width="105.077" height="8.946" transform="translate(322.449 349.7)" fill="#6c63ff" opacity="0.1"/>
    <rect id="Rectangle_14" data-name="Rectangle 14" width="105.077" height="14.387" transform="translate(322.449 387.972)" fill="#6c63ff" opacity="0.1"/>
    <path id="Path_18" data-name="Path 18" d="M566.086,612.08v14.387H483.9q-5.368-4.087-10.575-8.393c-2.415-1.986-4.8-4.022-7.222-5.993Z" transform="translate(-138.559 -180.395)" fill="#6c63ff" opacity="0.1"/>
    <path id="Path_19" data-name="Path 19" d="M589.563,672.17v14.423h-8.677q-14.641-6.6-28.686-14.394Z" transform="translate(-162.036 -196.78)" fill="#6c63ff" opacity="0.1"/>
    <rect id="Rectangle_15" data-name="Rectangle 15" width="20.685" height="20.685" transform="translate(609.926 255.73)" fill="#6c63ff" opacity="0.1"/>
    <rect id="Rectangle_16" data-name="Rectangle 16" width="20.685" height="20.685" transform="translate(162.051 159.351)" fill="#6c63ff" opacity="0.1"/>
    <rect id="Rectangle_17" data-name="Rectangle 17" width="20.685" height="20.685" transform="translate(162.051 207.399)" fill="#6c63ff" opacity="0.1"/>
    <rect id="Rectangle_18" data-name="Rectangle 18" width="20.685" height="20.685" transform="translate(162.051 255.446)" fill="#6c63ff" opacity="0.1"/>
    <rect id="Rectangle_19" data-name="Rectangle 19" width="20.685" height="20.685" transform="translate(162.051 303.486)" fill="#6c63ff" opacity="0.1"/>
    <rect id="Rectangle_20" data-name="Rectangle 20" width="20.685" height="20.685" transform="translate(162.051 351.533)" fill="#6c63ff" opacity="0.1"/>
    <rect id="Rectangle_21" data-name="Rectangle 21" width="20.685" height="20.685" transform="translate(162.051 399.581)" fill="#6c63ff" opacity="0.1"/>
    <rect id="Rectangle_22" data-name="Rectangle 22" width="20.685" height="20.685" transform="translate(688.892 255.73)" fill="#6c63ff" opacity="0.1"/>
    <rect id="Rectangle_23" data-name="Rectangle 23" width="20.685" height="20.685" transform="translate(609.926 306.752)" fill="#6c63ff" opacity="0.1"/>
    <rect id="Rectangle_24" data-name="Rectangle 24" width="20.685" height="20.685" transform="translate(688.892 306.752)" fill="#6c63ff" opacity="0.1"/>
    <rect id="Rectangle_25" data-name="Rectangle 25" width="20.685" height="20.685" transform="translate(609.926 357.767)" fill="#6c63ff" opacity="0.1"/>
    <rect id="Rectangle_26" data-name="Rectangle 26" width="20.685" height="20.685" transform="translate(688.892 357.767)" fill="#6c63ff" opacity="0.1"/>
    <rect id="Rectangle_27" data-name="Rectangle 27" width="20.685" height="20.685" transform="translate(609.926 408.789)" fill="#6c63ff" opacity="0.1"/>
    <rect id="Rectangle_28" data-name="Rectangle 28" width="20.685" height="20.685" transform="translate(688.892 408.789)" fill="#6c63ff" opacity="0.1"/>
    <rect id="Rectangle_29" data-name="Rectangle 29" width="20.685" height="20.685" transform="translate(609.926 459.811)" fill="#6c63ff" opacity="0.1"/>
    <rect id="Rectangle_30" data-name="Rectangle 30" width="20.685" height="20.685" transform="translate(688.892 459.811)" fill="#6c63ff" opacity="0.1"/>
    <path id="Path_20" data-name="Path 20" d="M838.4,715.669V702.33h20.678v11.441Z" transform="translate(-228.474 -191.504)" fill="#6c63ff" opacity="0.1"/>
    <path id="Path_26" data-name="Path 26" d="M119.54,553.7c.189.233.364.495.545.727h3.848V559.4l1.244,1.455V554.4H131v10.43H128.6c.233.24.458.495.727.727h44.243V553.7Zm18.518,11.128h-5.819V554.442h5.819Zm7.048,0h-5.819V554.442h5.819Zm7.048,0h-5.819V554.442h5.819Zm7.041,0h-5.819V554.442h5.819Zm7.041,0h-5.819V554.442h5.819Zm7.048,0h-5.819V554.442h5.819Z" transform="translate(-44.062 -164.477)" fill="#6c63ff" opacity="0.1"/>
    <path id="Path_27" data-name="Path 27" d="M172.93,601.06c.669.378,1.346.727,2.022,1.1v-.364h5.819v3.28c.422.182.822.378,1.236.567v-3.848h5.819v6.3a2.37,2.37,0,0,0,.342.124V601.06Z" transform="translate(-58.62 -177.39)" fill="#6c63ff" opacity="0.1"/>
    <path id="Path_28" data-name="Path 28" d="M668.307,311.645ZM623.5,526.316ZM576.758,417.093c.138.466.262.931.385,1.389h0C577.034,418.024,576.9,417.558,576.758,417.093Zm91.549-105.448ZM229,202.735v3.1h32.49V202.72ZM623.51,526.316ZM576.758,417.093c.138.466.262.931.385,1.389h0C577.034,418.024,576.9,417.558,576.758,417.093Zm91.549-105.448ZM623.5,526.316ZM576.758,417.093c.138.466.262.931.385,1.389h0C577.034,418.024,576.9,417.558,576.758,417.093Z" transform="translate(-73.909 -68.774)" fill="#6c63ff" opacity="0.1"/>
    <ellipse id="Ellipse_2" data-name="Ellipse 2" cx="70.871" cy="11.383" rx="70.871" ry="11.383" transform="translate(568.897 604.826)" fill="#6c63ff" opacity="0.1"/>
    <ellipse id="Ellipse_3" data-name="Ellipse 3" cx="70.871" cy="11.383" rx="70.871" ry="11.383" transform="translate(249.265 593.443)" fill="#6c63ff" opacity="0.1"/>
    <path id="Path_29" data-name="Path 29" d="M520.723,392.713a.386.386,0,0,0-.109-.189c-1.084-1.069-14.9-20.612-14.9-20.612s-.727-2.182-1.906-5.019a4.989,4.989,0,0,0,.836-1.636,5.622,5.622,0,0,0,.138-.764c0-.08.058-.145.08-.225a5.521,5.521,0,0,0-.073-3,5.184,5.184,0,0,1-.3.727,12.16,12.16,0,0,0-1.091-2.429c-1.833-3.157-4.451-5.819-6.379-8.9a24.067,24.067,0,0,1-3.28-15.972c0,.284,0,.575,0,.858a24.9,24.9,0,0,1,.436-3.273,22.707,22.707,0,0,1,1.215-3.593c1.731-3.964,4.531-7.419,6.233-11.4a21.6,21.6,0,0,0,1.295-4.168,23.347,23.347,0,0,0,.647-7.31,11.641,11.641,0,0,1-.182,1.738A23.674,23.674,0,0,0,496.7,291.8c-5.942-5.971-14.474-8.292-22.634-9.513a20.736,20.736,0,0,1-9.528-3.637,16.564,16.564,0,0,0-10.852-2.073,17.9,17.9,0,0,0-11.048,5.462c-3.877,4.262-5.557,10.3-10.081,13.892-2.742,2.182-6.219,3.2-9.412,4.684s-6.211,3.637-7.237,6.822v.116l-.044.116c-1.062,3.768.989,7.6,2.058,11.361,1.113,3.891,1.186,8,1.244,12.023.08,4.917.153,9.841.073,14.765-.036,1.935-.1,3.891-.247,5.819a30.488,30.488,0,0,0-5,2.007c-1.629,1.062-7.724,7.644-7.724,7.644L394.35,406.831l.16.182-.16.618.6-.138a61.368,61.368,0,0,0,12.168,10.226l.509,8.932s.611,8.961,8.852,12.663c.189,3.106.778,15.718-1.949,20.714a23.275,23.275,0,0,0-2.575,11.841s.953,7.579-.131,11.565a18.911,18.911,0,0,0-.138,8.117h0v2.393c0,8.066.095,33.915,0,36.839-.138,3.455,0,54.55,0,54.55s-.676,25.536-2.844,32.453-1.622,29.82-1.622,29.82-1.36,27.282,3.448,32.664c0,.24-.044.487-.051.727v.342c-.058,2.073.342,4.277,2.124,4.953,3.637,1.4,8.444,5.586,9.353,6.786s6.2,4.189,13.092,3.389a98.538,98.538,0,0,1,13.012-.6h0s2.72-.495,1.84-3.877h0c-.567-2.109-2.691-5.353-4.2-7.484.276.073.545.131.8.182l.262.051h.2a2.781,2.781,0,0,0,.335,0h.145a2.493,2.493,0,0,0,.407,0h0c1.826-.175,8.633,3,9.848,5.091s5.5,3.688,8.728,4.088a62.016,62.016,0,0,0,10.83-.684,39.876,39.876,0,0,0,6.066-1.106c.96-.364,1.164-1.527.887-2.837h0a7.383,7.383,0,0,0-2.517-4.248,20.423,20.423,0,0,1-3.884-4.844l-.305-.487c2.029-1.935,5.695-8.262,6.808-9.572,1.353-1.593-2.182-59.844-2.182-59.844V581.1l5.419-27.638,3.789-14.627,3.251-22.082s5.688-25.791,3.935-28.322h0c0-.051-1.455-26.606-2.982-32.984-.662-2.844-.495-9.244-.1-15.47a3.055,3.055,0,0,0,.727-3.186,6.619,6.619,0,0,0-.422-1.084v-.335a50.083,50.083,0,0,1,9.8-3.331c5.419-1.062,4.066-3.855,4.066-3.855s1.222-2.393,2.029-3.855.138-14.365,0-15.427c-.051-.429-.386-2.8-.771-5.491,1.738-1.236,4-2.771,6.466-4.226C522.163,396.408,521.109,393.477,520.723,392.713Zm-70.7,184.4s-4.066,10.372-2.437,13.026-.269,12.51-.269,12.51l-1.36,14.627s-3.789,27.129-2.437,33.508c1.062,5,1.455,19.951,1.578,26.184h0a1.824,1.824,0,0,0-.269.131l-.182.095c.625-2.451.364-7.411-2.742-17.391l-.262-41.218s-.48-47.611,3.28-52.935,5.091-14.365,5.091-14.365-.815,13.041-1.346,16.5S450.027,577.113,450.027,577.113Zm-7.571,102.452c-.036.087-.08.175-.109.255l-.2-.262A2.123,2.123,0,0,0,442.456,679.564Z" transform="translate(-118.995 -88.871)" fill="url(#linear-gradient)"/>
    <path id="Path_30" data-name="Path 30" d="M502.15,847.147c-2.1.807-13.5,2.182-16.685,1.8s-7.4-2-8.6-4.109-7.928-5.295-9.732-5.091a6.545,6.545,0,0,1-2.182-.305,26.864,26.864,0,0,1-3.637-1.4,6.75,6.75,0,0,1,.08-2.764,4.434,4.434,0,0,1,.16-.538,4.808,4.808,0,0,1,2.444-2.72l.262-.124a7.4,7.4,0,0,1,1.571-.48c5.717-1.1,29.3,1.106,29.3,1.106s.662,1.186,1.571,2.655a20.3,20.3,0,0,0,3.84,4.873,7.455,7.455,0,0,1,2.48,4.277C503.3,845.612,503.1,846.791,502.15,847.147Z" transform="translate(-137.225 -240.118)" fill="#fff"/>
    <path id="Path_31" data-name="Path 31" d="M502.153,847.911c-2.1.807-13.492,2.182-16.678,1.8s-7.4-2.007-8.612-4.109-7.921-5.295-9.724-5.091-5.819-1.7-5.819-1.7a6.029,6.029,0,0,1,1.193-4.895l3.637,2.582s9.732,3.018,11.535,5.819,5.091,4.364,9.841,4.648c3.549.233,11.7-1.149,15.521-1.84C503.3,846.376,503.106,847.555,502.153,847.911Z" transform="translate(-137.228 -240.882)" opacity="0.1"/>
    <path id="Path_32" data-name="Path 32" d="M455.707,850.955a96.83,96.83,0,0,0-12.845.6c-6.83.8-12.045-2.182-12.954-3.411a30.349,30.349,0,0,0-9.23-6.837c-1.767-.684-2.182-2.909-2.1-4.989v-.342a20.367,20.367,0,0,1,.582-3.906l28.3-.6,2.451,3.324.378.509,1.491,2.029s.676.887,1.564,2.182c1.5,2.182,3.593,5.4,4.153,7.535h0C458.39,850.461,455.707,850.955,455.707,850.955Z" transform="translate(-125.599 -240.216)" fill="#fff"/>
    <path id="Path_33" data-name="Path 33" d="M455.707,852.779a96.83,96.83,0,0,0-12.845.6c-6.822.8-12.045-2.182-12.946-3.411a29.5,29.5,0,0,0-9.237-6.822c-1.767-.684-2.182-2.909-2.1-4.99,2.022.473,6.27,1.68,7.935,3.782,2.182,2.807,6.088,7.528,11.637,7.826,4.48.24,15.39-.56,19.391-.88C458.4,852.285,455.707,852.779,455.707,852.779Z" transform="translate(-125.599 -242.041)" opacity="0.1"/>
    <path id="Path_34" data-name="Path 34" d="M452.329,832.083c-.327,2.429-1.338,3.084-2.066,3.229a1.4,1.4,0,0,1-.538,0,1.788,1.788,0,0,1-.284-.044s-25.413,5.615-30.548,1.069a3.563,3.563,0,0,1-.364-.378,20.368,20.368,0,0,1,.582-3.906l28.3-.6,2.451,3.324a4.808,4.808,0,0,1,2.444-2.72Z" transform="translate(-125.588 -240.211)" opacity="0.1"/>
    <path id="Path_35" data-name="Path 35" d="M497.828,835.122c-.567.625-1.04.982-1.338.858-1.338-.538-12.306-2.407-15.79-.8s-15.274.262-15.274.262,0-1.4-.065-3.637a7.4,7.4,0,0,1,1.571-.48c5.717-1.1,29.3,1.106,29.3,1.106S496.926,833.652,497.828,835.122Z" transform="translate(-138.358 -240.093)" opacity="0.1"/>
    <path id="Path_36" data-name="Path 36" d="M500.348,596.406l-3.215,22.213-3.738,14.721-5.353,27.828v29.457s3.477,58.608,2.138,60.208-6.422,10.714-7.761,10.183-12.306-2.407-15.79-.807-15.274.269-15.274.269-.269-22.744-1.607-29.166,2.407-33.719,2.407-33.719l1.338-14.714s1.876-9.906.269-12.583S456.17,657.2,456.17,657.2s-1.869-5.9-1.331-9.375,1.331-16.59,1.331-16.59-1.331,9.106-5.048,14.452-3.244,53.255-3.244,53.255l.262,41.458c6.7,21.951,0,19.805,0,19.805s-25.413,5.622-30.548,1.069-3.666-33.21-3.666-33.21-.531-23.013,1.607-29.966,2.815-32.65,2.815-32.65-.138-51.386,0-54.855c.1-2.909,0-28.955,0-37.094V571.1l3.069-7.622,36.366-4.553h17.4s26.184,6.153,28.889,8.808a.6.6,0,0,1,.145.16C505.97,570.455,500.348,596.406,500.348,596.406Z" transform="translate(-124.28 -165.9)" fill="#6c63ff"/>
    <path id="Path_37" data-name="Path 37" d="M472.11,770.88s8,19.267,11.775,20.605S472.11,770.88,472.11,770.88Z" transform="translate(-140.198 -223.695)" opacity="0.1"/>
    <path id="Path_38" data-name="Path 38" d="M476.18,809.88s27.013,1.338,26.744,4.284S476.18,809.88,476.18,809.88Z" transform="translate(-141.308 -234.329)" opacity="0.1"/>
    <path id="Path_39" data-name="Path 39" d="M426.49,799.29c1.069,1.011,20.605,2.909,19,4.757s-17.39,5.44-17.39,5.44Z" transform="translate(-127.759 -231.442)" opacity="0.1"/>
    <path id="Path_40" data-name="Path 40" d="M422.08,753.59c0,.8,4.015,25.689,5.091,26.758s9.9,2.138,9.9,2.138Z" transform="translate(-126.556 -218.981)" opacity="0.1"/>
    <path id="Path_41" data-name="Path 41" d="M451.627,283.725c-3.833,4.284-5.491,10.357-9.957,13.979-2.713,2.182-6.146,3.222-9.3,4.706s-6.284,3.746-7.222,7.106c-1.047,3.782.975,7.644,2.036,11.426,1.1,3.913,1.164,8,1.229,12.1.073,4.953.153,9.906.065,14.859-.131,7.717-.771,15.79-4.866,22.329,14.787,4.706,30.511,5.346,46.018,5.95a46.433,46.433,0,0,0,8.939-.225,76.727,76.727,0,0,0,7.615-1.927,58.389,58.389,0,0,1,15.172-1.942,25.473,25.473,0,0,0,6.662-.444,6.574,6.574,0,0,0,4.808-4.226c.516-1.935-.24-3.993-1.229-5.731-1.8-3.171-4.364-5.819-6.3-8.946a24.584,24.584,0,0,1-1.578-22.1c1.716-3.993,4.48-7.47,6.168-11.47a24.191,24.191,0,0,0-4.873-25.66c-5.87-6.008-14.292-8.335-22.351-9.572a20.3,20.3,0,0,1-9.412-3.637,16.109,16.109,0,0,0-10.721-2.08,17.5,17.5,0,0,0-10.9,5.513Z" transform="translate(-126.974 -89.317)" fill="#3f3d56"/>
    <g id="Group_1" data-name="Group 1" transform="translate(296.927 218.309)" opacity="0.1">
      <path id="Path_42" data-name="Path 42" d="M533.343,337.519a24.2,24.2,0,0,0-1.855,11.106,23.782,23.782,0,0,1,1.855-7.884c1.709-3.993,4.473-7.47,6.16-11.47A23.208,23.208,0,0,0,541.2,318.71a22.618,22.618,0,0,1-1.695,7.346C537.816,330.056,535.052,333.526,533.343,337.519Z" transform="translate(-453.3 -318.71)"/>
      <path id="Path_43" data-name="Path 43" d="M429.181,343.731c.044,2.851.087,5.71.095,8.561q0-5.891-.095-11.768c-.058-4.066-.131-8.182-1.229-12.1a59.938,59.938,0,0,1-2.182-7.521c-.647,3.564,1.193,7.179,2.182,10.735C429.05,335.519,429.122,339.665,429.181,343.731Z" transform="translate(-424.453 -319.307)"/>
      <path id="Path_44" data-name="Path 44" d="M508.373,399.479a24.6,24.6,0,0,1-6.655.444,58.349,58.349,0,0,0-15.165,1.906,77.229,77.229,0,0,1-7.615,1.92,45.946,45.946,0,0,1-8.946.233c-14.983-.589-30.177-1.222-44.527-5.506a24.681,24.681,0,0,1-1.455,2.764c14.787,4.7,30.511,5.346,46.011,5.95a45.948,45.948,0,0,0,8.946-.233,75.221,75.221,0,0,0,7.586-1.913,58.347,58.347,0,0,1,15.136-1.927,25.114,25.114,0,0,0,6.655-.451c2.153-.589,4.226-2.066,4.808-4.219a5.775,5.775,0,0,0-.073-3.026A6.79,6.79,0,0,1,508.373,399.479Z" transform="translate(-424.01 -339.627)"/>
    </g>
    <path id="Path_45" data-name="Path 45" d="M491.718,373.106c-.538,1.207-2.807,11.637-3.346,12.706S484.9,404,484.626,404.956s-19.369-4.015-19.369-4.015l-11.5-9.637-11.819-11.761s-.349-10.612,8.357-14.016a13.273,13.273,0,0,1,1.818-.567c10.561-2.538,9.5-34.65,9.5-34.65l21.674,9.361s-4.015,18.736-3.877,22.351c.036,1.215.989,1.971,2.233,2.429a17.654,17.654,0,0,0,5.92.64S492.256,371.906,491.718,373.106Z" transform="translate(-131.971 -103.564)" fill="#fbbebe"/>
    <path id="Path_46" data-name="Path 46" d="M552.995,436.93l3.077.807s2.276,3.462-3.077,6.684a92.728,92.728,0,0,0-9.768,6.83l-15.819,4.815L524.36,446.5l14.721-11.172Z" transform="translate(-154.445 -132.2)" fill="#6c63ff"/>
    <path id="Path_47" data-name="Path 47" d="M552.995,436.93l3.077.807s2.276,3.462-3.077,6.684a92.728,92.728,0,0,0-9.768,6.83l-15.819,4.815L524.36,446.5l14.721-11.172Z" transform="translate(-154.445 -132.2)" opacity="0.1"/>
    <path id="Path_48" data-name="Path 48" d="M402.693,449.578,396.54,455.6s11.1,12.845,19.638,13.645,14.045-9.768,14.045-9.768l-7.39-11.637Z" transform="translate(-119.592 -135.612)" fill="#6c63ff"/>
    <path id="Path_49" data-name="Path 49" d="M402.693,449.578,396.54,455.6s11.1,12.845,19.638,13.645,14.045-9.768,14.045-9.768l-7.39-11.637Z" transform="translate(-119.592 -135.612)" opacity="0.1"/>
    <circle id="Ellipse_4" data-name="Ellipse 4" cx="21.405" cy="21.405" r="21.405" transform="translate(320.144 204.918)" opacity="0.1"/>
    <circle id="Ellipse_5" data-name="Ellipse 5" cx="21.405" cy="21.405" r="21.405" transform="translate(320.144 203.311)" fill="#fbbebe"/>
    <path id="Path_50" data-name="Path 50" d="M505.96,570.325a69.093,69.093,0,0,0-14.321,3.208c-8,2.662-70.7.044-71.569,0v-2.407l3.069-7.622,36.366-4.553h17.4s26.184,6.153,28.889,8.808C505.9,569.358,505.96,570.325,505.96,570.325Z" transform="translate(-126.008 -165.908)" opacity="0.1"/>
    <path id="Path_51" data-name="Path 51" d="M491.718,385.905c-.538,1.207-2.807,11.637-3.346,12.706s-3.477,18.183-3.746,19.143-19.369-4.015-19.369-4.015l-11.5-9.637-11.819-11.761s-.349-10.612,8.357-14.016l21.616,24.853,9.732-25.929a17.653,17.653,0,0,0,5.92.64S492.256,384.705,491.718,385.905Z" transform="translate(-131.971 -116.364)" opacity="0.1"/>
    <path id="Path_52" data-name="Path 52" d="M463.938,403.562l-22.125-25.457a9.273,9.273,0,0,0-8.779-.647c-4.953,2.146-11.106,3.884-12.714,4.953s-7.63,7.688-7.63,7.688l17.936,46.92-7.9,30.9s1.207,15.79-1.869,21.543a23.645,23.645,0,0,0-2.546,11.906s.938,7.63-.131,11.637a19.383,19.383,0,0,0-.138,8.161s63.561,2.677,71.584,0a68.5,68.5,0,0,1,14.321-3.208s-1.455-26.766-2.909-33.188,1.207-30.9,1.207-30.9l-1.738-26.227,10.43-26.911s-5.651-17.252-11.543-18.991c0,0-10.7-2.546-12.976-3.746s-8.968-2.277-8.968-2.277l-3.513,1.178Z" transform="translate(-123.996 -115.946)" fill="#6c63ff"/>
    <rect id="Rectangle_31" data-name="Rectangle 31" width="50.942" height="77.955" rx="2.94" transform="translate(322.121 307.502) rotate(3.89)" opacity="0.1"/>
    <rect id="Rectangle_32" data-name="Rectangle 32" width="50.942" height="77.955" rx="2.94" transform="translate(323.725 305.905) rotate(3.89)" fill="#3f3d56"/>
    <rect id="Rectangle_33" data-name="Rectangle 33" width="44.382" height="67.074" transform="translate(326.6 311.967) rotate(3.89)" fill="#fff"/>
    <rect id="Rectangle_34" data-name="Rectangle 34" width="36.259" height="10.105" transform="translate(330.737 329.527) rotate(4.004)" opacity="0.1"/>
    <rect id="Rectangle_35" data-name="Rectangle 35" width="5.753" height="5.266" transform="translate(359.861 371.73) rotate(3.89)" opacity="0.1"/>
    <rect id="Rectangle_36" data-name="Rectangle 36" width="29.45" height="5.266" transform="translate(330.557 357.443) rotate(3.89)" opacity="0.1"/>
    <rect id="Rectangle_37" data-name="Rectangle 37" width="30.664" height="8.095" transform="translate(334.806 310.396) rotate(3.89)" fill="#3f3d56"/>
    <rect id="Rectangle_38" data-name="Rectangle 38" width="30.664" height="8.095" transform="translate(334.806 310.396) rotate(3.89)" opacity="0.1"/>
    <path id="Path_53" data-name="Path 53" d="M482.816,572.56s-.269,39.61-10.706,62.354c0,0,12.583-29.973,12.583-31.173s6.953-13.783,5.091-17.529S482.816,572.56,482.816,572.56Z" transform="translate(-140.198 -169.619)" opacity="0.1"/>
    <path id="Path_54" data-name="Path 54" d="M477.96,311.72a14.889,14.889,0,0,1,2.422-9.972,12.285,12.285,0,0,0,9.5,12.946,1.607,1.607,0,0,1-.458-1.76c1.491,1.687,2.633,3.688,4.32,5.171s4.219,2.371,6.2,1.316c2.7-1.455,2.727-5.288,2.029-8.27a38.84,38.84,0,0,0-8.939-17.07,11.826,11.826,0,0,0-9.383-4.771,23.081,23.081,0,0,0-12.125,1.9,32.221,32.221,0,0,0-5.819,4.066l-10.183,8.306a9.666,9.666,0,0,0-2.473,2.6,7.128,7.128,0,0,0-.771,2.727,14.7,14.7,0,0,0,6.851,13.87,10.845,10.845,0,0,1,6.5-10.183,2.822,2.822,0,0,1,1.011,2.1l2.146-3.826a4.211,4.211,0,0,1,1.455-1.724c1.324-.727,2.975.131,4.1,1.156s2.226,2.306,3.738,2.466l.058-5.695" transform="translate(-134.774 -92.357)" opacity="0.1"/>
    <path id="Path_55" data-name="Path 55" d="M477.971,310.62a14.9,14.9,0,0,1,2.422-9.979,12.292,12.292,0,0,0,9.506,12.946,1.593,1.593,0,0,1-.458-1.753c1.491,1.687,2.633,3.68,4.32,5.171s4.219,2.371,6.2,1.309c2.7-1.455,2.727-5.288,2.029-8.262a38.84,38.84,0,0,0-8.939-17.07,14.307,14.307,0,0,0-5-3.884,14.547,14.547,0,0,0-4.364-.887A23.077,23.077,0,0,0,471.57,290.1a32.627,32.627,0,0,0-5.819,4.073l-10.183,8.306a9.564,9.564,0,0,0-2.473,2.6,7.091,7.091,0,0,0-.771,2.728,14.692,14.692,0,0,0,6.851,13.863,10.859,10.859,0,0,1,6.5-10.183,2.844,2.844,0,0,1,1.011,2.1l2.138-3.811a4.168,4.168,0,0,1,1.455-1.724c1.324-.727,2.975.131,4.1,1.156s2.226,2.3,3.738,2.466l.058-5.7" transform="translate(-134.785 -92.057)" fill="#3f3d56"/>
    <path id="Path_56" data-name="Path 56" d="M477.326,489.18c-1.869-.946-32.781,3.877-32.781,3.877a176.914,176.914,0,0,0-17.4-3.477c-12.306-2.022-13.092-14.052-13.092-14.052l-1.346-24.082,4.153-3.637,17.79,11.637a57.48,57.48,0,0,1,0,6.946,9.793,9.793,0,0,0-.6,2.182.727.727,0,0,0,.6.655c1.207.305,17.66,2.967,17.66,2.967s38.134-2.611,47.64,10.234a9.658,9.658,0,0,1,1.68,3.171C503.99,494.381,479.021,490.017,477.326,489.18Z" transform="translate(-124.001 -135.603)" fill="#fbbebe"/>
    <path id="Path_57" data-name="Path 57" d="M509.446,493.457c-1.455.647-2.357,1.113-2.357,1.113s-13.645-.4-21.311-3.178-16.983-2.284-16.983-2.284-31.944-5.5-26.991-12.677a.727.727,0,0,0,.6.655c1.207.305,17.66,2.967,17.66,2.967s38.134-2.611,47.64,10.234A9.657,9.657,0,0,1,509.446,493.457Z" transform="translate(-131.792 -143.407)" opacity="0.1"/>
    <path id="Path_58" data-name="Path 58" d="M522.721,441.58s1.877,13.245,2.007,14.321.807,14.045,0,15.521-2.007,3.877-2.007,3.877,1.338,2.807-4.015,3.884a54.943,54.943,0,0,0-11.637,4.277s-13.652-.4-21.274-3.208-16.99-2.277-16.99-2.277-40.549-6.961-23.151-15.456,29.7,3.011,29.7,3.011l19.4-1.2s7.23-4.422,9.237-4.015a7.426,7.426,0,0,0,4.146-.669l.138-14.052Z" transform="translate(-131.801 -133.905)" fill="#fbbebe"/>
    <path id="Path_59" data-name="Path 59" d="M412.132,396.8l-3.884-.2L396.48,442.422s12.706-3.215,18.183,0,15.521,3.877,15.521,3.877l-3.746-36.526Z" transform="translate(-119.576 -121.64)" opacity="0.1"/>
    <path id="Path_60" data-name="Path 60" d="M412.132,395.694l-3.884-.2L396.48,441.312s12.706-3.215,18.183,0,15.521,3.877,15.521,3.877l-3.746-36.526Z" transform="translate(-119.576 -121.337)" fill="#6c63ff"/>
    <path id="Path_61" data-name="Path 61" d="M537.153,409.57l5.346,1.207s13.652,19.638,14.721,20.736-5.091,5.091-7.63,5.091-14.983,1.455-18.6,4.815-2.109-13.55-2.109-13.936,4.488-11.055,4.488-11.055Z" transform="translate(-155.594 -125.176)" opacity="0.1"/>
    <path id="Path_62" data-name="Path 62" d="M537.153,408.47l5.346,1.2s13.652,19.674,14.721,20.743-5.091,5.091-7.63,5.091-14.983,1.455-18.6,4.815-2.109-13.55-2.109-13.936,4.517-11.092,4.517-11.092Z" transform="translate(-155.594 -124.876)" fill="#6c63ff"/>
    <g id="Group_2" data-name="Group 2" transform="translate(317.472 206.977)" opacity="0.1">
      <path id="Path_63" data-name="Path 63" d="M480.356,304.8a10.721,10.721,0,0,1,.036-1.673,14.889,14.889,0,0,0-2.24,5.491v2.029c0,1.178,0,2.364-.036,3.542h-.1v.546a2.9,2.9,0,0,0-.036-.56c-1.455-.233-2.495-1.455-3.578-2.429s-2.778-1.906-4.1-1.156a4.168,4.168,0,0,0-1.455,1.724l-2.16,3.811a2.815,2.815,0,0,0-1.011-2.095,10.845,10.845,0,0,0-6.5,10.183,14.779,14.779,0,0,1-6.9-11.586,14.707,14.707,0,0,0,6.9,13.186,10.859,10.859,0,0,1,6.5-10.183,2.844,2.844,0,0,1,1.011,2.1l2.138-3.811a4.168,4.168,0,0,1,1.455-1.724c1.324-.727,2.975.131,4.1,1.156s2.226,2.3,3.739,2.466q0-2.793.058-5.571a14.815,14.815,0,0,1,2.182-5.448Z" transform="translate(-452.256 -303.13)"/>
      <path id="Path_64" data-name="Path 64" d="M487.5,314.2c.036-.495.095-.989.167-1.455l.08-2.007a14.72,14.72,0,0,0-.247,3.462Z" transform="translate(-461.863 -305.205)"/>
      <path id="Path_65" data-name="Path 65" d="M513.869,325c-1.986,1.062-4.517.175-6.2-1.309s-2.829-3.484-4.32-5.171a1.607,1.607,0,0,0,.458,1.76,1.715,1.715,0,0,1-.422-.109c1.455,1.673,2.611,3.637,4.284,5.091s4.219,2.371,6.2,1.309,2.553-3.549,2.378-5.971A5.049,5.049,0,0,1,513.869,325Z" transform="translate(-466.16 -307.326)"/>
      <path id="Path_66" data-name="Path 66" d="M499.962,316.718A12.365,12.365,0,0,1,490.9,305.91a12.285,12.285,0,0,0,9.528,12.532A1.6,1.6,0,0,1,499.962,316.718Z" transform="translate(-462.786 -303.888)"/>
    </g>
    <path id="Path_67" data-name="Path 67" d="M925.5,424.207s-2.866-.4-2.866-4.568-2.051-11.972-2.051-11.972h0s-1.775-13.579-4.226-15.732-5.6-14.794-5.6-14.794-.538-6.859-1.637-8.335-2.582-5.091-4.771-10.248-11.3-8.692-11.3-8.692-16.5-9.572-21.18-12.692h0a7.228,7.228,0,0,1-1.193-.9c-.815-1.062-4.364-1.084-4.364-1.084a71.854,71.854,0,0,1-.844-7.477v-.785a25.166,25.166,0,0,0,11.063-13.688c.087-.276.16-.56.24-.844a2.364,2.364,0,0,0,1.455-1.28,25.664,25.664,0,0,1,.953-2.909c.611-1.033,1.775-1.586,2.691-2.357,2.313-1.971,2.909-5.28,2.8-8.284-.073-2.444-.466-4.9-.313-7.324a2.881,2.881,0,0,1,.044-.611c.044-.356.095-.727.16-1.076.356-1.8,1.135-3.506,1.571-5.295a6.812,6.812,0,0,0-.538-5.346c-1.491-2.262-4.6-2.713-7.324-2.909-3.091-.262-5.819.073-7.833-2.495a27.422,27.422,0,0,0-3.113-3.753c-.407-.378-4.364-2.8-4.364-2.953a17.681,17.681,0,0,0-12.365-.953c-2.058.6-3.986,1.571-6.073,2.058-4.48,1.062-9.644-.087-13.456,2.48-2.124,1.455-3.4,3.775-4.589,6.022q-1.455,2.778-2.953,5.564a35.8,35.8,0,0,0-3.92,9.521,16.124,16.124,0,0,0-.269,2.233h0v1.156a3.991,3.991,0,0,0,.044.727,4.172,4.172,0,0,0,.051.451c.051.153.065.495.109.727s.131.647.218.96a1.476,1.476,0,0,0,.131.407c.044.138.16.487.255.727s.1.255.16.378a6.8,6.8,0,0,0,.371.727c.058.095.1.189.16.284a8.247,8.247,0,0,0,.669.975c1.549,1.942,3.848,3.178,5.542,5v.815a24.9,24.9,0,0,0,11.4,20.292c0,.276.036.56.051.844a41.516,41.516,0,0,1-.08,6.473,3.069,3.069,0,0,0-2.415-1.076,3.462,3.462,0,0,0-.931.08l-.065-.051h0v.065c-1.6.393-3.571,2.058-5.455,6.793,0,0-5.731,6.459-10.1,6.19s-15.412,6.728-15.412,6.728-10.779,6.99-13.092,14.117a98.7,98.7,0,0,1-4.648,11.841l-13.361,27.435h0l-2.451,21.82s1.36,9.681,1.091,11.164,5.593,14.794,5.593,14.794,19.369,34.024,27.282,35.77l.567-.393a4.951,4.951,0,0,0,1.069.393l1.629-1.142a17.024,17.024,0,0,1-.131,3.833c-1.084,3.368.415,25.289,2.32,29.588s1.229,60.667,1.229,60.667l-.269,4.968a2.108,2.108,0,0,0,.065.436l-.065,1.178.2.1a14.058,14.058,0,0,1-.2,4.742c-.684,2.182-.96,8.343-.96,8.343s-5.455,34.824-2.866,41.821,4.779,14.663,4.779,14.663,2.727,8.728.131,10.183-9.95,4.037-8.452,7.666c1.382,3.36,6.626,12.365,7.4,13.681l-.065.727-1.069,11.586a14.545,14.545,0,0,0,1.229,4.422c1.171,2.531,3.44,5.142,7.775,4.859.727-.051,1.564-.131,2.386-.24,7.921-1.069,17.667-4.6,17.667-4.6a6.967,6.967,0,0,1-1.375-1.142h0a3.993,3.993,0,0,1-1.215-2.909c.116-2.117-3.833-12.161-4.822-14.641l-.225-.553s9-9.419,7.506-17.754c0,0-9.964-5.819-6.684-9.019s9.143-12.365,9.143-12.365.269-34.294,0-39.407a42.473,42.473,0,0,1,.5-10.648c.109-.524.24-1.04.378-1.557a92.906,92.906,0,0,0,13.717,1.04q2.517,0,5.091-.1,0,.727.065,1.571c.378,8.5,1.084,23.4,1.658,28.933.815,7.928,5.317,29.319,5.317,29.319s-8.59,5.506,1.5,19.1c0,0,0,4.917-.669,5.637h0A61.555,61.555,0,0,0,867,689.427c-.422,2.553-.6,5.149.087,6.488,1.637,3.215,11.455,2.953,11.455,2.953h0a1.547,1.547,0,0,1,.24-.036,14.015,14.015,0,0,1,10.393,3.128c3.731,3,17.885,1.687,25.558.727,3-.385,5.011-.727,5.011-.727a2.946,2.946,0,0,0,.1-1.047h0c-.08-1.884-1.556-6.015-11.565-9.7,0,0-9.412-6.328-9.281-11.841H897.71c.684-.022,1.164-.022,1.164-.022s-3.688-13.448-2.182-14.547-3-16-3-16-2.582-25.02-2.727-26.766a15.379,15.379,0,0,1,.684-4.437l-.684-13.725s-.131-4.56,0-6.044a28.419,28.419,0,0,0-.305-3.848c-.065-.509-.131-1.04-.2-1.564,3.528-.895,5.819-1.716,5.819-1.716l-.407-47.749c3-5.819,3.549-18.591,3.535-27.639,0-5.819-.262-10.124-.262-10.124l4.095-6.684s.945-8-.553-9.753a1.679,1.679,0,0,1,.182-2.291,7.62,7.62,0,0,1,.909-.64,1.15,1.15,0,0,1-.095-.16,7.225,7.225,0,0,1,.909-.647s-1.455-2.255-.153-3.207c1.222.829,2.313,1.491,3.142,1.964-.058.531-.116.836-.116.836l.349-.727c.8.451,1.287.727,1.287.727s6.415-12.779,6.277-14.656,4.364-9.819,4.364-9.819.546-4.175,3-5.92,1.906-14.394,1.906-14.394.684-6.59,2.32-9.273S925.5,424.207,925.5,424.207ZM802.757,418.6l.124,3.048c-.727-1.171-1.251-2.007-1.251-2.007Z" transform="translate(-221.561 -85.526)" fill="url(#linear-gradient-2)"/>
    <path id="Path_68" data-name="Path 68" d="M955.226,552.473l-1.571,6.691s-12.583-6.437-14.845-14.583S942.6,533.33,942.6,533.33l11.732,4.96Z" transform="translate(-267.316 -158.922)" fill="#fff"/>
    <path id="Path_69" data-name="Path 69" d="M955.226,552.473l-1.571,6.691s-12.583-6.437-14.845-14.583S942.6,533.33,942.6,533.33l11.732,4.96Z" transform="translate(-267.316 -158.922)" opacity="0.1"/>
    <path id="Path_70" data-name="Path 70" d="M853.8,862.84s-11.637,4.277-19.638,4.815c-4.248.284-6.481-2.32-7.63-4.829a14.764,14.764,0,0,1-1.207-4.364l1.055-11.528.553-6.131,17-4.422,2.407,7.368.225.553c.96,2.466,4.844,12.459,4.728,14.547a3.993,3.993,0,0,0,1.186,2.909,6.76,6.76,0,0,0,1.324,1.084Z" transform="translate(-236.511 -241.555)" fill="#fff"/>
    <path id="Path_71" data-name="Path 71" d="M954.146,856.678a2.909,2.909,0,0,1-.1,1.047s-24.889,4.146-29.98,0a13.477,13.477,0,0,0-10.444-3.077s-9.63.262-11.237-2.909c-.669-1.331-.495-3.913-.08-6.451a61.867,61.867,0,0,1,1.687-7.07l.385-.305,2.291-1.84,26.824-.793h.2c-.131,5.484,9.1,11.775,9.1,11.775C952.619,850.692,954.066,854.8,954.146,856.678Z" transform="translate(-257.399 -241.255)" fill="#fff"/>
    <path id="Path_72" data-name="Path 72" d="M954.152,860.427a3,3,0,0,1-.109,1.047s-24.889,4.146-29.973,0a13.477,13.477,0,0,0-10.452-3.077s-9.637.262-11.245-2.909c-.662-1.331-.495-3.913-.08-6.459,3.709.371,9.564,1.295,11.863,3.506,3.477,3.346,9.368,6.691,12.976,6.961C929.983,859.671,946.937,860.209,954.152,860.427Z" transform="translate(-257.398 -245.005)" opacity="0.1"/>
    <path id="Path_73" data-name="Path 73" d="M854.258,872.343s-11.637,4.277-19.638,4.815c-4.248.284-6.481-2.32-7.63-4.829,2.968,1,7.077,2.036,9.237,1.084,2.56-1.142,11.637-1.869,16.729-2.182A6.613,6.613,0,0,0,854.258,872.343Z" transform="translate(-236.964 -251.058)" opacity="0.1"/>
    <path id="Path_74" data-name="Path 74" d="M880.966,382.507c-9.6-3.731-21.951-16.059-18.867-21.82a13.04,13.04,0,0,0,1.2-4.626,42.217,42.217,0,0,0,.087-6.546A89.894,89.894,0,0,0,862.1,338.86s29.973.676,28.228,5.091a16.38,16.38,0,0,0-.451,6.059c.145,2.509.5,5.368.88,7.775.516,3.295,1.047,5.819,1.047,5.819s-1.84,2.567-2.909,2.706S894.742,387.853,880.966,382.507Z" transform="translate(-246.406 -105.896)" fill="#cf6f80"/>
    <path id="Path_75" data-name="Path 75" d="M846.923,844.251l-.225.247c-8.961-10.837-19.8,2.677-19.8,2.677l-.16-.291.553-6.131,17-4.422L846.7,843.7Z" transform="translate(-236.896 -241.542)" opacity="0.1"/>
    <path id="Path_76" data-name="Path 76" d="M934.486,836.033s-6.546-.131-10.037,2.953-20.365.662-19.638,0a2.517,2.517,0,0,0,.378-1.113l2.291-1.84,26.824-.793C934.406,835.749,934.486,836.033,934.486,836.033Z" transform="translate(-258.177 -241.244)" opacity="0.1"/>
    <path id="Path_77" data-name="Path 77" d="M855.3,713.935a20.4,20.4,0,0,0-1.106,3.731,42.7,42.7,0,0,0-.5,10.59c.269,5.091,0,39.21,0,39.21s-5.753,9.1-8.968,12.306,6.546,8.968,6.546,8.968c1.455,8.3-7.361,17.667-7.361,17.667-8.961-10.837-19.8,2.669-19.8,2.669s-5.891-10.183-7.361-13.819,5.753-6.146,8.292-7.63-.131-10.182-.131-10.182-2.138-7.63-4.684-14.59,2.807-41.6,2.807-41.6.276-6.16.938-8.306a14.067,14.067,0,0,0,.2-4.713c-.044-.531-.094-.967-.131-1.273s-.065-.436-.065-.436l.1-.174,3.637-6.779S857.041,709.665,855.3,713.935Z" transform="translate(-234.118 -204.251)" fill="#6c63ff"/>
    <path id="Path_78" data-name="Path 78" d="M931.539,800.92s-6.546-.138-10.037,2.909-20.365.669-19.638,0,.662-5.615.662-5.615c-9.9-13.521-1.455-19.005-1.455-19.005s-4.415-21.274-5.215-29.166c-.56-5.506-1.251-20.365-1.622-28.78-.16-3.637-.255-6.146-.255-6.146L902,713.524l1.04-.2,19.507-3.92s.538,3.637.9,6.611a29.044,29.044,0,0,1,.3,3.833c-.124,1.455,0,6.015,0,6.015l.669,13.645a15.74,15.74,0,0,0-.669,4.415c.138,1.746,2.677,26.627,2.677,26.627s4.415,14.852,2.909,15.921S931.539,800.92,931.539,800.92Z" transform="translate(-255.23 -206.931)" fill="#6c63ff"/>
    <path id="Path_79" data-name="Path 79" d="M890.508,343.981a16.379,16.379,0,0,0-.451,6.059,24.911,24.911,0,0,1-26.489-.495,89.894,89.894,0,0,0-1.287-10.655S892.253,339.566,890.508,343.981Z" transform="translate(-246.586 -105.904)" opacity="0.1"/>
    <path id="Path_80" data-name="Path 80" d="M898.344,314.479a24.884,24.884,0,1,1-49.764.6v-.6a24.889,24.889,0,0,1,49.778,0Z" transform="translate(-242.851 -92.461)" fill="#cf6f80"/>
    <path id="Path_81" data-name="Path 81" d="M880.966,388.956c-9.6-3.731-21.951-16.059-18.867-21.82a13.04,13.04,0,0,0,1.2-4.626l13.143,10.808,8.132,6.67,6.182-15.732c.516,3.295,1.047,5.819,1.047,5.819s-1.84,2.567-2.909,2.706S894.742,394.3,880.966,388.956Z" transform="translate(-246.406 -112.344)" opacity="0.1"/>
    <path id="Path_82" data-name="Path 82" d="M895.621,417.737,884.646,602.115l-14.314.938L833.26,496.143l6.08-126.926,1.287-26.817,16.481,13.536,8.131,6.67,6.364-16.2,11.834,10.314Z" transform="translate(-227.073 -93.362)" fill="#6c63ff"/>
    <path id="Path_83" data-name="Path 83" d="M858.071,713.957a20.4,20.4,0,0,0-1.106,3.731,105.464,105.464,0,0,1-30.039-9.375l-.2-.1.065-1.171v-.611l3.637-6.779S859.816,709.687,858.071,713.957Z" transform="translate(-236.893 -204.273)" opacity="0.1"/>
    <path id="Path_84" data-name="Path 84" d="M902.219,721.921a73.673,73.673,0,0,1-8.044.924c-.16-3.637-.255-6.146-.255-6.146l8.059-1.629Z" transform="translate(-255.214 -208.477)" opacity="0.1"/>
    <path id="Path_85" data-name="Path 85" d="M926.879,716.011c-5.171,1.346-13.165,2.858-20.307,1.913l-.1-4.6,19.507-3.92S926.493,713.008,926.879,716.011Z" transform="translate(-258.636 -206.931)" opacity="0.1"/>
    <path id="Path_86" data-name="Path 86" d="M871.067,623.738c-29.82,5.091-57.132-9.506-57.132-9.506l.262-4.946s.676-56.07-1.2-60.368-3.338-26.067-2.276-29.391-3.877-53.51-3.877-53.51l-.8-20.365-29.3-11.906,13.092-27.3a98.651,98.651,0,0,0,4.553-11.783c2.277-7.091,12.845-14.052,12.845-14.052s10.837-6.953,15.121-6.691,9.9-6.153,9.9-6.153c4.146-10.568,7.9-5.819,7.9-5.819a9.35,9.35,0,0,1-.2,1.564c-1.455,11.6,23.522,48.258,23.878,48.913h0l2.407,57.939,2.407,73.322Z" transform="translate(-223.262 -111.902)" opacity="0.1"/>
    <path id="Path_87" data-name="Path 87" d="M869.959,623.738c-29.82,5.091-57.139-9.506-57.139-9.506l.269-4.946s.669-56.07-1.207-60.368-3.339-26.089-2.269-29.442-3.9-53.488-3.9-53.488l-.807-20.365-29.3-11.906,13.092-27.3a100.18,100.18,0,0,0,4.553-11.775c2.277-7.07,12.881-14.037,12.881-14.037s10.837-6.953,15.114-6.691,9.921-6.146,9.921-6.146c4.153-10.568,8.728-5.819,8.728-5.819,0,.509-.436.727-.2,1.564,3.2,11.252,22.722,48.258,23.078,48.913h0l2.407,57.939,2.357,73.358Z" transform="translate(-222.954 -111.902)" fill="#fff"/>
    <path id="Path_88" data-name="Path 88" d="M883.981,414.687c-3.207-1.338-20.2-20.736-20.2-20.736v-4.415c-.618-1.455-4.3-.567-7.273.451l1.28-26.817,1.455,1.207C862.423,375.622,883.632,414.039,883.981,414.687Z" transform="translate(-245.013 -112.524)" opacity="0.1"/>
    <path id="Path_89" data-name="Path 89" d="M885.088,412.495c-3.215-1.346-20.205-20.736-20.205-20.736v-4.422c-.618-1.455-4.291-.567-7.273.451L858.868,361l1.455,1.2C863.53,373.43,884.732,411.84,885.088,412.495Z" transform="translate(-245.313 -111.933)" fill="#fff"/>
    <path id="Path_90" data-name="Path 90" d="M827.266,564c.4,0,20.736-2.138,20.736-2.138s12.314,24.22,11.506,30.1-2.269,11.106-7.222,10.183-26.657.727-26.657.727Z" transform="translate(-236.593 -166.701)" opacity="0.1"/>
    <path id="Path_91" data-name="Path 91" d="M826.156,561.788c.407,0,20.743-2.138,20.743-2.138s12.306,24.256,11.506,30.075-2.277,11.106-7.222,10.183-26.664.727-26.664.727Z" transform="translate(-236.29 -166.099)" fill="#fff"/>
    <path id="Path_92" data-name="Path 92" d="M843.671,547s18.663,10.037,19.063,13.092-9.5-1.338-11.637-1.877a27.745,27.745,0,0,0-4.284-.669l-14.263.385Z" transform="translate(-238.48 -162.65)" fill="#cf6f80"/>
    <circle id="Ellipse_6" data-name="Ellipse 6" cx="1.964" cy="1.964" r="1.964" transform="translate(631.789 299.486)" opacity="0.1"/>
    <circle id="Ellipse_7" data-name="Ellipse 7" cx="1.964" cy="1.964" r="1.964" transform="translate(631.789 298.686)" fill="#3f3d56"/>
    <circle id="Ellipse_8" data-name="Ellipse 8" cx="1.964" cy="1.964" r="1.964" transform="translate(635.404 384.496)" opacity="0.1"/>
    <circle id="Ellipse_9" data-name="Ellipse 9" cx="1.964" cy="1.964" r="1.964" transform="translate(635.404 383.689)" fill="#3f3d56"/>
    <circle id="Ellipse_10" data-name="Ellipse 10" cx="1.964" cy="1.964" r="1.964" transform="translate(633.753 341.991)" opacity="0.1"/>
    <circle id="Ellipse_11" data-name="Ellipse 11" cx="1.964" cy="1.964" r="1.964" transform="translate(633.753 341.191)" fill="#3f3d56"/>
    <path id="Path_93" data-name="Path 93" d="M938.307,507.456s1.338,2.007,0,2.909.131,3.215.131,3.215-3.338,1.949-1.869,3.717.538,9.7.538,9.7l-4.015,6.684s.24,4.284.255,10.073c0,9.033-.531,21.733-3.469,27.522l.393,47.5s-14.059,5.142-25.827,3.571L902.7,546.128s2.546-43.225,3.484-51.517a86.3,86.3,0,0,0,.669-12.983s-.4-12.976-1.746-18.991c0,0-1.455-26.1-1.6-33.319-.065-3.455.116-13.536.32-23.122.225-10.481.48-20.365.48-20.365l-2.655-21.013s2.655-.262,3.455.8a7.659,7.659,0,0,0,1.164.895h0c4.589,3.1,20.78,12.626,20.78,12.626s8.961,3.564,11.106,8.67,3.637,8.728,4.677,10.183,1.607,8.292,1.607,8.292,3.084,12.583,5.491,14.714,4.138,15.659,4.138,15.659l-21.274,16.729s-1.869,27.828-2.269,28.9S938.307,507.456,938.307,507.456Z" transform="translate(-257.321 -112.966)" fill="#fff"/>
    <path id="Path_94" data-name="Path 94" d="M939.106,507.36s1.331,2.007,0,2.909.124,3.215.124,3.215-3.339,1.949-1.869,3.717.538,9.7.538,9.7l-4,6.684s.24,4.284.262,10.073c0,9.033-.531,21.733-3.469,27.522l.4,47.5s-14.059,5.142-25.828,3.571l-1.738-76.224s2.538-43.225,3.484-51.517a85.516,85.516,0,0,0,.662-12.983s-.4-12.976-1.738-18.991c0,0-1.455-26.1-1.607-33.319-.065-3.455.116-13.536.32-23.122.225-10.481.48-20.365.48-20.365l-3.506-21.3s3.506,0,4.313,1.084a6.9,6.9,0,0,0,1.164.895h0c4.582,3.1,20.772,12.626,20.772,12.626s8.939,3.564,11.121,8.67,3.637,8.728,4.677,10.183,1.607,8.292,1.607,8.292,3.084,12.583,5.491,14.714,4.146,15.659,4.146,15.659L933.637,453.29s-1.869,27.828-2.277,28.9S939.106,507.36,939.106,507.36Z" transform="translate(-257.313 -112.871)" fill="#fff"/>
    <path id="Path_95" data-name="Path 95" d="M913.925,392.511l1.927,5.6-10.117,10.183c.225-10.481.48-20.365.48-20.365L902.71,366.64s3.506,0,4.313,1.084a6.9,6.9,0,0,0,1.164.895h0l8.6,24.795Z" transform="translate(-257.61 -113.471)" opacity="0.1"/>
    <path id="Path_96" data-name="Path 96" d="M912.8,390.3l1.927,5.593-10.11,10.183c.218-10.481.48-20.365.48-20.365l-3.513-21.3s3.513,0,4.313,1.084a7.275,7.275,0,0,0,1.164.895h0L915.7,391.2Z" transform="translate(-257.302 -112.863)" fill="#fff"/>
    <path id="Path_97" data-name="Path 97" d="M898.344,314.479a24.807,24.807,0,0,1-1.222,7.717,1.033,1.033,0,0,1-.786-.189c-.2-6.546-3.411-12.7-7.375-17.929a18.99,18.99,0,0,0-4-4.146,7.833,7.833,0,0,0-5.426-1.535c-2.182.3-4.109,1.782-6.313,1.971-2.909.24-5.513-1.775-8.4-1.869a8.234,8.234,0,0,0-6.175,2.866,16.845,16.845,0,0,0-3.309,6.131,35.917,35.917,0,0,0-1.847,10.59c-.036,2.036-.233,4.589-2.124,5.331a10.838,10.838,0,0,0-2.742-8.292l-.044-.051v-.6a24.889,24.889,0,0,1,49.778,0Z" transform="translate(-242.851 -92.461)" opacity="0.1"/>
    <path id="Path_98" data-name="Path 98" d="M880.958,268.869a17.136,17.136,0,0,0-12.088-.946c-2.015.6-3.913,1.564-5.957,2.051-4.364,1.055-9.455-.087-13.2,2.466-2.08,1.455-3.331,3.753-4.495,5.993l-2.909,5.535a35.965,35.965,0,0,0-3.848,9.455c-.662,3.338-.262,7.077,1.855,9.768,1.535,1.949,3.818,3.178,5.491,5.019a10.91,10.91,0,0,1,2.735,8.313c1.891-.727,2.08-3.295,2.124-5.331a35.966,35.966,0,0,1,1.848-10.59,16.847,16.847,0,0,1,3.309-6.131A8.24,8.24,0,0,1,862,291.6c2.909.1,5.521,2.117,8.4,1.869,2.182-.182,4.117-1.666,6.313-1.964a7.8,7.8,0,0,1,5.426,1.535,18.633,18.633,0,0,1,3.993,4.146c3.971,5.237,7.193,11.361,7.382,17.929.822.6,2.007-.189,2.415-1.12a26.585,26.585,0,0,1,.938-2.909c.6-1.026,1.738-1.578,2.633-2.349,2.269-1.957,2.837-5.251,2.749-8.241s-.669-6.022-.1-8.961c.342-1.8,1.113-3.491,1.535-5.273a6.9,6.9,0,0,0-.524-5.317c-1.455-2.247-4.517-2.7-7.186-2.909-3.033-.262-5.746.073-7.681-2.48a28.426,28.426,0,0,0-3.055-3.738C884.835,271.429,880.958,269.029,880.958,268.869Z" transform="translate(-240.012 -86.367)" fill="#512e4e"/>
    <path id="Path_99" data-name="Path 99" d="M784.531,475.095l-7.593-14.045-2.407,21.674s1.338,9.63,1.069,11.106,5.484,14.714,5.484,14.714,19.005,33.857,26.766,35.6L834.033,525.4l-6.953-8.83s-2.407-.938-3.011,0c0,0-12.917-22.213-14.248-23.813s-1.076-4.822-1.076-4.822-2.007-2.138-1.338-4.146-3.84-8.961-3.84-8.961l4.146-3.877Z" transform="translate(-222.659 -139.214)" opacity="0.1"/>
    <path id="Path_100" data-name="Path 100" d="M776.735,458.84l-2.007,1.607-2.407,21.674s1.338,9.63,1.069,11.106,5.491,14.714,5.491,14.714,19,33.857,26.758,35.6L831.866,524.8l-6.961-8.83s-2.407-.938-3.011,0c0,0-12.91-22.213-14.248-23.813s-1.069-4.822-1.069-4.822-2.007-2.138-1.338-4.146-3.884-8.961-3.884-8.961l4.146-3.877Z" transform="translate(-222.057 -138.611)" fill="#fff"/>
    <path id="Path_101" data-name="Path 101" d="M943.969,570.766c1.455,1.767.538,9.71.538,9.71l-4.015,6.641s.24,4.291.255,10.081L934,599.307a4.015,4.015,0,0,1-5.208-3.957l1.171-37.53,15.747,6.015c-1.338.931.131,3.215.131,3.215S942.5,569,943.969,570.766Z" transform="translate(-264.721 -165.6)" opacity="0.1"/>
    <path id="Path_102" data-name="Path 102" d="M945.074,569.664c1.455,1.76.538,9.7.538,9.7l-4,6.648s.24,4.284.262,10.073L935,598.233a3.92,3.92,0,0,1-5.091-3.862l1.171-37.661,15.739,6.03c-1.346.931.124,3.215.124,3.215S943.6,567.9,945.074,569.664Z" transform="translate(-265.026 -165.297)" fill="#fff"/>
    <path id="Path_103" data-name="Path 103" d="M953.216,547.7s-1.069,6.83-3.746,7.23-3.877,11.048-6.546,10.677-.9-9.906-.807-11.754-2.909-9.5-.669-11.237,9.368,0,9.368,0Z" transform="translate(-267.946 -161.245)" fill="#cf6f80"/>
    <path id="Path_104" data-name="Path 104" d="M957.825,473.783l5.04-10.183s2.015,7.761,2.015,11.906,2.807,4.553,2.807,4.553,3.077,3.637,1.455,6.291-2.269,9.23-2.269,9.23.531,12.575-1.877,14.314-2.946,5.891-2.946,5.891-4.415,7.892-4.277,9.768-6.153,14.583-6.153,14.583,3.077-15.79-14.852-22.613c0,0-.138-5.353,1.2-6.822s3.426-2.182,2.117-9.572-.378-16.3-.378-18.081,4.015-12.888,4.015-12.888Z" transform="translate(-266.896 -139.909)" opacity="0.1"/>
    <path id="Path_105" data-name="Path 105" d="M960.678,461.6l4.408,1.455s2.015,7.761,2.015,11.906,2.807,4.553,2.807,4.553,3.077,3.637,1.455,6.291-2.276,9.23-2.276,9.23.538,12.575-1.869,14.314-2.909,5.891-2.909,5.891-4.415,7.891-4.277,9.768-6.16,14.583-6.16,14.583,3.077-15.79-14.852-22.613c0,0-.131-5.353,1.207-6.822s3.426-2.182,2.116-9.572-.378-16.3-.378-18.081,4.015-12.888,4.015-12.888Z" transform="translate(-267.51 -139.363)" fill="#fff"/>
    <path id="Path_106" data-name="Path 106" d="M834.92,823.579s7.026-4.415,11.637-1.207S834.92,823.579,834.92,823.579Z" transform="translate(-239.126 -237.417)" opacity="0.1"/>
    <path id="Path_107" data-name="Path 107" d="M910,805.685a14.223,14.223,0,0,1,11.441,4.822C926.663,816.13,910,805.685,910,805.685Z" transform="translate(-259.598 -233.175)" opacity="0.1"/>
    <g id="Group_3" data-name="Group 3" transform="translate(598.147 196.889)" opacity="0.1">
      <path id="Path_108" data-name="Path 108" d="M903.392,315.618c-.895.778-2.044,1.324-2.64,2.349a27.138,27.138,0,0,0-.931,2.909c-.407.938-1.593,1.716-2.422,1.12-.189-6.546-3.411-12.692-7.375-17.929a18.6,18.6,0,0,0-3.993-4.138,7.819,7.819,0,0,0-5.433-1.542c-2.182.3-4.1,1.782-6.306,1.971-2.909.24-5.52-1.775-8.408-1.869a8.2,8.2,0,0,0-6.168,2.866,16.844,16.844,0,0,0-3.309,6.131,35.962,35.962,0,0,0-1.847,10.59c-.044,2.029-.233,4.56-2.109,5.317a10.064,10.064,0,0,1,0,1.622c1.9-.727,2.087-3.295,2.131-5.331a35.961,35.961,0,0,1,1.847-10.59,16.843,16.843,0,0,1,3.309-6.131,8.233,8.233,0,0,1,6.168-2.873c2.909.1,5.528,2.117,8.408,1.869,2.182-.182,4.117-1.666,6.306-1.964a7.819,7.819,0,0,1,5.433,1.535,18.635,18.635,0,0,1,3.993,4.146c3.964,5.237,7.186,11.361,7.375,17.929.829.6,2.015-.189,2.422-1.12a28.214,28.214,0,0,1,.931-2.909c.6-1.026,1.746-1.578,2.64-2.349,2.269-1.957,2.837-5.251,2.749-8.241v-.276C906.018,311.312,905.327,313.952,903.392,315.618Z" transform="translate(-842.053 -291.74)"/>
      <path id="Path_109" data-name="Path 109" d="M845.8,317.275c-1.666-1.84-3.949-3.077-5.484-5.026a10.554,10.554,0,0,1-2.116-5.95,11.208,11.208,0,0,0,2.116,7.557c1.535,1.949,3.819,3.178,5.484,5.019a10.91,10.91,0,0,1,2.749,6.488,10.91,10.91,0,0,0-2.749-8.088Z" transform="translate(-838.155 -293.906)"/>
      <path id="Path_110" data-name="Path 110" d="M927.57,290.664c-.429,1.782-1.193,3.477-1.542,5.273a16.836,16.836,0,0,0-.225,3.68,14.128,14.128,0,0,1,.225-2.073c.349-1.8,1.113-3.491,1.542-5.273a9.138,9.138,0,0,0,.24-3.011,10.1,10.1,0,0,1-.24,1.4Z" transform="translate(-862.049 -289.26)"/>
    </g>
    <ellipse id="Ellipse_12" data-name="Ellipse 12" cx="70.871" cy="11.383" rx="70.871" ry="11.383" transform="translate(25.801 587.377)" fill="#6c63ff" opacity="0.1"/>
    <rect id="Rectangle_39" data-name="Rectangle 39" width="4.56" height="102.677" transform="translate(94.395 380.699)" fill="#535461"/>
    <path id="Path_111" data-name="Path 111" d="M168.024,680.118l-.291,4.626-.4,6.546-.167,2.72-.407,6.546-.175,2.72-.4,6.546-4.6,74.238a12.568,12.568,0,0,1-12.546,11.8H125.127a12.561,12.561,0,0,1-12.546-11.848l-4.6-74.238-.4-6.546-.167-2.72-.415-6.546-.167-2.72-.4-6.546-.291-4.626a6.546,6.546,0,0,1,6.5-6.917h48.891a6.546,6.546,0,0,1,6.5,6.968Z" transform="translate(-40.405 -197.047)" fill="#3f3d56"/>
    <path id="Path_112" data-name="Path 112" d="M151.894,670.52l-.407,6.531h-60.5l-.407-6.531Z" transform="translate(-24.565 -182.831)" fill="#9d9cb5"/>
    <path id="Path_113" data-name="Path 113" d="M151.535,683.24l-.4,6.531H91.777l-.407-6.531Z" transform="translate(-24.78 -186.299)" fill="#9d9cb5"/>
    <path id="Path_114" data-name="Path 114" d="M151.175,695.97l-.4,6.524H92.567l-.407-6.524Z" transform="translate(-24.996 -189.77)" fill="#9d9cb5"/>
    <path id="Path_115" data-name="Path 115" d="M75.034,587.292c26.562,19.216,37.625,49.269,37.625,49.269s-32-1.1-58.572-20.314S16.44,567,16.44,567,48.442,568.076,75.034,587.292Z" transform="translate(-15.95 -168.103)" fill="#6c63ff"/>
    <path id="Path_116" data-name="Path 116" d="M16.44,567s33.217,18.438,43.872,33.7,52.317,35.872,52.317,35.872" transform="translate(-15.95 -168.103)" fill="none" stroke="#535461" stroke-miterlimit="10" stroke-width="2"/>
    <path id="Path_117" data-name="Path 117" d="M108.579,537.535c14.459,10.452,20.482,26.809,20.482,26.809s-17.456-.6-31.879-11.048S76.7,526.48,76.7,526.48,94.127,527.076,108.579,537.535Z" transform="translate(-32.381 -157.054)" fill="#6c63ff"/>
    <path id="Path_118" data-name="Path 118" d="M76.7,526.48s18.081,10.037,23.885,18.343,28.475,19.522,28.475,19.522" transform="translate(-32.381 -157.054)" fill="none" stroke="#535461" stroke-miterlimit="10" stroke-width="2"/>
    <path id="Path_119" data-name="Path 119" d="M170.028,568.4c-16.6,18.249-20.118,42.1-20.118,42.1s23.413-5.746,40-24,20.118-42.1,20.118-42.1S186.633,550.153,170.028,568.4Z" transform="translate(-52.343 -161.941)" fill="#6c63ff"/>
    <path id="Path_120" data-name="Path 120" d="M210.046,544.41s-21.631,18.707-27.129,31.6-33.006,34.5-33.006,34.5" transform="translate(-52.343 -161.943)" fill="none" stroke="#535461" stroke-miterlimit="10" stroke-width="2"/>
  </g>
</svg>
