<?xml version="1.0" encoding="utf-8"?>
<!-- Generator: Adobe Illustrator 25.1.0, SVG Export Plug-In . SVG Version: 6.00 Build 0)  -->
<svg version="1.1" id="Layer_1" xmlns="http://www.w3.org/2000/svg" xmlns:xlink="http://www.w3.org/1999/xlink" x="0px" y="0px"
	 viewBox="0 0 720 720" style="enable-background:new 0 0 720 720;" xml:space="preserve">
<style type="text/css">
	.st0{opacity:0.5;fill:#6C63FF;}
	.st1{opacity:0.5;}
	.st2{fill:#6C63FF;}
	.st3{fill:#FFFFFF;}
</style>
<g>
	<path class="st0" d="M659.9,199.2H558.5c-12.3,0-22.7-8-26.3-19.1c-0.9-2.7-1.4-5.6-1.4-8.7V50.1c0-0.5,0-1,0-1.6
		C529.9,21.6,507.8,0,480.7,0H239.3c-27.7,0-50.1,22.4-50.1,50.1v56.5v64.9c0,15.3-12.4,27.7-27.7,27.7H60.1
		c-27.7,0-50.1,22.4-50.1,50.1v127.2V491c0,14.8,6.4,28.1,16.6,37.3c8.3,7.4,19,12.2,30.9,12.8c69.8,3.7,126.2,59.1,131.2,128.9
		c0.4,6.2,1.7,12,3.8,17.3c1,2.6,2.2,5.2,3.6,7.6c4.5,7.9,11,14.2,18.6,18.5c7.5,4.3,16,6.6,24.9,6.6h241.9c10,0,19.5-3,27.5-8.7
		c5.1-3.6,9.5-8.2,13-13.4c5.2-7.7,8.2-16.9,8.8-26.6c1.7-28.2,11.8-54.1,27.7-75.3c24-31.8,61.3-53,103.8-55.2
		c3.1-0.2,6.2-0.6,9.1-1.3c2.2-0.5,4.3-1.2,6.3-1.9c19.3-7.2,32.3-25.9,32.3-46.6v-67.6v-174C710,221.6,687.6,199.2,659.9,199.2z"/>
	<g class="st1">
		<path class="st2" d="M532.2,180.2c-13.5,4.3-27.4,9.4-41.5,15.4c-51.1,21.7-104.8,54.9-154.8,105.7
			c-77.1,78.2-187.3,90.7-285.8,80.6c-13.6-1.4-27-3.2-40.1-5.4V249.3c0-27.7,22.4-50.1,50.1-50.1h101.3c15.3,0,27.7-12.4,27.7-27.7
			v-64.9c12.7-0.3,26.1-0.9,40.1-1.6c78.2-4.2,173.7-15.5,261.4-42.7c13.6-4.2,26.9-8.8,40-13.8c0,0.5,0,1,0,1.6v121.4
			C530.8,174.5,531.3,177.4,532.2,180.2z"/>
		<path class="st2" d="M710,423.3v67.6c0,20.7-13,39.4-32.3,46.6c-2,0.7-4.1,1.4-6.3,1.9c-2.8,0.7-5.9,1.2-9.1,1.3
			c-42.5,2.3-79.8,23.4-103.8,55.2c-16.8,2.9-34.3,6.3-52.2,10.1c-72.7,15.5-152.9,38.8-228,73.8c-21.7,10.1-43,21.3-63.6,33.5
			c-7.6-4.3-14.1-10.7-18.6-18.5c-1.4-2.4-2.6-5-3.6-7.6c-2-5.3-3.3-11.2-3.8-17.3c-5-69.8-61.4-125.2-131.2-128.9
			c-11.9-0.6-22.7-5.4-30.9-12.8c15.7-8.4,33.4-16.9,53.1-25c86.9-35.9,213.2-64.4,378.7-42.5c79,10.4,149.5,0.5,211.4-21.2
			C683.7,434.6,697,429.2,710,423.3z"/>
	</g>
	<g>
		<path class="st3" d="M50.1,249.3v20c0,5.5,4.5,10,10,10h159.1c5.5,0,10,4.5,10,10v136.2c0,5.5,4.5,10,10,10h20c5.5,0,10-4.5,10-10
			V170.8c0-48.2,37.8-87.7,85.3-90.5c52.7-3.1,95.9,39.6,95.9,92.4v497.2c0,5.5,4.5,10,10,10h19.7c3.6,0,6.9-1.8,8.7-4.9
			c0.4-0.6,0.7-1.4,1-2.2c0.7-1.8,1-3.8,1.2-5.8c6.4-89.6,79-161.3,169.1-166c5.3-0.3,9.6-4.7,9.6-10v-20.3c0-5.5-4.5-10-10-10
			H500.7c-5.5,0-10-4.5-10-10V289.4c0-5.5,4.5-10,10-10h159.1c5.5,0,10-4.5,10-10v-20c0-5.5-4.5-10-10-10H500.7c-5.5,0-10-4.5-10-10
			V50.1c0-5.5-4.5-10-10-10H239.3c-5.5,0-10,4.5-10,10v179.2c0,5.5-4.5,10-10,10H60.1C54.6,239.3,50.1,243.8,50.1,249.3z M490.7,501
			c0-0.1,0.1-0.2,0.2-0.2l52.1,0c0.2,0,0.3,0.3,0.1,0.4c-20.1,14.3-37.7,31.9-52,52c-0.1,0.2-0.4,0.1-0.4-0.1L490.7,501z"/>
		<path class="st3" d="M56.3,500c0.6,0.2,1.2,0.4,1.9,0.6c0.5,0.1,1.1,0.2,1.7,0.2c90.9,4.8,163.9,77.4,169.4,168.1
			c0.1,2.4,0.8,4.8,2.1,6.8c0.9,1.3,1.9,2.3,2.9,3c1.2,0.9,2.7,1.3,4.2,1.3h20.9c5.5,0,10-4.5,10-10V510.8c0-5.5,4.5-10,10-10h138.1
			c5.5,0,10-4.5,10-10v-20c0-5.5-4.5-10-10-10H60.1c-5.5,0-10,4.5-10,10v20.3C50.1,494.9,52.5,498.6,56.3,500z M177,500.7h52.1
			c0.1,0,0.2,0.1,0.2,0.2V553c0,0.2-0.3,0.3-0.4,0.1c-14.3-20.1-31.9-37.7-52-52C176.7,501,176.8,500.7,177,500.7z"/>
	</g>
</g>
</svg>
