<?xml version="1.0" encoding="utf-8"?>
<!-- Generator: Adobe Illustrator 25.2.3, SVG Export Plug-In . SVG Version: 6.00 Build 0)  -->
<svg version="1.1" id="Layer_1" xmlns="http://www.w3.org/2000/svg" xmlns:xlink="http://www.w3.org/1999/xlink" x="0px" y="0px"
	 viewBox="0 0 78 63.5" style="enable-background:new 0 0 78 63.5;" xml:space="preserve">
<style type="text/css">
	.st0{fill:#585858;}
</style>
<g>
	<path class="st0" d="M0,47.8C0,50.1,1.9,52,4.3,52l0,0H37v7.5h-6.5c-1.1,0-2,0.9-2,2s0.9,2,2,2h17c1.1,0,2-0.9,2-2s-0.9-2-2-2H41
		V52h32.7c2.4,0,4.3-1.9,4.3-4.3l0,0v-5.2H0V47.8z"/>
	<path class="st0" d="M73.7,0H4.3C1.9,0,0,1.9,0,4.3v34.2h78V4.3C78,1.9,76.1,0,73.7,0L73.7,0z M61.1,7.1c0.8-0.8,2-0.8,2.8,0
		l6.5,6.5c0.8,0.7,0.9,2,0.2,2.8s-2,0.9-2.8,0.2c-0.1-0.1-0.2-0.1-0.2-0.2l-6.5-6.5C60.3,9.1,60.3,7.9,61.1,7.1z M70.9,24.9
		c-0.8,0.8-2,0.8-2.8,0l-15-15c-0.7-0.8-0.6-2.1,0.2-2.8c0.7-0.6,1.9-0.6,2.6,0l15,15C71.7,22.9,71.7,24.1,70.9,24.9z"/>
</g>
</svg>
