<?xml version="1.0" encoding="utf-8"?>
<!-- Generator: Adobe Illustrator 25.1.0, SVG Export Plug-In . SVG Version: 6.00 Build 0)  -->
<svg version="1.1" id="Layer_1" xmlns="http://www.w3.org/2000/svg" xmlns:xlink="http://www.w3.org/1999/xlink" x="0px" y="0px"
	 viewBox="0 0 823.7 672.6" style="enable-background:new 0 0 823.7 672.6;" xml:space="preserve">
<style type="text/css">
	.st0{opacity:0.2;}
	.st1{clip-path:url(#SVGID_2_);}
	.st2{fill:#6C63FF;}
	.st3{clip-path:url(#SVGID_4_);}
	.st4{opacity:0.5;fill:#84D4F7;}
	.st5{opacity:0.6;fill:#FFFFFF;}
	.st6{opacity:0.4;fill:#FFFFFF;}
	.st7{fill:#EDEDF7;}
	.st8{fill:#FFFFFF;}
	.st9{fill:#E4E4F4;}
	.st10{fill:#2F2E41;}
	.st11{fill:none;stroke:#6C63FF;stroke-width:5.5202;stroke-linecap:square;stroke-linejoin:round;stroke-miterlimit:10;}
	.st12{fill:#CFCFE2;}
	.st13{fill:none;stroke:#D9D9ED;stroke-width:4.9974;stroke-miterlimit:10;}
</style>
<g>
	<g>
		<g id="Group_19_3_" transform="translate(72.395)" class="st0">
			<g id="Group_18_3_">
				<g>
					<g>
						<defs>
							<rect id="SVGID_1_" x="14" y="0" width="702.7" height="660.1"/>
						</defs>
						<clipPath id="SVGID_2_">
							<use xlink:href="#SVGID_1_"  style="overflow:visible;"/>
						</clipPath>
						<g id="Group_17_3_" class="st1">
							<path id="Path_193_3_" class="st2" d="M273.3,8C178,44.2,68.7,125.2,22.4,304.6C-6.8,418.1,41.6,538.5,142.9,599
								c81.4,48.7,203.3,81.9,379.7,45.8c108.1-22.1,190.3-112.7,194.1-221.9c2-56.5-16.1-118.6-76.5-176.3
								c-31.6-30.3-61.3-62.6-89.8-95.8C487.4,77.6,373.6-30.2,273.3,8"/>
						</g>
					</g>
				</g>
			</g>
		</g>
		<g id="Group_22_3_" transform="translate(0 64.142)" class="st0">
			<g id="Group_21_3_">
				<g>
					<g>
						<defs>
							<rect id="SVGID_3_" x="17" y="-2.6" width="789.7" height="611.1"/>
						</defs>
						<clipPath id="SVGID_4_">
							<use xlink:href="#SVGID_3_"  style="overflow:visible;"/>
						</clipPath>
						<g id="Group_20_3_" class="st3">
							<path id="Path_194_3_" class="st2" d="M162.5,187.5c0,0-298.7,287.2-40.4,405c73.9,33.7,104.8,8.1,171.1-19.6
								c70.6-29.4,248.4-95.3,314.8-96.4c143.5-2.6,319.6-210.5,82.4-412.8S162.5,187.5,162.5,187.5"/>
						</g>
					</g>
				</g>
			</g>
		</g>
	</g>
	<circle class="st4" cx="169.4" cy="151.4" r="76.7"/>
	<g>
		<path class="st5" d="M789.1,381.6c-0.8-0.2-1.6-0.5-2.4-0.7c-12.8-3.7-26.4-5.7-40.3-5.7c-80.6,0-146.2,65.6-146.2,146.2
			c0,6.6,0.4,13.1,1.3,19.5c4.6,34.3,21.1,64.9,45.2,87.4c6.8-3,13.5-6.4,20-10c-23.5-19.4-39.9-47.1-44.5-78.6
			c-0.9-6-1.3-12.1-1.3-18.3c0-69.2,56.3-125.5,125.5-125.5c15,0,29.3,2.6,42.6,7.5c0,0,0.1,0,0.1,0c1.5,0.6,3,1.1,4.6,1.8
			c2.5-6.4,4.7-13,6.5-19.7C796.5,384,792.8,382.7,789.1,381.6z"/>
		<path class="st6" d="M789.1,334.9c-5.3-1.2-10.7-2.2-16.2-3c-8.7-1.2-17.6-1.9-26.6-1.9c-105.5,0-191.4,85.8-191.4,191.4
			c0,9.1,0.7,18,1.9,26.8c5.1,36.1,20.2,69,42.6,95.7c7.6-1.7,15-3.7,22.2-6.1c-23.6-25.3-39.7-57.8-44.5-93.8
			c-1-7.4-1.5-15-1.5-22.7c0-94.1,76.6-170.7,170.7-170.7c11.8,0,23.3,1.2,34.5,3.5c2.8,0.6,5.6,1.2,8.3,1.9c5.4,1.4,10.8,3.1,16,5
			c0.9-6.7,1.5-13.6,1.6-20.6v-0.8C800.9,337.9,795.1,336.2,789.1,334.9z"/>
	</g>
	<g>
		<g>
			<rect x="249.1" y="465.5" class="st7" width="49.7" height="51.4"/>
			<path class="st7" d="M273.9,513.9c-7.2,4.1-15.4,6.4-24.2,6.3c-27.1-0.1-48.7-22.7-48.7-49.8V278.9c0-12.8,10.4-23.2,23.2-23.2
				h25v215.6c0,2.7,0.2,5.3,0.6,7.9C252.2,494.1,261.3,506.8,273.9,513.9z"/>
		</g>
		<path class="st8" d="M622.7,192v279.4c0,27-21.9,48.9-48.9,48.9h-324c8.8,0,17-2.3,24.1-6.3c12.6-7.1,21.7-19.7,24.2-34.6
			c0.4-2.6,0.7-5.3,0.7-8V192c0-12.8,10.4-23.2,23.2-23.2h277.6C612.3,168.8,622.7,179.2,622.7,192z"/>
		<path class="st9" d="M298.8,212.3v259.1c0,2.7-0.2,5.4-0.7,8c-1.2,7.1-3.9,13.7-7.8,19.4c-7.9,11.6-24.9,11.6-32.8,0
			c-3.9-5.7-6.6-12.4-7.8-19.5c-0.4-2.6-0.6-5.2-0.6-7.9V235.4c0-12.8,10.4-23.2,23.2-23.2H298.8z"/>
		<g>
			<path class="st10" d="M383.9,191.1v70.6c0,1.8-1.3,3.3-3,3.3h-12.2c-1,0-1.9-0.6-2.5-1.5l-25.9-43.8c-0.4-0.7-1.4-0.4-1.4,0.5
				v41.5c0,1.8-1.3,3.3-3,3.3h-10.9c-1.7,0-3-1.5-3-3.3v-70.6c0-1.8,1.3-3.3,3-3.3h12.2c1,0,1.9,0.6,2.5,1.5l25.9,44
				c0.4,0.7,1.4,0.4,1.4-0.5v-41.7c0-1.8,1.3-3.3,3-3.3H381C382.6,187.7,383.9,189.2,383.9,191.1z"/>
			<path class="st10" d="M435.5,202.8H416c-1.7,0-3,1.5-3,3.3v8.9c0,1.8,1.3,3.3,3,3.3h16.6c1.7,0,3,1.5,3,3.3v7.8
				c0,1.8-1.3,3.3-3,3.3H416c-1.7,0-3,1.5-3,3.3v10.3c0,1.8,1.3,3.3,3,3.3h19.5c1.7,0,3,1.5,3,3.3v8.4c0,1.8-1.3,3.3-3,3.3h-36.4
				c-1.7,0-3-1.5-3-3.3v-70.6c0-1.8,1.3-3.3,3-3.3h36.4c1.7,0,3,1.5,3,3.3v8.4C438.5,201.3,437.2,202.8,435.5,202.8z"/>
			<path class="st10" d="M449.7,187.7h11.7c1.4,0,2.7,1.1,2.9,2.7l8.8,49.7c0.2,0.9,1.3,0.9,1.5,0l10.9-49.9
				c0.3-1.5,1.5-2.6,2.9-2.6h13.8c1.4,0,2.6,1.1,2.9,2.6l10.5,49.8c0.2,0.9,1.4,0.9,1.5,0l8.9-49.7c0.3-1.6,1.5-2.7,2.9-2.7h11.8
				c2,0,3.4,2.1,2.9,4.2l-16.5,70.6c-0.3,1.5-1.5,2.5-2.9,2.5h-15.7c-1.4,0-2.6-1.1-2.9-2.6l-9.7-44.9c-0.2-0.9-1.3-0.9-1.5,0
				l-10.1,44.9c-0.3,1.5-1.5,2.5-2.9,2.5h-15.7c-1.4,0-2.6-1-2.9-2.5l-16-70.6C446.3,189.8,447.7,187.7,449.7,187.7z"/>
			<path class="st10" d="M578.1,265.8c-13.6,0-24.4-6.9-26.6-19.9c-0.3-2.1,1.1-4,3-4h12.1c1.3,0,2.5,1,2.9,2.4
				c1.1,4.3,4.1,6.4,8.2,6.4c4.9,0,8.1-2.8,8.1-7.3c0-14.3-34.6-6.6-34.4-34c0-14.7,10.7-22.8,25.2-22.8c13.6,0,23.2,6.8,25.5,19.1
				c0.4,2.1-1,4.1-2.9,4.1h-12.4c-1.3,0-2.4-0.9-2.8-2.3c-1-3.6-3.8-5.7-7.6-5.8c-4-0.1-7.1,2.2-7.1,7.1c0,13.4,34.2,7.4,34.2,33.3
				C603.4,255,594.3,265.8,578.1,265.8z"/>
		</g>
		<g>
			<line class="st11" x1="321.2" y1="287.2" x2="396.5" y2="287.2"/>
			<line class="st11" x1="321.2" y1="318.5" x2="396.5" y2="318.5"/>
			<line class="st11" x1="321.2" y1="349.7" x2="396.5" y2="349.7"/>
			<line class="st11" x1="321.2" y1="381" x2="396.5" y2="381"/>
			<line class="st11" x1="321.2" y1="412.2" x2="396.5" y2="412.2"/>
			<line class="st11" x1="524.4" y1="287.2" x2="599.7" y2="287.2"/>
			<line class="st11" x1="524.4" y1="318.5" x2="599.7" y2="318.5"/>
			<line class="st11" x1="524.4" y1="349.7" x2="599.7" y2="349.7"/>
			<line class="st11" x1="524.4" y1="381" x2="599.7" y2="381"/>
			<line class="st11" x1="524.4" y1="412.2" x2="599.7" y2="412.2"/>
			<line class="st11" x1="321.2" y1="443.5" x2="599.7" y2="443.5"/>
			<line class="st11" x1="320.3" y1="474.8" x2="597.2" y2="474.8"/>
			<line class="st11" x1="309.6" y1="501.1" x2="578.1" y2="501.1"/>
		</g>
		<g>
			<path class="st12" d="M502.8,282.3h-84.7c-2.1,0-3.8,1.7-3.8,3.8v127.4c0,2.1,1.7,3.8,3.8,3.8h84.7c2.1,0,3.8-1.7,3.8-3.8V286
				C506.6,283.9,504.9,282.3,502.8,282.3z"/>
			<path class="st10" d="M467.5,371.6c12.1-3.1,21-14.2,21-27.3c-0.1-14.7-11.9-27.1-26.5-27.9c-16.2-0.8-29.6,12-29.6,28
				c0,13.1,8.9,24,21,27.2c-20.5,3.1-36.5,19.8-38.8,40.6c-0.3,2.7,1.8,5,4.5,5h82.7c2.7,0,4.7-2.3,4.5-5
				C504.1,391.4,488,374.8,467.5,371.6z"/>
		</g>
		<g>
			<path class="st13" d="M273.9,513.9c-7.2,4.1-15.4,6.4-24.2,6.3c-27.1-0.1-48.7-22.7-48.7-49.8v-31"/>
			<path class="st13" d="M298.8,300.8v170.6c0,2.7-0.2,5.4-0.7,8c-2.4,14.8-11.6,27.4-24.2,34.6c-7.1,4-15.3,6.3-24.1,6.3h213.5"/>
		</g>
		<path class="st13" d="M249.9,403.9V235.4c0,0-1.2-23.2,22.4-23.2h26.5"/>
	</g>
</g>
</svg>
