<?xml version="1.0" encoding="utf-8"?>
<!-- Generator: Adobe Illustrator 25.2.3, SVG Export Plug-In . SVG Version: 6.00 Build 0)  -->
<svg version="1.1" id="Layer_1" xmlns="http://www.w3.org/2000/svg" xmlns:xlink="http://www.w3.org/1999/xlink" x="0px" y="0px"
	 viewBox="0 0 24 24" style="enable-background:new 0 0 24 24;" xml:space="preserve">
<style type="text/css">
	.st0{fill:#585858;}
</style>
<path class="st0" d="M22.2,1.8C21.1,0.6,19.5,0,18,0s-3.1,0.6-4.2,1.8l-12,12c-2.3,2.3-2.3,6.1,0,8.5C2.9,23.4,4.5,24,6,24
	s3.1-0.6,4.2-1.8l12-12C24.6,7.9,24.6,4.1,22.2,1.8z M3.9,20.1l-0.7,0.7c-1.6-1.6-1.6-4.1,0-5.7l0.7,0.7C2.7,17,2.7,19,3.9,20.1z
	 M21.2,9.2l-6,6L8.8,8.8l6-6c0.9-0.8,2-1.3,3.2-1.3s2.3,0.5,3.2,1.3C22.9,4.6,22.9,7.4,21.2,9.2z"/>
</svg>
