<?xml version="1.0" encoding="utf-8"?>
<!-- Generator: Adobe Illustrator 25.2.3, SVG Export Plug-In . SVG Version: 6.00 Build 0)  -->
<svg version="1.1" id="Layer_1" xmlns="http://www.w3.org/2000/svg" xmlns:xlink="http://www.w3.org/1999/xlink" x="0px" y="0px"
	 viewBox="0 0 823.7 672.6" style="enable-background:new 0 0 823.7 672.6;" xml:space="preserve">
<style type="text/css">
	.st0{opacity:0.2;}
	.st1{clip-path:url(#SVGID_2_);}
	.st2{fill:#6C63FF;}
	.st3{clip-path:url(#SVGID_4_);}
	.st4{fill:#FAFAFA;}
	.st5{fill:#9F9FFF;}
	.st6{fill:#E4E4F4;}
	.st7{clip-path:url(#SVGID_6_);}
	.st8{fill:#2F2E41;}
	.st9{clip-path:url(#SVGID_8_);}
	.st10{fill:#EDEDF7;}
	.st11{opacity:0.7;fill:#FFFFFF;}
	.st12{opacity:0.5;fill:#FFFFFF;}
	.st13{opacity:0.5;fill:#84D4F7;}
	.st14{clip-path:url(#SVGID_10_);}
	.st15{fill:#5E59F8;}
	.st16{clip-path:url(#SVGID_12_);}
	.st17{opacity:0.5;fill:#6BCDF2;enable-background:new    ;}
	.st18{opacity:0.6;fill:#FFFFFF;enable-background:new    ;}
	.st19{opacity:0.4;fill:#FFFFFF;enable-background:new    ;}
	.st20{fill:#E9E9F4;}
	.st21{fill:#FFFFFF;}
	.st22{fill:#DFDFF0;}
	.st23{fill:#292938;}
	.st24{fill:none;stroke:#5E59F8;stroke-width:5.5202;stroke-linecap:square;stroke-linejoin:round;stroke-miterlimit:10;}
	.st25{fill:#C7C8DC;}
	.st26{fill:none;stroke:#D2D3E8;stroke-width:4.9974;stroke-miterlimit:10;}
</style>
<g>
	<g>
		<g id="Group_19_2_" transform="translate(72.395)" class="st0">
			<g id="Group_18_2_">
				<g>
					<g>
						<defs>
							<rect id="SVGID_1_" x="14" y="0" width="702.6" height="660.1"/>
						</defs>
						<clipPath id="SVGID_2_">
							<use xlink:href="#SVGID_1_"  style="overflow:visible;"/>
						</clipPath>
						<g id="Group_17_2_" class="st1">
							<path id="Path_193_2_" class="st2" d="M273.3,8C178.1,44.2,68.8,125.2,22.5,304.6C-6.8,418.1,41.6,538.5,142.9,599
								c81.4,48.7,203.3,81.9,379.6,45.8c108.1-22.1,190.3-112.6,194.1-221.9c2-56.5-16.1-118.6-76.5-176.3
								c-31.6-30.3-61.3-62.6-89.8-95.8C487.4,77.6,373.6-30.2,273.3,8"/>
						</g>
					</g>
				</g>
			</g>
		</g>
		<g id="Group_22_2_" transform="translate(0 64.142)" class="st0">
			<g id="Group_21_2_">
				<g>
					<g>
						<defs>
							<rect id="SVGID_3_" x="17" y="-2.6" width="789.7" height="611.1"/>
						</defs>
						<clipPath id="SVGID_4_">
							<use xlink:href="#SVGID_3_"  style="overflow:visible;"/>
						</clipPath>
						<g id="Group_20_2_" class="st3">
							<path id="Path_194_2_" class="st2" d="M162.5,187.5c0,0-298.7,287.2-40.4,404.9c73.9,33.7,104.8,8.1,171.1-19.6
								c70.6-29.4,248.4-95.3,314.7-96.4c143.5-2.6,319.6-210.5,82.4-412.8S162.5,187.5,162.5,187.5"/>
						</g>
					</g>
				</g>
			</g>
		</g>
	</g>
	<g>
		<path class="st4" d="M567.9,577.5h43.4v-45.1h-43.4c-12.4,0-22.6,10.2-22.6,22.6C545.4,567.4,555.5,577.5,567.9,577.5z"/>
		<path class="st5" d="M654.7,577.5c12.4,0,22.6-10.2,22.6-22.6c0-12.4-10.2-22.6-22.6-22.6h-43.4v45.1H654.7z"/>
	</g>
	<path class="st6" d="M487.9,228.8H302.7v306.1c0,11.8,9.5,21.3,21.3,21.3h163.6c0.1,0,0.1,0,0.2,0c0-0.6,0.1-1.2,0.1-1.7V228.8z"/>
	<path class="st2" d="M487.9,250.4v-22.2H281.7v326.2c0,11.8,9.5,21.3,21.3,21.3h163.6c11.2,0,20.3-8.6,21.2-19.6
		c-0.1,0-0.1,0-0.2,0H324c-11.8,0-21.3-9.5-21.3-21.3V268.5c0-10,8.1-18.1,18.1-18.1H487.9z"/>
	<path class="st4" d="M487.9,517.5h-146c-10,0-18.2-8.1-18.2-18.2V305.2c0-10,8.1-18.2,18.2-18.2h146V517.5z"/>
	<g>
		<path class="st5" d="M497.5,205.6H272.2c-6.4,0-11.6,5.2-11.6,11.6v0c0,6.4,5.2,11.6,11.6,11.6h225.3c6.4,0,11.6-5.2,11.6-11.6v0
			C509.1,210.8,503.9,205.6,497.5,205.6z"/>
	</g>
	<g>
		<defs>
			<path id="SVGID_5_" d="M487.9,398H334.6c-6,0-10.9-4.9-10.9-10.9v-60.9c0-6,4.9-10.9,10.9-10.9h153.3V398z"/>
		</defs>
		<clipPath id="SVGID_6_">
			<use xlink:href="#SVGID_5_"  style="overflow:visible;"/>
		</clipPath>
		<g class="st7">
			<path class="st8" d="M353.3,322.7h13.1c0.6,0,1.1,0.3,1.3,0.9l13.4,33c0.5,1.2,2.1,1.2,2.6,0l13.2-33c0.2-0.5,0.7-0.9,1.3-0.9h13
				c0.8,0,1.4,0.6,1.4,1.4v50.8c0,0.8-0.6,1.4-1.4,1.4H401c-0.8,0-1.4-0.6-1.4-1.4v-22.9c0-1.6-2.2-2-2.7-0.5l-8.9,23.9
				c-0.2,0.6-0.7,0.9-1.3,0.9H378c-0.6,0-1.1-0.4-1.3-0.9l-9-24c-0.5-1.5-2.7-1.1-2.7,0.5v23c0,0.8-0.6,1.4-1.4,1.4h-10.2
				c-0.8,0-1.4-0.6-1.4-1.4v-50.8C351.9,323.3,352.5,322.7,353.3,322.7z"/>
			<path class="st8" d="M453.4,333.1h-17c-0.8,0-1.4,0.6-1.4,1.4v8c0,0.8,0.6,1.4,1.4,1.4h14.7c0.8,0,1.4,0.6,1.4,1.4v7.3
				c0,0.8-0.6,1.4-1.4,1.4h-14.7c-0.8,0-1.4,0.6-1.4,1.4v8.9c0,0.8,0.6,1.4,1.4,1.4h17c0.8,0,1.4,0.6,1.4,1.4v7.6
				c0,0.8-0.6,1.4-1.4,1.4h-30c-0.8,0-1.4-0.6-1.4-1.4v-50.8c0-0.8,0.6-1.4,1.4-1.4h30c0.8,0,1.4,0.6,1.4,1.4v7.6
				C454.8,332.5,454.2,333.1,453.4,333.1z"/>
			<path class="st8" d="M511.5,349.5c0,15.9-11,26.8-28.1,26.8h-18.7c-0.8,0-1.4-0.6-1.4-1.4v-50.8c0-0.8,0.6-1.4,1.4-1.4h18.7
				C500.5,322.7,511.5,333.5,511.5,349.5z M482.6,365c8,0,13.4-3.8,15.1-10.5c2.7-10.5-5.8-20.7-16.7-20.7h-3.2
				c-0.8,0-1.4,0.6-1.4,1.4v28.3c0,0.8,0.6,1.4,1.4,1.4H482.6z"/>
		</g>
	</g>
	<g>
		<path class="st2" d="M357.8,458.7H354v-6.1h10.7v28.1h-6.9V458.7z"/>
		<path class="st2" d="M368.9,475.4c6-4.9,12.3-9.8,12.3-14.6c0-2-0.9-3.4-2.9-3.4c-2,0-3.1,1.5-3.1,4.2h-6.4
			c0.2-6.8,4.6-9.8,9.8-9.8c6.4,0,9.2,3.7,9.2,8.5c0,6.2-5.5,11.1-10,14.5h10.4v5.4h-19.3V475.4z"/>
		<path class="st2" d="M421.4,469c0-2.8-1.6-4.4-4.1-4.4c-2.5,0-4.1,1.5-4.1,4.4v11.7h-6.6V469c0-2.8-1.6-4.4-4.1-4.4
			c-2.5,0-4.1,1.5-4.1,4.4v11.7h-6.6v-21.5h6.6v2.7c1.3-1.7,3.5-2.9,6.3-2.9c3.2,0,5.9,1.4,7.3,4c1.4-2.3,4.1-4,7.2-4
			c5.3,0,8.7,3.4,8.7,9.2v12.6h-6.6V469z"/>
		<path class="st2" d="M440.8,458.9c3.2,0,5.5,1.4,6.6,3.4v-3h6.6v21.5c0,5.7-3.3,10.6-10.8,10.6c-6.4,0-10.6-3.2-11.1-8.4h6.5
			c0.4,1.6,2,2.7,4.3,2.7c2.5,0,4.5-1.3,4.5-4.9v-3c-1.2,1.9-3.5,3.4-6.6,3.4c-5.3,0-9.5-4.3-9.5-11.1
			C431.3,463.1,435.5,458.9,440.8,458.9z M442.7,464.6c-2.5,0-4.7,1.8-4.7,5.3s2.2,5.4,4.7,5.4c2.5,0,4.7-1.9,4.7-5.3
			C447.4,466.5,445.2,464.6,442.7,464.6z"/>
	</g>
	<g>
		<path class="st4" d="M224.6,347l-41.4,186.4c-0.9,4.1,1.7,8.2,5.8,9.1l44,9.8L277.7,351l-44-9.8
			C229.6,340.3,225.5,342.9,224.6,347z"/>
		<path class="st4" d="M221.8,359.6L186,520.7l-12.6-2.8c-7.2-1.6-11.7-8.7-10.1-15.9l30-135.1c1.6-7.2,8.7-11.7,15.9-10.1
			L221.8,359.6z"/>
		<path class="st4" d="M279.7,341.7l-48.9,219.9c-1.4,6.3,2.6,12.5,8.8,13.9h0c6.3,1.4,12.5-2.6,13.9-8.8l48.9-219.9
			c1.4-6.3-2.6-12.5-8.8-13.9l0,0C287.3,331.4,281.1,335.4,279.7,341.7z"/>
		<g>
			
				<rect x="207.2" y="506.8" transform="matrix(0.217 -0.9762 0.9762 0.217 -355.8427 622.6113)" class="st6" width="6" height="52.7"/>
			
				<rect x="210.4" y="492.2" transform="matrix(0.217 -0.9762 0.9762 0.217 -339.1217 614.3832)" class="st6" width="6" height="52.7"/>
			
				<rect x="213.6" y="477.7" transform="matrix(0.217 -0.9762 0.9762 0.217 -322.4018 606.1562)" class="st6" width="6" height="52.7"/>
			
				<rect x="216.9" y="463.2" transform="matrix(0.217 -0.9762 0.9762 0.217 -305.6808 597.9282)" class="st6" width="6" height="52.7"/>
			
				<rect x="220.1" y="448.6" transform="matrix(0.217 -0.9762 0.9762 0.217 -288.961 589.701)" class="st6" width="6" height="52.7"/>
			
				<rect x="223.3" y="434.1" transform="matrix(0.217 -0.9762 0.9762 0.217 -272.24 581.473)" class="st6" width="6" height="52.7"/>
			
				<rect x="226.6" y="419.6" transform="matrix(0.217 -0.9762 0.9762 0.217 -255.5201 573.2459)" class="st6" width="6" height="52.7"/>
			
				<rect x="229.8" y="405" transform="matrix(0.217 -0.9762 0.9762 0.217 -238.7991 565.0179)" class="st6" width="6" height="52.7"/>
			
				<rect x="233" y="390.5" transform="matrix(0.217 -0.9762 0.9762 0.217 -222.0793 556.7908)" class="st6" width="6" height="52.7"/>
			
				<rect x="236.3" y="376" transform="matrix(0.217 -0.9762 0.9762 0.217 -205.3582 548.5627)" class="st6" width="6" height="52.7"/>
			
				<rect x="239.5" y="361.4" transform="matrix(0.217 -0.9762 0.9762 0.217 -188.6384 540.3356)" class="st6" width="6" height="52.7"/>
			
				<rect x="242.7" y="346.9" transform="matrix(0.217 -0.9762 0.9762 0.217 -171.9174 532.1076)" class="st6" width="6" height="52.7"/>
			
				<rect x="245.9" y="332.3" transform="matrix(0.2169 -0.9762 0.9762 0.2169 -155.1816 523.9197)" class="st6" width="6" height="52.7"/>
		</g>
	</g>
	<path class="st5" d="M480.6,166.1H289c-4,0-7.3,3.3-7.3,7.3v32.2h206.2v-32.2C487.9,169.4,484.6,166.1,480.6,166.1z"/>
	<g>
		<defs>
			<path id="SVGID_7_" d="M480.6,166.1H289c-4,0-7.3,3.3-7.3,7.3v32.2h206.2v-32.2C487.9,169.4,484.6,166.1,480.6,166.1z"/>
		</defs>
		<clipPath id="SVGID_8_">
			<use xlink:href="#SVGID_7_"  style="overflow:visible;"/>
		</clipPath>
		<g class="st9">
			
				<rect x="279.8" y="209.3" transform="matrix(0.9822 -0.1879 0.1879 0.9822 -33.1809 76.1076)" class="st2" width="209.9" height="7.5"/>
			
				<rect x="279.8" y="191.1" transform="matrix(0.9822 -0.1879 0.1879 0.9822 -29.7734 75.7845)" class="st2" width="209.9" height="7.5"/>
			
				<rect x="279.8" y="173" transform="matrix(0.9822 -0.1879 0.1879 0.9822 -26.3659 75.4615)" class="st2" width="209.9" height="7.5"/>
			
				<rect x="279.8" y="154.9" transform="matrix(0.9822 -0.1879 0.1879 0.9822 -22.9584 75.1384)" class="st2" width="209.9" height="7.5"/>
		</g>
	</g>
	<g>
		<path class="st10" d="M577,477.6l-30.7,30.7l31.9,31.9l30.7-30.7c8.8-8.8,8.8-23.1,0-31.9C600.2,468.9,585.8,468.9,577,477.6z"/>
		<path class="st2" d="M515.7,539c-8.8,8.8-8.8,23.1,0,31.9c8.8,8.8,23.1,8.8,31.9,0l30.7-30.7l-31.9-31.9L515.7,539z"/>
	</g>
	<g>
		<path class="st11" d="M789.1,377.9c-0.9,0.3-1.8,0.6-2.8,0.8c-10.2,3-20.9,4.6-32.1,4.6c-63.3,0-114.8-51.5-114.8-114.8
			c0-26.9,9.3-51.6,24.8-71.2c14.8-18.6,35.2-32.6,58.7-39.3c-4.8-5-9.9-10-15.3-14.9c-22.1,8.2-41.5,22.2-56.4,40.1
			c-19.2,23.2-30.8,52.9-30.8,85.3c0,73.7,60,133.7,133.7,133.7c11.9,0,23.4-1.6,34.3-4.5c0.2,0,0.3-0.1,0.5-0.1
			c2.7-0.7,5.5-1.6,8.1-2.5c2.5-7.4,4.5-15,6-22.8C798.7,374.5,794,376.4,789.1,377.9z"/>
		<path class="st12" d="M754.3,424.6c-86.1,0-156.1-70-156.1-156.1c0-39,14.4-74.7,38.1-102.1c14.5-16.7,32.5-30.3,52.8-39.7
			c-5.5-4.6-10.9-8.9-16.4-13c-18.5,9.8-35.1,22.8-48.9,38.3c-27.7,31-44.5,71.8-44.5,116.5c0,96.5,78.5,175,175,175
			c6.8,0,13.5-0.4,20.1-1.2c4.5-0.5,9-1.2,13.4-2.1c0.6-5.7,1.1-11.5,1.3-17.4v-2.2c-0.9,0.2-1.7,0.4-2.6,0.6
			C776.1,423.5,765.3,424.6,754.3,424.6z"/>
	</g>
	<circle class="st13" cx="711.9" cy="166.1" r="91.4"/>
</g>
<g>
	<g>
		<g id="Group_19_3_" transform="translate(72.395)" class="st0">
			<g id="Group_18_3_">
				<g>
					<g>
						<g>
							<defs>
								<rect id="SVGID_9_" x="-811.4" y="556.2" width="566.4" height="532"/>
							</defs>
							<clipPath id="SVGID_10_">
								<use xlink:href="#SVGID_9_"  style="overflow:visible;"/>
							</clipPath>
							<g id="Group_17_3_" class="st14">
								<path id="Path_193_3_" class="st15" d="M-602.4,562.6c-76.8,29.2-164.9,94.5-202.2,239.1c-23.6,91.5,15.5,188.6,97.1,237.3
									c65.6,39.3,163.9,66,306,36.9C-314.3,1058-248.1,985.1-245,897c1.6-45.5-13-95.6-61.7-142.1c-25.5-24.4-49.4-50.5-72.4-77.2
									C-429.8,618.7-521.5,531.8-602.4,562.6"/>
							</g>
						</g>
					</g>
				</g>
			</g>
		</g>
		<g id="Group_22_3_" transform="translate(0 64.142)" class="st0">
			<g id="Group_21_3_">
				<g>
					<g>
						<g>
							<defs>
								<rect id="SVGID_11_" x="-795" y="541.6" width="636.5" height="492.6"/>
							</defs>
							<clipPath id="SVGID_12_">
								<use xlink:href="#SVGID_11_"  style="overflow:visible;"/>
							</clipPath>
							<g id="Group_20_3_" class="st16">
								<path id="Path_194_3_" class="st15" d="M-677.7,694.8c0,0-240.8,231.5-32.5,326.4c59.6,27.2,84.5,6.6,137.9-15.8
									c56.9-23.7,200.2-76.8,253.7-77.7C-202.9,925.6-61,758-252.2,595S-677.7,694.8-677.7,694.8"/>
							</g>
						</g>
					</g>
				</g>
			</g>
		</g>
	</g>
	<circle class="st17" cx="-672.1" cy="678.2" r="61.8"/>
	<g>
		<path class="st18" d="M-172.7,863.7c-0.6-0.2-1.3-0.4-2-0.6c-10.3-3-21.2-4.6-32.5-4.6c-65,0-117.9,52.9-117.9,117.9
			c0,5.3,0.4,10.6,1,15.7c3.7,27.6,17,52.3,36.5,70.4c5.5-2.4,10.9-5.1,16.1-8c-19-15.6-32.1-38-35.9-63.4
			c-0.7-4.8-1.1-9.7-1.1-14.7c0-55.8,45.4-101.2,101.2-101.2c12.1,0,23.6,2.1,34.4,6h0.1c1.2,0.4,2.5,0.9,3.7,1.4
			c2-5.2,3.8-10.5,5.3-15.9C-166.7,865.7-169.6,864.7-172.7,863.7z"/>
		<path class="st19" d="M-172.7,826.1c-4.3-1-8.6-1.8-13.1-2.4c-7-1-14.2-1.5-21.4-1.5c-85,0-154.2,69.2-154.2,154.2
			c0,7.3,0.5,14.5,1.5,21.6c4.1,29.1,16.3,55.6,34.3,77.1c6.1-1.4,12.1-3,17.9-4.9c-19.1-20.4-32-46.6-35.9-75.6
			c-0.8-6-1.2-12.1-1.2-18.3c0-75.8,61.7-137.6,137.6-137.6c9.5,0,18.8,1,27.8,2.8c2.3,0.5,4.5,1,6.7,1.6c4.4,1.1,8.7,2.5,12.9,4
			c0.7-5.4,1.2-11,1.3-16.6v-0.6C-163.1,828.5-167.8,827.2-172.7,826.1z"/>
	</g>
	<g>
		<g>
			<rect x="-607.9" y="931.4" class="st20" width="40" height="41.4"/>
			<path class="st20" d="M-587.9,970.4c-5.8,3.3-12.4,5.1-19.5,5.1c-21.8-0.1-39.3-18.3-39.3-40.2V781c0-10.3,8.4-18.7,18.7-18.7
				h20.1v173.8c0,2.2,0.2,4.3,0.5,6.4C-605.4,954.5-598,964.6-587.9,970.4z"/>
		</g>
		<path class="st21" d="M-306.7,710.9v225.2c0,21.8-17.6,39.4-39.4,39.4h-261.1c7.1,0,13.7-1.9,19.4-5.1
			c10.2-5.8,17.5-15.9,19.5-27.8c0.3-2.1,0.5-4.3,0.5-6.5V710.9c0-10.3,8.4-18.7,18.7-18.7h223.8
			C-315.1,692.2-306.7,700.6-306.7,710.9z"/>
		<path class="st22" d="M-567.8,727.3v208.8c0,2.2-0.2,4.4-0.5,6.5c-0.9,5.7-3.1,11-6.3,15.7c-6.3,9.3-20.1,9.3-26.4,0
			c-3.1-4.6-5.3-10-6.3-15.7c-0.3-2.1-0.5-4.2-0.5-6.4V745.9c0-10.3,8.4-18.7,18.7-18.7L-567.8,727.3L-567.8,727.3z"/>
		<g>
			<path class="st23" d="M-499.2,710.2v56.9c0,1.5-1.1,2.7-2.4,2.7h-9.9c-0.8,0-1.6-0.5-2-1.2l-20.8-35.3c-0.3-0.6-1.2-0.3-1.2,0.4
				v33.4c0,1.5-1.1,2.7-2.4,2.7h-8.8c-1.3,0-2.4-1.2-2.4-2.7v-56.9c0-1.5,1.1-2.7,2.4-2.7h9.9c0.8,0,1.6,0.5,2,1.2l20.8,35.5
				c0.3,0.6,1.2,0.3,1.2-0.4v-33.6c0-1.5,1.1-2.7,2.4-2.7h8.8C-500.3,707.5-499.2,708.7-499.2,710.2z"/>
			<path class="st23" d="M-457.6,719.7h-15.7c-1.3,0-2.4,1.2-2.4,2.7v7.2c0,1.5,1.1,2.7,2.4,2.7h13.4c1.3,0,2.4,1.2,2.4,2.7v6.3
				c0,1.5-1.1,2.7-2.4,2.7h-13.4c-1.3,0-2.4,1.2-2.4,2.7v8.3c0,1.5,1.1,2.7,2.4,2.7h15.7c1.3,0,2.4,1.2,2.4,2.7v6.8
				c0,1.5-1.1,2.7-2.4,2.7h-29.3c-1.3,0-2.4-1.2-2.4-2.7v-56.9c0-1.5,1.1-2.7,2.4-2.7h29.3c1.3,0,2.4,1.2,2.4,2.7v6.8
				C-455.2,718.5-456.3,719.7-457.6,719.7z"/>
			<path class="st23" d="M-446.2,707.5h9.4c1.2,0,2.1,0.9,2.4,2.2l7.1,40.1c0.1,0.7,1.1,0.8,1.2,0l8.8-40.2c0.3-1.2,1.2-2.1,2.3-2.1
				h11.1c1.1,0,2.1,0.9,2.3,2.1l8.4,40.1c0.2,0.7,1.1,0.7,1.2,0l7.1-40c0.2-1.3,1.2-2.2,2.4-2.2h9.5c1.6,0,2.7,1.7,2.3,3.4
				l-13.3,56.9c-0.3,1.2-1.2,2-2.3,2H-399c-1.1,0-2.1-0.9-2.3-2.1l-7.8-36.2c-0.2-0.7-1.1-0.7-1.2,0l-8.1,36.2c-0.3,1.2-1.2,2-2.3,2
				h-12.7c-1.1,0-2.1-0.8-2.3-2l-12.9-56.9C-448.9,709.2-447.8,707.5-446.2,707.5z"/>
			<path class="st23" d="M-342.7,770.5c-10.9,0-19.7-5.5-21.4-16.1c-0.3-1.7,0.9-3.2,2.4-3.2h9.8c1.1,0,2,0.8,2.3,1.9
				c0.9,3.5,3.3,5.2,6.6,5.2c4,0,6.5-2.2,6.5-5.9c0-11.5-27.9-5.3-27.7-27.4c0-11.8,8.7-18.4,20.3-18.4c11,0,18.7,5.5,20.5,15.4
				c0.3,1.7-0.8,3.3-2.4,3.3h-10c-1,0-2-0.7-2.3-1.8c-0.8-2.9-3.1-4.6-6.1-4.6c-3.3-0.1-5.7,1.8-5.7,5.7c0,10.8,27.6,5.9,27.6,26.8
				C-322.3,761.7-329.6,770.5-342.7,770.5z"/>
		</g>
		<g>
			<line class="st24" x1="-549.7" y1="787.7" x2="-489.1" y2="787.7"/>
			<line class="st24" x1="-549.7" y1="812.9" x2="-489.1" y2="812.9"/>
			<line class="st24" x1="-549.7" y1="838.1" x2="-489.1" y2="838.1"/>
			<line class="st24" x1="-549.7" y1="863.2" x2="-489.1" y2="863.2"/>
			<line class="st24" x1="-549.7" y1="888.4" x2="-489.1" y2="888.4"/>
			<line class="st24" x1="-386" y1="787.7" x2="-325.3" y2="787.7"/>
			<line class="st24" x1="-386" y1="812.9" x2="-325.3" y2="812.9"/>
			<line class="st24" x1="-386" y1="838.1" x2="-325.3" y2="838.1"/>
			<line class="st24" x1="-386" y1="863.2" x2="-325.3" y2="863.2"/>
			<line class="st24" x1="-386" y1="888.4" x2="-325.3" y2="888.4"/>
			<line class="st24" x1="-549.7" y1="913.6" x2="-325.3" y2="913.6"/>
			<line class="st24" x1="-550.5" y1="938.8" x2="-327.3" y2="938.8"/>
			<line class="st24" x1="-559.1" y1="960" x2="-342.7" y2="960"/>
		</g>
		<g>
			<path class="st25" d="M-404.1,783.7h-66.8c-2.1,0-3.8,1.7-3.8,3.8v101.2c0,2.1,1.7,3.8,3.8,3.8h66.8c2.1,0,3.8-1.7,3.8-3.8V787.4
				C-400.4,785.4-402,783.7-404.1,783.7z"/>
			<path class="st23" d="M-431.8,855.7c9.8-2.5,17-11.4,16.9-22c0-11.9-9.6-21.9-21.4-22.5c-13-0.7-23.8,9.7-23.8,22.6
				c0,10.5,7.2,19.4,16.9,21.9c-16.5,2.5-29.4,15.9-31.2,32.7c-0.2,2.1,1.4,4,3.6,4h66.7c2.2,0,3.8-1.9,3.6-4
				C-402.4,871.7-415.3,858.3-431.8,855.7z"/>
		</g>
		<g>
			<path class="st26" d="M-587.9,970.4c-5.8,3.3-12.4,5.1-19.5,5.1c-21.8-0.1-39.3-18.3-39.3-40.2v-25"/>
			<path class="st26" d="M-567.8,798.6v137.5c0,2.2-0.2,4.4-0.5,6.5c-2,12-9.3,22.1-19.5,27.8c-5.7,3.3-12.3,5.1-19.4,5.1h172.1"/>
		</g>
		<path class="st26" d="M-607.2,881.7V745.9c0,0-1-18.7,18.1-18.7h21.3"/>
	</g>
	<circle class="st17" cx="-410.4" cy="205.6" r="61.8"/>
</g>
</svg>
