<?xml version="1.0" encoding="utf-8"?>
<!-- Generator: Adobe Illustrator 25.2.3, SVG Export Plug-In . SVG Version: 6.00 Build 0)  -->
<svg version="1.1" id="Layer_1" xmlns="http://www.w3.org/2000/svg" xmlns:xlink="http://www.w3.org/1999/xlink" x="0px" y="0px"
	 viewBox="0 0 200 200" style="enable-background:new 0 0 200 200;" xml:space="preserve">
<style type="text/css">
	.st0{fill:none;stroke:#898989;stroke-width:5;stroke-miterlimit:10;}
</style>
<path class="st0" d="M195.4,100c0,30.4-14.2,57.5-36.4,75c-16.2,12.8-36.8,20.4-59.1,20.4c-22.3,0-42.8-7.6-59.1-20.4
	c-22.2-17.5-36.4-44.6-36.4-75C4.6,47.3,47.3,4.6,100,4.6C152.7,4.6,195.4,47.3,195.4,100z"/>
<circle class="st0" cx="100" cy="97" r="29.3"/>
<path class="st0" d="M159.1,175c-16.2,12.8-36.8,20.4-59.1,20.4c-22.3,0-42.8-7.6-59.1-20.4c5.3-27.7,29.8-48.7,59.1-48.7
	C129.3,126.3,153.7,147.2,159.1,175z"/>
</svg>
