<?xml version="1.0" encoding="utf-8"?>
<!-- Generator: Adobe Illustrator 25.0.1, SVG Export Plug-In . SVG Version: 6.00 Build 0)  -->
<svg version="1.1" id="Layer_1" xmlns="http://www.w3.org/2000/svg" xmlns:xlink="http://www.w3.org/1999/xlink" x="0px" y="0px"
	 viewBox="0 0 823.7 701.6" style="enable-background:new 0 0 823.7 701.6;" xml:space="preserve">
<style type="text/css">
	.st0{clip-path:url(#SVGID_2_);}
	.st1{clip-path:url(#SVGID_4_);}
	.st2{opacity:0.2;}
	.st3{clip-path:url(#SVGID_6_);}
	.st4{fill:#6C63FF;}
	.st5{clip-path:url(#SVGID_8_);}
</style>
<g id="Group_26" transform="translate(2127 2368)">
	<g>
		<defs>
			<rect id="SVGID_1_" x="-2127" y="-2368" width="823.7" height="701.6"/>
		</defs>
		<clipPath id="SVGID_2_">
			<use xlink:href="#SVGID_1_"  style="overflow:visible;"/>
		</clipPath>
		<g id="Group_25" class="st0">
			<g id="Group_24">
				<g>
					<defs>
						<rect id="SVGID_3_" x="-2127" y="-2368" width="823.7" height="701.6"/>
					</defs>
					<clipPath id="SVGID_4_">
						<use xlink:href="#SVGID_3_"  style="overflow:visible;"/>
					</clipPath>
					<g id="Group_23" class="st1">
						<g id="Group_19" transform="translate(72.395)" class="st2">
							<g id="Group_18">
								<g>
									<defs>
										<rect id="SVGID_5_" x="-2127" y="-2368" width="732.9" height="688.5"/>
									</defs>
									<clipPath id="SVGID_6_">
										<use xlink:href="#SVGID_5_"  style="overflow:visible;"/>
									</clipPath>
									<g id="Group_17" class="st3">
										<path id="Path_193" class="st4" d="M-1856.5-2359.7c-99.4,37.8-213.4,122.3-261.7,309.4c-30.5,118.4,20,244,125.6,307.1
											c84.9,50.8,212.1,85.4,396,47.8c112.8-23.1,198.5-117.5,202.5-231.5c2.1-58.9-16.8-123.7-79.8-183.9
											c-33-31.6-63.9-65.3-93.7-99.9C-1633.2-2287.1-1751.9-2399.5-1856.5-2359.7"/>
									</g>
								</g>
							</g>
						</g>
						<g id="Group_22" transform="translate(0 64.142)" class="st2">
							<g id="Group_21">
								<g>
									<defs>
										<rect id="SVGID_7_" x="-2127" y="-2368" width="823.7" height="637.4"/>
									</defs>
									<clipPath id="SVGID_8_">
										<use xlink:href="#SVGID_7_"  style="overflow:visible;"/>
									</clipPath>
									<g id="Group_20" class="st5">
										<path id="Path_194" class="st4" d="M-1975.2-2169.7c0,0-311.6,299.6-42.1,422.4c77.1,35.2,109.3,8.5,178.5-20.4
											c73.6-30.7,259.1-99.4,328.3-100.6c149.7-2.7,333.4-219.6,85.9-430.6S-1975.2-2169.7-1975.2-2169.7"/>
									</g>
								</g>
							</g>
						</g>
					</g>
				</g>
			</g>
		</g>
	</g>
</g>
</svg>
