<?xml version="1.0" encoding="utf-8"?>
<!-- Generator: Adobe Illustrator 25.1.0, SVG Export Plug-In . SVG Version: 6.00 Build 0)  -->
<svg version="1.1" id="Layer_1" xmlns="http://www.w3.org/2000/svg" xmlns:xlink="http://www.w3.org/1999/xlink" x="0px" y="0px"
	 viewBox="0 0 823.7 672.6" style="enable-background:new 0 0 823.7 672.6;" xml:space="preserve">
<style type="text/css">
	.st0{opacity:0.2;}
	.st1{clip-path:url(#SVGID_2_);}
	.st2{fill:#6C63FF;}
	.st3{clip-path:url(#SVGID_4_);}
	.st4{opacity:0.6;fill:#FFFFFF;}
	.st5{opacity:0.4;fill:#FFFFFF;}
	.st6{opacity:0.5;fill:#84D4F7;}
	.st7{fill:#E4E4F4;}
	.st8{fill:#FFFFFF;}
	.st9{fill:#EDEDF7;}
	.st10{fill:#2F2E41;}
	.st11{fill:none;stroke:#6C63FF;stroke-width:8.7372;stroke-linecap:round;stroke-linejoin:round;stroke-miterlimit:10;}
	
		.st12{opacity:0.35;fill:none;stroke:#6C63FF;stroke-width:4.9681;stroke-linecap:square;stroke-linejoin:round;stroke-miterlimit:10;}
	.st13{fill:none;stroke:#6C63FF;stroke-width:4.9681;stroke-linecap:square;stroke-linejoin:round;stroke-miterlimit:10;}
	.st14{fill:none;stroke:#6C63FF;stroke-width:4.854;stroke-linecap:square;stroke-linejoin:round;stroke-miterlimit:10;}
	
		.st15{opacity:0.5;fill:none;stroke:#6C63FF;stroke-width:4.7428;stroke-linecap:square;stroke-linejoin:round;stroke-miterlimit:10;}
	.st16{fill:none;stroke:#6C63FF;stroke-width:4.7428;stroke-linecap:square;stroke-linejoin:round;stroke-miterlimit:10;}
	.st17{fill:none;stroke:#2F2E41;stroke-width:4.7428;stroke-linecap:square;stroke-miterlimit:10;}
</style>
<g id="Group_19_7_" transform="translate(72.395)" class="st0">
	<g id="Group_18_7_">
		<g>
			<g>
				<defs>
					
						<rect id="SVGID_1_" x="71.6" y="42" transform="matrix(0.7826 -0.6225 0.6225 0.7826 -133.1522 329.4955)" width="667.2" height="626.8"/>
				</defs>
				<clipPath id="SVGID_2_">
					<use xlink:href="#SVGID_1_"  style="overflow:visible;"/>
				</clipPath>
				<g id="Group_17_7_" class="st1">
					<path id="Path_193_7_" class="st2" d="M527.2,649.1C435,678.5,305.9,682.9,165.5,577c-88.8-67.1-124-185.2-84.5-290
						C112.6,202.7,183.6,106,336,28.6c93.5-47.5,208-28.8,275.5,50.2c34.9,40.8,58.1,97.7,47.4,176.2c-5.6,41.2-8.5,82.7-10.1,124.3
						C645.2,470.9,624.3,618.2,527.2,649.1"/>
				</g>
			</g>
		</g>
	</g>
</g>
<g id="Group_22_7_" transform="translate(0 64.142)" class="st0">
	<g id="Group_21_7_">
		<g>
			<g>
				<defs>
					
						<rect id="SVGID_3_" x="61.6" y="-11.1" transform="matrix(0.7826 -0.6225 0.6225 0.7826 -78.8304 332.3807)" width="749.9" height="580.3"/>
				</defs>
				<clipPath id="SVGID_4_">
					<use xlink:href="#SVGID_3_"  style="overflow:visible;"/>
				</clipPath>
				<g id="Group_20_7_" class="st3">
					<path id="Path_194_7_" class="st2" d="M319.5,512.2c0,0-391.8-36.9-269.4-277.1c35-68.8,73.1-68,138.7-86.6
						c69.8-19.8,240.9-76,290.9-114.4C588-48.8,841.7,1.7,785,292.3C728.2,582.8,319.5,512.2,319.5,512.2"/>
				</g>
			</g>
		</g>
	</g>
</g>
<g>
	<path class="st4" d="M708.3,109.5c-0.5,0.7-0.9,1.3-1.4,2c-7.3,10.3-16.2,19.8-26.6,28.1c-59.9,47.7-147.4,37.7-195.1-22.2
		c-3.9-4.9-7.4-10-10.5-15.2c-16.9-28.2-22.7-60.7-18-91.7c6.9-1.8,13.8-3.3,20.7-4.4c-6,28.3-1.8,58.6,13.4,84.7
		c2.9,5,6.1,9.8,9.8,14.4c40.9,51.4,116,60,167.5,19.1c11.1-8.8,20.2-19.3,27.3-30.7c0,0,0-0.1,0.1-0.1c0.8-1.3,1.6-2.7,2.3-4
		c5.7,3.3,11.2,6.9,16.5,10.8C712.4,103.2,710.4,106.4,708.3,109.5z"/>
	<path class="st5" d="M735.9,144.2c-3.2,4-6.7,8-10.3,11.8c-5.7,6-12,11.8-18.7,17.1c-78.4,62.4-193,49.3-255.3-29.1
		c-5.4-6.8-10.2-13.8-14.4-21c-17.6-29.8-25.7-63.2-24.9-96.3c6.6-3.2,13.3-6.1,20.1-8.6c-2.6,32.8,4.6,66.4,22.4,96
		c3.6,6.1,7.7,12,12.3,17.7c55.6,69.9,157.8,81.6,227.7,26c8.8-7,16.6-14.7,23.5-23c1.7-2.1,3.4-4.2,5-6.4c3.2-4.3,6.2-8.7,8.9-13.2
		c4.7,4.5,9.1,9.2,13.4,14.3l0.5,0.6C742.9,134.9,739.5,139.6,735.9,144.2z"/>
</g>
<circle class="st6" cx="203.5" cy="189.3" r="70.4"/>
<g>
	<path class="st7" d="M690.5,491.2H193.9c-8.6,0-15.6-7-15.6-15.6V250.6h527.8v224.9C706.1,484.2,699.1,491.2,690.5,491.2z"/>
	<path class="st8" d="M197.8,462.1V278.5c0-4.8,3.9-8.6,8.6-8.6h471.5c4.8,0,8.6,3.9,8.6,8.6v183.5c0,4.8-3.9,8.6-8.6,8.6H206.5
		C201.7,470.7,197.8,466.8,197.8,462.1z"/>
	<path class="st9" d="M706.1,250.6H178.3v-28.9c0-8.6,7-15.6,15.6-15.6h496.6c8.6,0,15.6,7,15.6,15.6V250.6z"/>
	<g>
		<circle class="st10" cx="230.5" cy="227" r="14.6"/>
		<circle class="st10" cx="273.9" cy="227" r="14.6"/>
		<circle class="st10" cx="317.3" cy="227" r="14.6"/>
	</g>
	<g>
		<circle class="st10" cx="567.1" cy="227" r="14.6"/>
		<circle class="st10" cx="610.5" cy="227" r="14.6"/>
		<circle class="st10" cx="653.9" cy="227" r="14.6"/>
	</g>
	<g>
		<line class="st11" x1="230.5" y1="227" x2="230.5" y2="189.3"/>
		<line class="st11" x1="273.9" y1="227" x2="273.9" y2="189.3"/>
		<line class="st11" x1="317.3" y1="227" x2="317.3" y2="189.3"/>
	</g>
	<g>
		<line class="st11" x1="567.1" y1="227" x2="567.1" y2="189.3"/>
		<line class="st11" x1="610.5" y1="227" x2="610.5" y2="189.3"/>
		<line class="st11" x1="653.9" y1="227" x2="653.9" y2="189.3"/>
	</g>
	<g>
		<g>
			<path class="st10" d="M229.1,298h-5.3v-10.5h16.9v37h-11.6V298z"/>
			<path class="st10" d="M220.6,379.6c7-5.4,14.4-11.6,14.4-16.9c0-1.6-0.7-2.5-1.9-2.5c-1.2,0-2.2,1.2-2,4.2h-10.7
				c0.3-9.8,6.6-13.6,13.4-13.6c9.1,0,12.3,5.2,12.3,11.1c0,7.3-5.5,13.5-11.2,17.2h11.4v9.1h-25.7V379.6z"/>
			<path class="st10" d="M233,414.9c8.1,0,12.3,4.6,12.3,10.3c0,5.3-3.2,7.5-5.3,8.2v0.2c3.4,1.3,6,3.8,6,8.5
				c0,6.5-4.6,10.9-12.3,10.9c-8.2,0-13.8-3.6-13.9-13h10.7c-0.1,2.4,0.6,3.7,2.7,3.7c1.2,0,2.1-1,2.1-2.5c0-1.8-1-2.9-4-2.9h-1.8
				v-9.1h1.8c0.9,0.1,3.4,0.1,3.4-2.7c0-1.8-0.9-2.5-1.8-2.5c-1.6,0-1.8,1.7-1.8,3.1h-10.7C220.4,419.2,224.9,414.9,233,414.9z"/>
		</g>
		<g>
			<line class="st12" x1="270.2" y1="292.4" x2="445.3" y2="292.4"/>
			<line class="st13" x1="270.2" y1="319.6" x2="650.5" y2="319.6"/>
			<line class="st12" x1="270.2" y1="355.9" x2="357.7" y2="355.9"/>
			<line class="st13" x1="270.2" y1="383" x2="534.3" y2="383"/>
			<line class="st12" x1="270.2" y1="420.4" x2="434.3" y2="420.4"/>
			<line class="st13" x1="270.2" y1="447.6" x2="592.6" y2="447.6"/>
		</g>
	</g>
	<path class="st14" d="M491.9,488.3h195.7c8.6,0,15.7-7,15.7-15.7v-84.5"/>
	<path class="st14" d="M181.2,301.1v171.5c0,8.6,7,15.7,15.7,15.7h57.4"/>
</g>
<g>
	<circle class="st7" cx="661.4" cy="481.3" r="113.8"/>
	<circle class="st8" cx="661.4" cy="481.3" r="91.1"/>
	<line class="st15" x1="661.4" y1="481.3" x2="661.4" y2="413.7"/>
	<g>
		<line class="st16" x1="661.4" y1="378.9" x2="661.4" y2="401.4"/>
		<line class="st16" x1="610.2" y1="392.6" x2="621.5" y2="412.1"/>
		<line class="st16" x1="572.7" y1="430.1" x2="592.2" y2="441.3"/>
		<line class="st16" x1="559" y1="481.3" x2="581.5" y2="481.3"/>
		<line class="st16" x1="572.7" y1="532.4" x2="592.2" y2="521.2"/>
		<line class="st16" x1="610.2" y1="569.9" x2="621.5" y2="550.4"/>
		<line class="st16" x1="661.4" y1="583.6" x2="661.4" y2="561.1"/>
		<line class="st16" x1="712.6" y1="569.9" x2="701.3" y2="550.4"/>
		<line class="st16" x1="750.1" y1="532.4" x2="730.6" y2="521.2"/>
		<line class="st16" x1="763.8" y1="481.3" x2="741.3" y2="481.3"/>
		<line class="st16" x1="750.1" y1="430.1" x2="730.6" y2="441.3"/>
		<line class="st16" x1="712.6" y1="392.6" x2="701.3" y2="412.1"/>
	</g>
	<line class="st17" x1="661.4" y1="481.3" x2="734.5" y2="408.1"/>
</g>
</svg>
