<?xml version="1.0" encoding="utf-8"?>
<!-- Generator: Adobe Illustrator 25.2.3, SVG Export Plug-In . SVG Version: 6.00 Build 0)  -->
<svg version="1.1" id="Layer_1" xmlns="http://www.w3.org/2000/svg" xmlns:xlink="http://www.w3.org/1999/xlink" x="0px" y="0px"
	 viewBox="0 0 752.5 672.6" style="enable-background:new 0 0 752.5 672.6;" xml:space="preserve">
<style type="text/css">
	.st0{opacity:0.2;}
	.st1{clip-path:url(#SVGID_2_);}
	.st2{fill:#5E59F8;}
	.st3{clip-path:url(#SVGID_4_);}
	.st4{opacity:0.5;fill:#6BCDF2;enable-background:new    ;}
	.st5{opacity:0.6;fill:#FFFFFF;enable-background:new    ;}
	.st6{opacity:0.4;fill:#FFFFFF;enable-background:new    ;}
	.st7{fill:#E9E9F4;}
	.st8{fill:#FFFFFF;}
	.st9{fill:#DFDFF0;}
	.st10{fill:#292938;}
	.st11{fill:none;stroke:#5E59F8;stroke-width:5.5202;stroke-linecap:square;stroke-linejoin:round;stroke-miterlimit:10;}
	.st12{fill:#C7C8DC;}
	.st13{fill:none;stroke:#D2D3E8;stroke-width:4.9974;stroke-miterlimit:10;}
	.st14{clip-path:url(#SVGID_6_);}
	.st15{fill:#6C63FF;}
	.st16{clip-path:url(#SVGID_8_);}
	.st17{opacity:0.5;fill:#84D4F7;}
	.st18{fill:#2F2E41;}
	.st19{fill:none;stroke:#6C63FF;stroke-width:4.0007;stroke-linecap:round;stroke-linejoin:round;stroke-miterlimit:10;}
	
		.st20{opacity:0.35;fill:none;stroke:#6C63FF;stroke-width:4.0007;stroke-linecap:round;stroke-linejoin:round;stroke-miterlimit:10;}
	.st21{opacity:0.5;fill:#FFFFFF;}
	.st22{fill:#B1B1DD;}
	.st23{fill:#E4E4F4;}
	.st24{fill:#DCE3F4;}
	.st25{fill:#EDEDF7;}
</style>
<g>
	<g>
		<g id="Group_19_3_" transform="translate(72.395)" class="st0">
			<g id="Group_18_3_">
				<g>
					<g>
						<g>
							<g>
								<defs>
									<rect id="SVGID_1_" x="-848.3" y="556.2" width="566.4" height="532"/>
								</defs>
								<clipPath id="SVGID_2_">
									<use xlink:href="#SVGID_1_"  style="overflow:visible;"/>
								</clipPath>
								<g id="Group_17_3_" class="st1">
									<path id="Path_193_3_" class="st2" d="M-639.3,562.6c-76.8,29.2-164.9,94.5-202.2,239.1c-23.6,91.5,15.5,188.6,97.1,237.3
										c65.6,39.3,163.9,66,306,36.9C-351.2,1058-285,985.1-281.9,897c1.6-45.5-13-95.6-61.7-142.1
										c-25.5-24.4-49.4-50.5-72.4-77.2C-466.7,618.7-558.4,531.8-639.3,562.6"/>
								</g>
							</g>
						</g>
					</g>
				</g>
			</g>
		</g>
		<g id="Group_22_3_" transform="translate(0 64.142)" class="st0">
			<g id="Group_21_3_">
				<g>
					<g>
						<g>
							<g>
								<defs>
									<rect id="SVGID_3_" x="-831.9" y="541.6" width="636.5" height="492.6"/>
								</defs>
								<clipPath id="SVGID_4_">
									<use xlink:href="#SVGID_3_"  style="overflow:visible;"/>
								</clipPath>
								<g id="Group_20_3_" class="st3">
									<path id="Path_194_3_" class="st2" d="M-714.6,694.8c0,0-240.8,231.5-32.5,326.4c59.6,27.2,84.5,6.6,137.9-15.8
										c56.9-23.7,200.2-76.8,253.7-77.7C-239.8,925.6-97.9,758-289.1,595S-714.6,694.8-714.6,694.8"/>
								</g>
							</g>
						</g>
					</g>
				</g>
			</g>
		</g>
	</g>
	<circle class="st4" cx="-709" cy="678.2" r="61.8"/>
	<g>
		<path class="st5" d="M-209.6,863.7c-0.6-0.2-1.3-0.4-2-0.6c-10.3-3-21.2-4.6-32.5-4.6c-65,0-117.9,52.9-117.9,117.9
			c0,5.3,0.4,10.6,1,15.7c3.7,27.6,17,52.3,36.5,70.4c5.5-2.4,10.9-5.1,16.1-8c-19-15.6-32.1-38-35.9-63.4
			c-0.7-4.8-1.1-9.7-1.1-14.7c0-55.8,45.4-101.2,101.2-101.2c12.1,0,23.6,2.1,34.4,6h0.1c1.2,0.4,2.5,0.9,3.7,1.4
			c2-5.2,3.8-10.5,5.3-15.9C-203.6,865.7-206.5,864.7-209.6,863.7z"/>
		<path class="st6" d="M-209.6,826.1c-4.3-1-8.6-1.8-13.1-2.4c-7-1-14.2-1.5-21.4-1.5c-85,0-154.2,69.2-154.2,154.2
			c0,7.3,0.5,14.5,1.5,21.6c4.1,29.1,16.3,55.6,34.3,77.1c6.1-1.4,12.1-3,17.9-4.9c-19.1-20.4-32-46.6-35.9-75.6
			c-0.8-6-1.2-12.1-1.2-18.3c0-75.8,61.7-137.6,137.6-137.6c9.5,0,18.8,1,27.8,2.8c2.3,0.5,4.5,1,6.7,1.6c4.4,1.1,8.7,2.5,12.9,4
			c0.7-5.4,1.2-11,1.3-16.6v-0.6C-200,828.5-204.7,827.2-209.6,826.1z"/>
	</g>
	<g>
		<g>
			<rect x="-644.8" y="931.4" class="st7" width="40" height="41.4"/>
			<path class="st7" d="M-624.8,970.4c-5.8,3.3-12.4,5.1-19.5,5.1c-21.8-0.1-39.3-18.3-39.3-40.2V781c0-10.3,8.4-18.7,18.7-18.7
				h20.1v173.8c0,2.2,0.2,4.3,0.5,6.4C-642.3,954.5-634.9,964.6-624.8,970.4z"/>
		</g>
		<path class="st8" d="M-343.6,710.9v225.2c0,21.8-17.6,39.4-39.4,39.4h-261.1c7.1,0,13.7-1.9,19.4-5.1
			c10.2-5.8,17.5-15.9,19.5-27.8c0.3-2.1,0.5-4.3,0.5-6.5V710.9c0-10.3,8.4-18.7,18.7-18.7h223.8
			C-352,692.2-343.6,700.6-343.6,710.9z"/>
		<path class="st9" d="M-604.7,727.3v208.8c0,2.2-0.2,4.4-0.5,6.5c-0.9,5.7-3.1,11-6.3,15.7c-6.3,9.3-20.1,9.3-26.4,0
			c-3.1-4.6-5.3-10-6.3-15.7c-0.3-2.1-0.5-4.2-0.5-6.4V745.9c0-10.3,8.4-18.7,18.7-18.7L-604.7,727.3L-604.7,727.3z"/>
		<g>
			<path class="st10" d="M-536.1,710.2v56.9c0,1.5-1.1,2.7-2.4,2.7h-9.9c-0.8,0-1.6-0.5-2-1.2l-20.8-35.3c-0.3-0.6-1.2-0.3-1.2,0.4
				v33.4c0,1.5-1.1,2.7-2.4,2.7h-8.8c-1.3,0-2.4-1.2-2.4-2.7v-56.9c0-1.5,1.1-2.7,2.4-2.7h9.9c0.8,0,1.6,0.5,2,1.2l20.8,35.5
				c0.3,0.6,1.2,0.3,1.2-0.4v-33.6c0-1.5,1.1-2.7,2.4-2.7h8.8C-537.2,707.5-536.1,708.7-536.1,710.2z"/>
			<path class="st10" d="M-494.5,719.7h-15.7c-1.3,0-2.4,1.2-2.4,2.7v7.2c0,1.5,1.1,2.7,2.4,2.7h13.4c1.3,0,2.4,1.2,2.4,2.7v6.3
				c0,1.5-1.1,2.7-2.4,2.7h-13.4c-1.3,0-2.4,1.2-2.4,2.7v8.3c0,1.5,1.1,2.7,2.4,2.7h15.7c1.3,0,2.4,1.2,2.4,2.7v6.8
				c0,1.5-1.1,2.7-2.4,2.7h-29.3c-1.3,0-2.4-1.2-2.4-2.7v-56.9c0-1.5,1.1-2.7,2.4-2.7h29.3c1.3,0,2.4,1.2,2.4,2.7v6.8
				C-492.1,718.5-493.2,719.7-494.5,719.7z"/>
			<path class="st10" d="M-483.1,707.5h9.4c1.2,0,2.1,0.9,2.4,2.2l7.1,40.1c0.1,0.7,1.1,0.8,1.2,0l8.8-40.2c0.3-1.2,1.2-2.1,2.3-2.1
				h11.1c1.1,0,2.1,0.9,2.3,2.1l8.4,40.1c0.2,0.7,1.1,0.7,1.2,0l7.1-40c0.2-1.3,1.2-2.2,2.4-2.2h9.5c1.6,0,2.7,1.7,2.3,3.4
				l-13.3,56.9c-0.3,1.2-1.2,2-2.3,2h-12.7c-1.1,0-2.1-0.9-2.3-2.1l-7.8-36.2c-0.2-0.7-1.1-0.7-1.2,0l-8.1,36.2
				c-0.3,1.2-1.2,2-2.3,2h-12.7c-1.1,0-2.1-0.8-2.3-2l-12.9-56.9C-485.8,709.2-484.7,707.5-483.1,707.5z"/>
			<path class="st10" d="M-379.6,770.5c-10.9,0-19.7-5.5-21.4-16.1c-0.3-1.7,0.9-3.2,2.4-3.2h9.8c1.1,0,2,0.8,2.3,1.9
				c0.9,3.5,3.3,5.2,6.6,5.2c4,0,6.5-2.2,6.5-5.9c0-11.5-27.9-5.3-27.7-27.4c0-11.8,8.7-18.4,20.3-18.4c11,0,18.7,5.5,20.5,15.4
				c0.3,1.7-0.8,3.3-2.4,3.3h-10c-1,0-2-0.7-2.3-1.8c-0.8-2.9-3.1-4.6-6.1-4.6c-3.3-0.1-5.7,1.8-5.7,5.7c0,10.8,27.6,5.9,27.6,26.8
				C-359.2,761.7-366.5,770.5-379.6,770.5z"/>
		</g>
		<g>
			<line class="st11" x1="-586.6" y1="787.7" x2="-526" y2="787.7"/>
			<line class="st11" x1="-586.6" y1="812.9" x2="-526" y2="812.9"/>
			<line class="st11" x1="-586.6" y1="838.1" x2="-526" y2="838.1"/>
			<line class="st11" x1="-586.6" y1="863.2" x2="-526" y2="863.2"/>
			<line class="st11" x1="-586.6" y1="888.4" x2="-526" y2="888.4"/>
			<line class="st11" x1="-422.9" y1="787.7" x2="-362.2" y2="787.7"/>
			<line class="st11" x1="-422.9" y1="812.9" x2="-362.2" y2="812.9"/>
			<line class="st11" x1="-422.9" y1="838.1" x2="-362.2" y2="838.1"/>
			<line class="st11" x1="-422.9" y1="863.2" x2="-362.2" y2="863.2"/>
			<line class="st11" x1="-422.9" y1="888.4" x2="-362.2" y2="888.4"/>
			<line class="st11" x1="-586.6" y1="913.6" x2="-362.2" y2="913.6"/>
			<line class="st11" x1="-587.4" y1="938.8" x2="-364.2" y2="938.8"/>
			<line class="st11" x1="-596" y1="960" x2="-379.6" y2="960"/>
		</g>
		<g>
			<path class="st12" d="M-441,783.7h-66.8c-2.1,0-3.8,1.7-3.8,3.8v101.2c0,2.1,1.7,3.8,3.8,3.8h66.8c2.1,0,3.8-1.7,3.8-3.8V787.4
				C-437.3,785.4-438.9,783.7-441,783.7z"/>
			<path class="st10" d="M-468.7,855.7c9.8-2.5,17-11.4,16.9-22c0-11.9-9.6-21.9-21.4-22.5c-13-0.7-23.8,9.7-23.8,22.6
				c0,10.5,7.2,19.4,16.9,21.9c-16.5,2.5-29.4,15.9-31.2,32.7c-0.2,2.1,1.4,4,3.6,4h66.7c2.2,0,3.8-1.9,3.6-4
				C-439.3,871.7-452.2,858.3-468.7,855.7z"/>
		</g>
		<g>
			<path class="st13" d="M-624.8,970.4c-5.8,3.3-12.4,5.1-19.5,5.1c-21.8-0.1-39.3-18.3-39.3-40.2v-25"/>
			<path class="st13" d="M-604.7,798.6v137.5c0,2.2-0.2,4.4-0.5,6.5c-2,12-9.3,22.1-19.5,27.8c-5.7,3.3-12.3,5.1-19.4,5.1H-472"/>
		</g>
		<path class="st13" d="M-644.1,881.7V745.9c0,0-1-18.7,18.1-18.7h21.3"/>
	</g>
	<circle class="st4" cx="-447.3" cy="205.6" r="61.8"/>
</g>
<g>
	<g>
		<g>
			<g id="Group_19_6_" transform="translate(72.395)" class="st0">
				<g id="Group_18_6_">
					<g>
						<g>
							<defs>
								
									<rect id="SVGID_5_" x="-15.1" y="-7.4" transform="matrix(0.9876 -0.157 0.157 0.9876 -44.2297 53.9743)" width="669.4" height="628.8"/>
							</defs>
							<clipPath id="SVGID_6_">
								<use xlink:href="#SVGID_5_"  style="overflow:visible;"/>
							</clipPath>
							<g id="Group_17_6_" class="st14">
								<path id="Path_193_6_" class="st15" d="M184.9,17.7C100.6,66.1,9.9,158.6-6.8,334.3c-10.5,111.2,53,217.2,157.3,259
									c83.9,33.7,203.6,46.6,364.1-13.7c98.4-37,162.2-134.4,149.5-237.9c-6.6-53.4-32.9-109.2-98.3-154.4
									c-34.3-23.8-67-49.7-98.8-76.7C396.7,51.2,273.5-33.2,184.9,17.7"/>
							</g>
						</g>
					</g>
				</g>
			</g>
			<g id="Group_22_6_" transform="translate(0 64.142)" class="st0">
				<g id="Group_21_6_">
					<g>
						<g>
							<defs>
								
									<rect id="SVGID_7_" x="-3" y="-9.6" transform="matrix(0.9876 -0.157 0.157 0.9876 -39.5686 62.0694)" width="752.3" height="582.2"/>
							</defs>
							<clipPath id="SVGID_8_">
								<use xlink:href="#SVGID_7_"  style="overflow:visible;"/>
							</clipPath>
							<g id="Group_20_6_" class="st16">
								<path id="Path_194_6_" class="st15" d="M121.3,210.2c0,0-238.1,314.9,22.6,387.1c74.6,20.7,99.8-8,158.1-44
									c62-38.2,219.5-126.8,281.7-137.8C718.4,391.6,853,169.6,599.5,14.7S121.3,210.2,121.3,210.2"/>
							</g>
						</g>
					</g>
				</g>
			</g>
		</g>
	</g>
	<circle class="st17" cx="68.1" cy="283.4" r="68.1"/>
	<g>
		<path class="st15" d="M423.2,420.9v-34.9c0-6.2-5-11.2-11.2-11.2H391c-4.9,0-9.2-3.2-10.6-7.8c-2-6.4-4.6-12.6-7.7-18.5
			c-2.2-4.3-1.5-9.6,2-13.1l14.9-14.9c4.4-4.4,4.4-11.4,0-15.8l-24.6-24.6c-4.4-4.4-11.4-4.4-15.8,0L334.2,295
			c-3.5,3.5-8.7,4.2-13.1,2c-5.9-3.1-12.1-5.6-18.5-7.7c-4.6-1.5-7.8-5.8-7.8-10.6v-21.1c0-6.2-5-11.2-11.2-11.2h-34.9
			c-6.2,0-11.2,5-11.2,11.2v21.1c0,4.9-3.2,9.2-7.8,10.6c-6.4,2-12.6,4.6-18.5,7.7c-4.3,2.2-9.6,1.5-13.1-2l-14.9-14.9
			c-4.4-4.4-11.4-4.4-15.8,0l-24.6,24.6c-4.4,4.4-4.4,11.4,0,15.8l14.9,14.9c3.5,3.5,4.2,8.7,2,13.1c-3.1,5.9-5.6,12.1-7.7,18.5
			c-1.5,4.6-5.8,7.8-10.6,7.8h-21.1c-6.2,0-11.2,5-11.2,11.2v34.9c0,6.2,5,11.2,11.2,11.2h21.1c4.9,0,9.2,3.2,10.6,7.8
			c2,6.4,4.6,12.6,7.7,18.5c2.2,4.3,1.5,9.6-2,13.1l-14.9,14.9c-4.4,4.4-4.4,11.4,0,15.8l24.6,24.6c4.4,4.4,11.4,4.4,15.8,0
			l14.9-14.9c3.5-3.5,8.7-4.2,13.1-2c5.9,3.1,12.1,5.6,18.5,7.7c4.6,1.5,7.8,5.8,7.8,10.6v21.1c0,6.2,5,11.2,11.2,11.2h34.9
			c6.2,0,11.2-5,11.2-11.2v-21.1c0-4.9,3.2-9.2,7.8-10.6c6.4-2,12.6-4.6,18.5-7.7c4.3-2.2,9.6-1.5,13.1,2l14.9,14.9
			c4.4,4.4,11.4,4.4,15.8,0l24.6-24.6c4.4-4.4,4.4-11.4,0-15.8l-14.9-14.9c-3.5-3.5-4.2-8.7-2-13.1c3.1-5.9,5.6-12.1,7.7-18.5
			c1.5-4.6,5.8-7.8,10.6-7.8H412C418.2,432.1,423.2,427.1,423.2,420.9z M268.3,467.8c-37.2,1.2-67.6-29.2-66.4-66.4
			c1.1-33.7,28.5-61.1,62.2-62.2c37.2-1.2,67.6,29.2,66.4,66.4C329.4,439.3,302,466.7,268.3,467.8z"/>
		<g>
			<path class="st18" d="M266.2,487.4c-46.3,0-83.9-37.7-83.9-83.9s37.7-83.9,83.9-83.9s83.9,37.7,83.9,83.9
				S312.5,487.4,266.2,487.4z M266.2,339.1c-35.5,0-64.4,28.9-64.4,64.4s28.9,64.4,64.4,64.4s64.4-28.9,64.4-64.4
				S301.7,339.1,266.2,339.1z"/>
		</g>
	</g>
	<g>
		<g>
			<path class="st19" d="M377.9,312.5c0,0-32.8-56.6-78.7-106"/>
			<path class="st19" d="M409.1,297.9c0,0-40.9-73-42.9-130.6"/>
			<path class="st20" d="M300,207.4c0,0,36.7,2,66.3-39"/>
			<path class="st21" d="M289.9,92.4c-22.6,13.3-46.8,35.7-55.7,56c-21.2,48.8,31.2,86.8,31.2,86.8c33.6,26.1,49.6,43.3,75.2,75.9
				l11.5,14.6l38.5-18.1l38.5-18.1l-3.7-17.6c-8.7-41-11.7-64.6-10.3-107.6v0C418.1,103.4,352.7,55.5,289.9,92.4z"/>
			
				<ellipse transform="matrix(0.9055 -0.4243 0.4243 0.9055 -111.7834 208.8373)" class="st22" cx="413" cy="355.4" rx="38" ry="15.5"/>
			<path class="st8" d="M438.7,312.7l-74.8,35c-2.7,1.3-5.9,0.1-7.1-2.6l-1-2c-1.3-2.7-0.1-5.9,2.6-7.1l74.8-35
				c2.7-1.3,5.9-0.1,7.1,2.6l1,2C442.5,308.3,441.3,311.5,438.7,312.7z"/>
			<path class="st23" d="M433.2,301l-74.8,35c-2.7,1.3-5.9,0.1-7.1-2.6l-1-2c-1.3-2.7-0.1-5.9,2.6-7.1l74.8-35
				c2.7-1.3,5.9-0.1,7.1,2.6l1,2C437,296.5,435.8,299.7,433.2,301z"/>
			<path class="st23" d="M444.2,324.5l-74.8,35c-2.7,1.3-5.9,0.1-7.1-2.6l-1-2c-1.3-2.7-0.1-5.9,2.6-7.1l74.8-35
				c2.7-1.3,5.9-0.1,7.1,2.6l1,2C448,320,446.8,323.2,444.2,324.5z"/>
			<path class="st8" d="M449.7,336.2l-74.8,35c-2.7,1.3-5.9,0.1-7.1-2.6l-1-2c-1.3-2.7-0.1-5.9,2.6-7.1l74.8-35
				c2.7-1.3,5.9-0.1,7.1,2.6l1,2C453.5,331.8,452.3,335,449.7,336.2z"/>
		</g>
		<path class="st8" d="M282.9,120.5c14.6-14.1,32.5-22.2,50-24c1.8-0.2,1.7-2.8,0-2.9c-21.2-1.5-44.4,6.7-62.6,24.3
			c-30.9,29.9-35.3,75.6-9.7,102c6.6,6.8,14.5,11.6,23.1,14.6c1.7,0.6,2.7-1.7,1.2-2.6c-4.2-2.5-8.1-5.6-11.7-9.3
			C247.6,196.1,252,150.4,282.9,120.5z"/>
	</g>
	<g>
		<path class="st24" d="M616.4,281.2l-145-38.5c-2.4-0.6-3.8-3.1-3.1-5.4s3.1-3.8,5.4-3.1l145,38.5c2.4,0.6,3.8,3.1,3.1,5.4
			S618.8,281.8,616.4,281.2z"/>
		<path class="st18" d="M534.1,537.1c-0.3-0.1-0.6-0.2-0.9-0.4c-1.6-1-2.1-3-1.1-4.6l37.9-62.5c1-1.6,3-2.1,4.6-1.1
			c1.6,1,2.1,3,1.1,4.6l-37.9,62.5C537,536.9,535.5,537.5,534.1,537.1z"/>
		<path class="st8" d="M416,505.8c-1.4-0.4-2.4-1.6-2.5-3.1l-1.9-73.1c0-1.8,1.4-3.4,3.2-3.4c1.8-0.1,3.4,1.4,3.4,3.2l1.9,73.1
			c0,1.8-1.4,3.4-3.2,3.4C416.7,505.9,416.3,505.9,416,505.8z"/>
		<circle class="st25" cx="429.2" cy="454.7" r="15.9"/>
		<circle class="st23" cx="429.2" cy="454.7" r="8"/>
		<g>
			<path class="st25" d="M407,480.4L407,480.4c-3.1-8.4-2.7-17.6,1.1-25.7l139.2-300.3c2.4-5.2,9.9-5.1,12.2,0.2l1.5,3.5
				c3.4,7.8,3.3,16.7-0.3,24.4L422.2,481.1C419.1,487.7,409.5,487.3,407,480.4z"/>
		</g>
		<g>
			<path class="st8" d="M554.5,519.6L554.5,519.6c6.8-5.8,11.1-14,11.8-22.9l28.1-329.8c0.5-5.7-6-9.3-10.6-5.9l-3.1,2.3
				c-6.8,5.1-11.1,12.9-11.8,21.3L541,512.6C540.4,519.9,548.9,524.3,554.5,519.6z"/>
		</g>
		<path class="st15" d="M535.9,292.1c-3.5-0.9-5.7-4.6-4.7-8.1l14.9-56c0.9-3.5,4.6-5.7,8.1-4.7c3.5,0.9,5.7,4.6,4.7,8.1l-14.9,56
			C543.1,291,539.5,293.1,535.9,292.1z"/>
		<path class="st8" d="M587.5,97.8C587.5,97.8,587.5,97.8,587.5,97.8l-2.3,8.6c0,0,0,0,0,0c18.2,4.8,29.1,23.6,24.3,41.8
			c-4.8,18.2-23.6,29.1-41.8,24.3c0,0,0,0,0,0l-2.3,8.6c0,0,0,0,0,0c22.9,6.1,46.6-7.6,52.7-30.6
			C624.2,127.5,610.4,103.9,587.5,97.8z"/>
		<path class="st25" d="M543.4,130.6c4.8-18.2,23.6-29.1,41.8-24.3l2.3-8.6c-22.9-6.1-46.6,7.6-52.7,30.6s7.6,46.6,30.6,52.7
			l2.3-8.6C549.4,167.6,538.5,148.9,543.4,130.6z"/>
		<path class="st15" d="M581,122.1c-5.2-1.4-8.3-6.7-6.9-11.9l14.2-53.4c1.4-5.2,6.7-8.3,11.9-6.9s8.3,6.7,6.9,11.9l-14.2,53.4
			C591.6,120.4,586.2,123.5,581,122.1z"/>
		<g>
			<g>
				<path class="st23" d="M578.6,311.1c-1.9-0.2-3.3-1.9-3.1-3.8l5.2-61.7c0.2-1.9,1.9-3.3,3.8-3.2c2,0.2,3.3,1.9,3.2,3.8l-5.2,61.7
					C582.2,309.8,580.5,311.3,578.6,311.1C578.6,311.1,578.6,311.1,578.6,311.1z"/>
			</g>
			<g>
				<path class="st23" d="M572,188.4c-1.9-0.2-3.3-1.9-3.1-3.8c0.7-8.5,5-16.2,11.8-21.3c1.5-1.2,3.7-0.8,4.9,0.7
					c1.2,1.5,0.8,3.7-0.7,4.9c-5.2,3.9-8.5,9.9-9.1,16.4C575.7,187.2,574,188.6,572,188.4C572,188.4,572,188.4,572,188.4z"/>
			</g>
			<g>
				<path class="st23" d="M562.5,499.9c-1.9-0.2-3.3-1.9-3.1-3.8l3.2-37.1c0.2-1.9,1.9-3.3,3.8-3.2c0,0,0,0,0,0
					c1.9,0.2,3.3,1.9,3.1,3.8l-3.2,37.1C566.2,498.6,564.5,500.1,562.5,499.9C562.6,499.9,562.5,499.9,562.5,499.9z"/>
			</g>
		</g>
		<circle class="st15" cx="547.9" cy="486.3" r="15.9"/>
		<circle class="st22" cx="547.9" cy="486.3" r="6.5"/>
		<g>
			<g>
				<path class="st22" d="M475.6,360.2c-0.4,0-0.8-0.1-1.1-0.3c-1.7-0.8-2.5-2.9-1.7-4.6l61.1-131.8c0.8-1.7,2.9-2.5,4.6-1.7
					c1.7,0.8,2.5,2.9,1.7,4.6l-61.1,131.8C478.5,359.6,477.1,360.4,475.6,360.2z"/>
			</g>
			<g>
				<path class="st22" d="M538.7,183.9c-0.4,0-0.8-0.1-1.1-0.3c-1.7-0.8-2.5-2.9-1.7-4.6l11.4-24.6c1-2.1,2.9-3.5,5.2-3.8
					c2.3-0.3,4.5,0.6,6,2.3c0.4,0.5,0.7,1,1,1.6l1.5,3.5c3.4,7.8,3.2,16.7-0.3,24.4c-0.8,1.7-2.9,2.5-4.6,1.7
					c-1.7-0.8-2.5-2.9-1.7-4.6c2.7-5.9,2.8-12.7,0.2-18.7l-1.2-2.9l-11.1,23.9C541.5,183.3,540.1,184,538.7,183.9z"/>
			</g>
			<g>
				<path class="st22" d="M414,485.8c-2.2-0.2-4.2-1.2-5.6-2.9c-0.6-0.7-1.1-1.5-1.4-2.5c-0.7-1.8,0.3-3.8,2.1-4.5
					c1.8-0.7,3.8,0.3,4.5,2.1c0.1,0.2,0.1,0.3,0.2,0.4c0.2,0.3,0.7,0.5,1.2,0.4c0.6-0.1,0.8-0.4,0.9-0.7l31.9-68.9
					c0.8-1.7,2.9-2.5,4.6-1.7c1.7,0.8,2.5,2.9,1.7,4.6l-31.9,68.9c-1.2,2.6-3.5,4.3-6.4,4.7C415.2,485.9,414.6,485.9,414,485.8z"/>
			</g>
		</g>
		<circle class="st22" cx="566.5" cy="176.7" r="14.9"/>
	</g>
</g>
</svg>
